<?xml version="1.0" encoding="utf-8"?>
<!-- Generator: Adobe Illustrator 17.0.0, SVG Export Plug-In . SVG Version: 6.00 Build 0)  -->
<!DOCTYPE svg PUBLIC "-//W3C//DTD SVG 1.1//EN" "http://www.w3.org/Graphics/SVG/1.1/DTD/svg11.dtd">
<svg version="1.1" id="Layer_1" xmlns="http://www.w3.org/2000/svg" xmlns:xlink="http://www.w3.org/1999/xlink" x="0px" y="0px"
	 width="19px" height="19px" viewBox="0 0 19 19" enable-background="new 0 0 19 19" xml:space="preserve">
<title>Group 4</title>
<desc>Created with Sketch.</desc>
<g>
	<path fill="#13181A" d="M8,16c-4.411,0-8-3.589-8-8s3.589-8,8-8c4.411,0,8,3.589,8,8S12.411,16,8,16z M8,2.2
		C4.802,2.2,2.2,4.802,2.2,8s2.602,5.801,5.8,5.801c3.198,0,5.801-2.603,5.801-5.801S11.198,2.2,8,2.2z"/>
	<path fill="#13181A" d="M16.834,18.53l-4.364-4.364l1.696-1.696l4.364,4.364L16.834,18.53z M13.247,13.389l0.777-0.777
		L13.247,13.389z"/>
</g>
</svg>
