<?xml version="1.0" encoding="utf-8"?>
<!-- Generator: Adobe Illustrator 17.0.0, SVG Export Plug-In . SVG Version: 6.00 Build 0)  -->
<!DOCTYPE svg PUBLIC "-//W3C//DTD SVG 1.1//EN" "http://www.w3.org/Graphics/SVG/1.1/DTD/svg11.dtd">
<svg version="1.1" id="Layer_1" xmlns="http://www.w3.org/2000/svg" xmlns:xlink="http://www.w3.org/1999/xlink" x="0px" y="0px"
	 width="23px" height="22px" viewBox="0 0 23 22" enable-background="new 0 0 23 22" xml:space="preserve">
<title>Group 6</title>
<desc>Created with Sketch.</desc>
<g id="Page-1">
	<g id="Delivery-Details" transform="translate(-76.000000, -747.000000)">
		<g id="Group" transform="translate(38.000000, 747.000000)">
			<g id="Group-6" transform="translate(38.000000, 0.000000)">
				<g id="Oval-5">
					<g>
						<g>
							<g id="path-1_2_">
								<circle fill="#FFFFFF" cx="10.5" cy="10.5" r="10.5"/>
							</g>
						</g>
						<g>
							<circle fill="#FFFFFF" cx="10.5" cy="10.5" r="9.95"/>
							<path fill="#13181A" d="M10.5,21C4.71,21,0,16.29,0,10.5S4.71,0,10.5,0S21,4.71,21,10.5S16.29,21,10.5,21z M10.5,1.1
								c-5.183,0-9.4,4.217-9.4,9.4c0,5.184,4.217,9.4,9.4,9.4c5.184,0,9.4-4.217,9.4-9.4C19.9,5.317,15.684,1.1,10.5,1.1z"/>
						</g>
						<g>
							<path fill="#13181A" d="M10.5,21C4.71,21,0,16.29,0,10.5C0,4.71,4.71,0,10.5,0C16.29,0,21,4.71,21,10.5
								C21,16.29,16.29,21,10.5,21z M10.5,2.2c-4.577,0-8.3,3.723-8.3,8.3c0,4.577,3.723,8.301,8.3,8.301
								c4.577,0,8.301-3.724,8.301-8.301C18.801,5.923,15.077,2.2,10.5,2.2z"/>
						</g>
					</g>
				</g>
				<g id="Rectangle-9" transform="translate(20.500000, 19.328427) rotate(-315.000000) translate(-20.500000, -19.328427) ">
					<g>
						<g id="path-2">
							<path fill="#FFFFFF" d="M18.828,18.328h3.343c0.552,0,1,0.448,1,1l0,0c0,0.552-0.448,1-1,1h-3.343c-0.552,0-1-0.448-1-1l0,0
								C17.828,18.776,18.276,18.328,18.828,18.328z"/>
						</g>
					</g>
					<g>
						<path fill="#13181A" d="M22.172,20.528h-3.344v-2.399l3.343-0.001c0,0,0,0,0.001,0.001l0.001,0.2
							c-0.001,0.001-0.001,0.001-0.001,0.001l0.001,1.999l-0.001-0.001V20.528z M18.828,19.428v-1.099V19.428z"/>
					</g>
				</g>
			</g>
		</g>
	</g>
</g>
</svg>
