<?xml version="1.0" encoding="UTF-8"?>
<svg width="24px" height="22px" viewBox="0 0 24 22" version="1.1" xmlns="http://www.w3.org/2000/svg" xmlns:xlink="http://www.w3.org/1999/xlink">
    <!-- Generator: Sketch 49.3 (51167) - http://www.bohemiancoding.com/sketch -->
    <title>Bank Details</title>
    <desc>Created with Sketch.</desc>
    <defs></defs>
    <g id="Page-1" stroke="none" stroke-width="1" fill="none" fill-rule="evenodd">
        <g id="Bank-Details" transform="translate(12.000000, 11.000000) scale(-1, 1) translate(-12.000000, -11.000000) " fill="#000000" fill-rule="nonzero">
            <path d="M6.139,17.217 C6.047,17.306 6,17.425 6,17.544 C6,17.794 6.203,18 6.455,18 C6.57,18 6.684,17.958 6.773,17.872 L7.521,17.143 L6.888,16.489 L6.139,17.217 Z M14.351,10.735 L11.781,13.216 C10.957,14.015 10.174,14.544 9.076,15.006 C9.572,13.922 10.126,13.154 10.949,12.356 L13.518,9.877 L12.469,8.794 L9.905,11.279 C8.527,12.615 7.825,13.909 7.175,15.716 L8.308,16.885 C10.132,16.292 11.448,15.63 12.826,14.294 L15.389,11.808 L14.351,10.735 Z M22.229,3.492 L16.702,8.851 L15.463,7.572 L20.992,2.211 C21.816,1.408 23.079,2.667 22.229,3.492 Z M21.586,0.456 C21.014,0.456 20.43,0.665 19.946,1.134 L13.342,7.539 L16.668,10.973 L23.272,4.57 C23.757,4.1 24,3.476 24,2.851 C24,1.425 22.819,0.456 21.586,0.456 Z M18,12.466 L18,20 L2,20 L2,8 L10.013,8 L12.071,6 L0,6 L0,22 L20,22 L20,10.527 L18,12.466 Z" id="Shape"></path>
        </g>
    </g>
</svg>