<?xml version="1.0" encoding="utf-8"?>
<!-- Generator: Adobe Illustrator 17.0.0, SVG Export Plug-In . SVG Version: 6.00 Build 0)  -->
<!DOCTYPE svg PUBLIC "-//W3C//DTD SVG 1.1//EN" "http://www.w3.org/Graphics/SVG/1.1/DTD/svg11.dtd">
<svg version="1.1" id="Layer_1" xmlns="http://www.w3.org/2000/svg" xmlns:xlink="http://www.w3.org/1999/xlink" x="0px" y="0px"
	 width="32px" height="32px" viewBox="0 0 32 32" enable-background="new 0 0 32 32" xml:space="preserve">
<title>brick</title>
<desc>Created with Sketch.</desc>
<g id="Page-1">
	<g id="brick" transform="translate(1.000000, 1.000000)">
		<g id="Shape">
			<path fill="#13181A" d="M29.945,14.142c-0.012-0.03-0.025-0.057-0.042-0.086c-0.03-0.05-0.069-0.093-0.112-0.132
				c-0.018-0.016-0.025-0.039-0.045-0.052c-0.009-0.006-0.021-0.006-0.03-0.012c-0.011-0.007-0.018-0.019-0.03-0.026l-2.806-1.604
				c0.375-0.361,0.621-0.85,0.621-1.403c0-0.746-0.416-1.419-1.085-1.755l-4.58-2.29l0.531-1.329l0.36-0.18
				c0.186,0.113,0.401,0.174,0.625,0.174c0.114,0,0.23-0.015,0.345-0.048l4.818-1.377C29.389,3.77,30,2.96,30,2.05
				C30,0.92,29.08,0,27.95,0h-0.575c-0.465,0-0.92,0.16-1.281,0.449l-3.505,2.804c-0.29,0.232-0.432,0.567-0.445,0.914L21.595,4.44
				c-0.138,0.069-0.245,0.185-0.301,0.327L20.712,6.22l-1.746-0.873c-1.334-0.668-3.044-0.306-3.995,0.835l-5.325,6.39l-9.181,2.449
				c-0.035,0.01-0.061,0.031-0.094,0.046c-0.019,0.009-0.041,0.005-0.06,0.016C0.3,15.09,0.295,15.104,0.285,15.11
				c-0.079,0.052-0.147,0.116-0.195,0.196c-0.005,0.009-0.008,0.018-0.012,0.026c-0.041,0.078-0.063,0.164-0.067,0.254
				C0.01,15.6,0,15.611,0,15.625v8.75c0,0.224,0.12,0.431,0.315,0.543l8.75,5C9.161,29.973,9.269,30,9.375,30
				c0.061,0,0.125-0.009,0.186-0.029l20-6.25C29.823,23.64,30,23.399,30,23.125v-8.75c0-0.021-0.012-0.039-0.014-0.06
				C29.98,14.255,29.967,14.199,29.945,14.142z M26.876,1.425c0.14-0.112,0.318-0.175,0.499-0.175h0.576c0.441,0,0.8,0.359,0.8,0.8
				c0,0.355-0.239,0.671-0.58,0.769l-4.486,1.283c-0.001-0.003-0.001-0.004-0.001-0.006c-0.014-0.029-0.039-0.046-0.056-0.071
				L26.876,1.425z M15.933,6.983c0.389-0.465,0.959-0.732,1.565-0.732c0.314,0,0.629,0.075,0.914,0.214l1.836,0.918l-0.126,0.315
				l-6.069,3.642c-0.295,0.177-0.391,0.561-0.214,0.858c0.117,0.196,0.324,0.304,0.536,0.304c0.11,0,0.221-0.029,0.321-0.09
				l6.25-3.75c0.117-0.07,0.207-0.176,0.259-0.304l0.165-0.412l4.489,2.244c0.243,0.123,0.394,0.366,0.394,0.642
				c0,0.327-0.222,0.611-0.54,0.691l-0.304,0.076c-0.001,0-0.004,0.001-0.005,0.001L8.583,15.804L15.933,6.983z M8.75,28.298
				l-7.5-4.285v-7.31l7.5,4.285V28.298z M9.449,19.947l-7.193-4.11l6.005-1.601l-1.866,2.239c-0.173,0.209-0.192,0.504-0.049,0.732
				C6.461,17.392,6.664,17.5,6.875,17.5c0.05,0,0.101-0.006,0.153-0.02l2.1-0.525l1.801,1.081c0.101,0.06,0.213,0.089,0.321,0.089
				c0.211,0,0.419-0.108,0.536-0.303c0.177-0.296,0.082-0.68-0.214-0.858l-0.731-0.439l2.403-0.6l1.435,0.86
				c0.101,0.06,0.213,0.089,0.321,0.089c0.211,0,0.419-0.108,0.536-0.303c0.177-0.296,0.083-0.68-0.214-0.858l-0.364-0.217
				l2.404-0.601l1.065,0.64c0.102,0.06,0.214,0.089,0.323,0.089c0.211,0,0.419-0.108,0.536-0.303
				c0.176-0.295,0.083-0.676-0.21-0.855l2.404-0.601l0.699,0.419c0.101,0.061,0.213,0.09,0.321,0.09
				c0.211,0,0.419-0.108,0.536-0.303c0.114-0.19,0.105-0.413,0.012-0.597l2.429-0.608l2.343,1.339L9.449,19.947z M28.75,22.665
				L10,28.525v-7.441l18.75-5.859V22.665z"/>
			<path fill="#13181A" d="M9.375,30.5c-0.195,0-0.388-0.051-0.557-0.147l-8.751-5c-0.35-0.2-0.567-0.574-0.567-0.978l0.02-8.896
				c0.019-0.147,0.058-0.27,0.117-0.382c0.089-0.154,0.185-0.264,0.301-0.353l0.274-0.153l0.117-0.05l9.035-2.41l5.223-6.268
				c1.064-1.276,3.111-1.709,4.603-0.962l1.261,0.63l0.38-0.948c0.099-0.254,0.291-0.464,0.541-0.589l0.31-0.154
				c0.081-0.389,0.286-0.729,0.596-0.976l3.505-2.804c0.451-0.36,1.017-0.558,1.594-0.558h0.575c1.406,0,2.55,1.144,2.55,2.55
				c0,1.131-0.76,2.14-1.849,2.452L23.834,5.88c-0.362,0.101-0.741,0.085-1.083-0.042L22.47,6.54l4.169,2.084
				C27.479,9.046,28,9.89,28,10.826c0,0.446-0.127,0.877-0.364,1.259l2.402,1.38c0.07,0.052,0.113,0.106,0.143,0.148
				c0.03,0.017,0.097,0.096,0.149,0.183l0.076,0.153c0.043,0.106,0.067,0.208,0.078,0.317l0.026,0.079l-0.011,0.03v8.75
				c0,0.494-0.316,0.925-0.788,1.073L9.71,30.449C9.605,30.482,9.492,30.5,9.375,30.5z M0.5,15.723v8.652
				c0,0.045,0.024,0.087,0.063,0.108L9.375,29.5c0.012,0,0.025-0.002,0.034-0.005l20.003-6.251c0.053-0.016,0.088-0.064,0.088-0.119
				l-0.086-8.868c-0.007-0.005-0.013-0.009-0.019-0.014l-3.345-1.912l0.481-0.463c0.302-0.29,0.468-0.66,0.468-1.042
				c0-0.556-0.311-1.057-0.81-1.308L21.2,7.023l0.772-1.933l0.776-0.388l0.235,0.142c0.173,0.104,0.386,0.127,0.577,0.073
				l4.814-1.377C29.038,3.351,29.5,2.738,29.5,2.05c0-0.854-0.695-1.55-1.55-1.55h-0.575c-0.351,0-0.695,0.121-0.969,0.339
				l-3.505,2.804c-0.203,0.162-0.252,0.384-0.258,0.542l-0.011,0.297l-0.815,0.406L20.976,6.91l-2.233-1.115
				c-1.091-0.546-2.609-0.226-3.387,0.708l-5.427,6.512l-9.371,2.514L0.5,15.723z M9.5,29.205v-8.488l19.75-6.172v8.487L9.5,29.205z
				 M10.5,21.451v6.395l17.75-5.548v-6.393L10.5,21.451z M9.25,29.159l-8.5-4.856v-8.462l8.5,4.856V29.159z M1.75,23.723l6.5,3.714
				v-6.159l-6.5-3.714V23.723z M9.39,20.489l-8.438-4.821l8.702-2.32l-2.875,3.447c-0.034,0.041-0.038,0.101-0.009,0.146
				C6.792,16.979,6.833,17,6.875,17l2.332-0.58l1.979,1.188c0.081,0.019,0.139,0.014,0.171-0.042
				c0.03-0.051,0.008-0.142-0.042-0.172l-1.766-1.06l3.774-0.943l1.613,0.967c0.08,0.018,0.138,0.013,0.171-0.042
				c0.03-0.051,0.009-0.142-0.042-0.172l-1.402-0.837l3.779-0.945l1.243,0.747c0.099,0.018,0.145,0.001,0.172-0.042
				c0.035-0.059,0.017-0.135-0.042-0.171l-1.02-0.622l3.765-0.941l0.875,0.525c0.097,0.018,0.145,0.003,0.172-0.042
				c0.025-0.042,0.007-0.09-0.006-0.116l-0.279-0.558l3.229-0.808l3.514,2.007L9.39,20.489z M7.03,17.989l2.478,1.416l17.068-5.334
				l-1.172-0.67l-1.787,0.447c-0.013,0.168-0.063,0.333-0.152,0.481c-0.307,0.51-1.026,0.694-1.544,0.384L21.4,14.401l-1.547,0.387
				c0.051,0.263,0.009,0.545-0.139,0.791c-0.305,0.507-1.017,0.694-1.538,0.39l-0.895-0.538l-1.273,0.319
				c0.036,0.072,0.063,0.148,0.084,0.229c0.072,0.291,0.026,0.594-0.128,0.852c-0.305,0.508-1.019,0.693-1.54,0.387l-1.261-0.756
				l-1.09,0.272c0.129,0.138,0.221,0.307,0.268,0.495c0.072,0.291,0.027,0.594-0.127,0.852c-0.306,0.51-1.03,0.691-1.543,0.385
				L9.048,17.49l-1.899,0.476C7.111,17.976,7.071,17.983,7.03,17.989z M3.561,16.008l2.276,1.3c-0.159-0.38-0.098-0.823,0.172-1.151
				l0.86-1.031L3.561,16.008z M7.218,16.66l8.331-9.998c0.732-0.875,2.032-1.159,3.081-0.648l2.252,1.125l-0.359,0.898l-6.212,3.729
				c-0.059,0.035-0.078,0.112-0.042,0.171C14.3,11.994,14.354,12,14.375,12l6.314-3.769l0.418-0.978l4.975,2.487
				c0.414,0.209,0.671,0.626,0.671,1.09c0,0.557-0.378,1.041-0.918,1.176L7.218,16.66z M17.497,6.75
				c-0.456,0-0.887,0.202-1.181,0.553l-6.37,7.644l15.644-3.911c0.096-0.024,0.162-0.109,0.162-0.206
				c0-0.086-0.044-0.158-0.119-0.196l-4.005-2.002c-0.098,0.191-0.242,0.347-0.426,0.457l-6.25,3.75
				c-0.507,0.309-1.234,0.132-1.544-0.386c-0.319-0.531-0.146-1.224,0.386-1.542l5.631-3.38l-1.239-0.619
				C17.973,6.807,17.732,6.75,17.497,6.75z M23.389,4.706l-0.162-0.403l-0.265-0.375l0.354-0.294l3.248-2.599
				c0.229-0.183,0.518-0.284,0.812-0.284h0.576c0.717,0,1.3,0.583,1.3,1.3c0,0.577-0.388,1.091-0.942,1.25L23.389,4.706z
				 M27.375,1.75c-0.067,0-0.134,0.023-0.187,0.065l-1.486,1.189l2.331-0.667c0.126-0.036,0.218-0.157,0.218-0.288
				c0-0.166-0.135-0.3-0.3-0.3H27.375z"/>
		</g>
	</g>
</g>
</svg>
