<?xml version="1.0" encoding="utf-8"?>
<!-- Generator: Adobe Illustrator 17.0.0, SVG Export Plug-In . SVG Version: 6.00 Build 0)  -->
<!DOCTYPE svg PUBLIC "-//W3C//DTD SVG 1.1//EN" "http://www.w3.org/Graphics/SVG/1.1/DTD/svg11.dtd">
<svg version="1.1" id="Layer_1" xmlns="http://www.w3.org/2000/svg" xmlns:xlink="http://www.w3.org/1999/xlink" x="0px" y="0px"
	 width="42px" height="33px" viewBox="0 0 42 33" enable-background="new 0 0 42 33" xml:space="preserve">
<title>nail</title>
<desc>Created with Sketch.</desc>
<g id="Page-1">
	<g id="nail" transform="translate(1.000000, 1.000000)">
		<g id="Shape">
			<path fill="#13181A" d="M38.223,12.235H22.35V4.436h1.246c0.917,0,1.661-0.745,1.661-1.665V1.665C25.257,0.745,24.514,0,23.596,0
				h-7.193c-0.917,0-1.661,0.745-1.661,1.665v1.107c0,0.919,0.744,1.665,1.661,1.665h1.246v7.799H1.777
				C0.796,12.235,0,13.032,0,14.016v6.009c0,0.984,0.796,1.781,1.777,1.781h15.872v4.37c0.001,0.103,0.02,0.204,0.058,0.3
				l1.52,3.987c0.163,0.43,0.642,0.646,1.071,0.483c0.222-0.084,0.398-0.26,0.482-0.483l1.52-3.953
				c0.038-0.095,0.057-0.197,0.058-0.3v-4.403h15.864c0.982,0,1.777-0.797,1.777-1.781v-6.009
				C40,13.032,39.204,12.235,38.223,12.235z M16.404,2.772V1.665h7.201v1.107H16.404z M20.698,4.436v7.799h-1.387V4.436H20.698z
				 M1.661,18.677v-4.661c0-0.064,0.052-0.117,0.116-0.117h5.457c-0.515,1.207-2.051,2.164-3.322,2.963
				c-0.762,0.397-1.457,0.911-2.06,1.523C1.782,18.479,1.718,18.576,1.661,18.677z M11.163,20.142H2.948
				c-0.04-0.259,0.033-0.522,0.199-0.724c0.489-0.444,1.03-0.827,1.611-1.14c1.62-0.999,3.762-2.322,4.236-4.378h8.115
				c-0.515,1.207-2.051,2.164-3.322,2.963c-0.773,0.394-1.48,0.908-2.093,1.523h0.033C11.322,18.877,11.12,19.506,11.163,20.142z
				 M20.698,26.026L20,27.824l-0.689-1.798v-4.22h1.387V26.026z M21.603,18.386h0.008c-0.405,0.492-0.607,1.12-0.565,1.756h-8.223
				c-0.04-0.259,0.033-0.522,0.199-0.724c0.489-0.444,1.03-0.827,1.611-1.14c1.62-0.999,3.762-2.322,4.236-4.378h8.115
				c-0.515,1.207-2.051,2.164-3.322,2.963C22.901,17.259,22.206,17.773,21.603,18.386z M30.922,20.142h-8.214
				c-0.04-0.259,0.033-0.522,0.199-0.724c0.489-0.444,1.03-0.827,1.611-1.14c1.62-0.999,3.762-2.322,4.236-4.378h8.106
				c-0.515,1.207-2.051,2.164-3.322,2.963c-0.762,0.397-1.457,0.911-2.06,1.523h0.008C31.082,18.877,30.88,19.506,30.922,20.142z
				 M38.347,20.05c0,0.064-0.052,0.117-0.116,0.117h-5.648c-0.04-0.259,0.033-0.522,0.199-0.724c0.489-0.444,1.03-0.827,1.611-1.14
				c1.395-0.832,3.189-1.973,3.953-3.579V20.05z"/>
			<path fill="#13181A" d="M20.004,31.35c-0.487,0-0.931-0.307-1.104-0.763l-1.52-3.986c-0.052-0.131-0.08-0.273-0.081-0.422v-4.022
				H1.777c-1.173,0-2.127-0.956-2.127-2.131v-6.009c0-1.175,0.955-2.131,2.127-2.131h15.522V4.786h-0.896
				c-1.109,0-2.011-0.904-2.011-2.015V1.665c0-1.111,0.902-2.015,2.011-2.015h7.193c1.109,0,2.011,0.904,2.011,2.015v1.107
				c0,1.111-0.901,2.015-2.011,2.015H22.7v7.099h15.522c1.173,0,2.127,0.956,2.127,2.131v6.009c0,1.175-0.954,2.131-2.127,2.131
				H22.708v4.054c0,0.145-0.027,0.288-0.081,0.427l-1.52,3.952c-0.119,0.313-0.368,0.564-0.685,0.684
				C20.288,31.324,20.147,31.35,20.004,31.35z M1.777,12.585c-0.787,0-1.427,0.642-1.427,1.431v6.009
				c0,0.789,0.64,1.432,1.427,1.432H18v4.719c0,0.057,0.012,0.117,0.033,0.171l1.522,3.991c0.091,0.242,0.377,0.372,0.62,0.28
				c0.129-0.049,0.23-0.15,0.278-0.278l1.521-3.957c0.023-0.059,0.035-0.116,0.035-0.173v-4.753h16.214
				c0.787,0,1.428-0.643,1.428-1.432v-6.009c0-0.789-0.641-1.431-1.428-1.431H22.001V4.086h1.596c0.723,0,1.312-0.589,1.312-1.314
				V1.665c0-0.725-0.589-1.314-1.312-1.314h-7.193c-0.723,0-1.311,0.59-1.311,1.314v1.107c0,0.725,0.588,1.314,1.311,1.314H18v8.499
				H1.777z M19.998,28.797l-1.038-2.771v-4.569h2.086l-0.023,4.696L19.998,28.797z M19.661,25.962l0.341,0.89l0.345-0.891v-3.805
				h-0.687V25.962z M38.23,20.517h-5.947l-0.046-0.296c-0.056-0.357,0.045-0.723,0.275-1.001c0.545-0.5,1.11-0.899,1.715-1.226
				c1.053-0.628,3.038-1.812,3.803-3.421l0.666,0.15v5.327C38.696,20.308,38.487,20.517,38.23,20.517z M32.957,19.817h5.04v-3.903
				c-1.014,1.252-2.526,2.154-3.424,2.689c-0.569,0.306-1.088,0.673-1.556,1.098C32.994,19.732,32.973,19.771,32.957,19.817z
				 M31.296,20.491h-8.888l-0.046-0.296c-0.056-0.358,0.045-0.723,0.275-1.001c0.542-0.498,1.108-0.898,1.715-1.226
				c1.518-0.937,3.619-2.233,4.061-4.148l0.063-0.271h8.914l-0.207,0.487c-0.553,1.295-2.142,2.294-3.418,3.097
				c-0.772,0.408-1.419,0.882-1.983,1.443l-0.024,0.031c-0.35,0.424-0.522,0.961-0.485,1.51L31.296,20.491z M23.082,19.792h7.49
				c0.023-0.369,0.117-0.727,0.277-1.057H30.65l0.579-0.595c0.628-0.639,1.35-1.173,2.146-1.589
				c1.026-0.646,2.251-1.416,2.884-2.302h-7.237c-0.621,2.043-2.749,3.356-4.32,4.326c-0.574,0.311-1.093,0.678-1.56,1.102
				C23.119,19.707,23.098,19.747,23.082,19.792z M21.421,20.491h-8.897l-0.046-0.296c-0.056-0.358,0.045-0.723,0.276-1.001
				c0.542-0.497,1.107-0.897,1.715-1.225c1.518-0.938,3.62-2.235,4.061-4.149l0.063-0.271h8.923l-0.208,0.488
				c-0.554,1.295-2.144,2.295-3.421,3.098c-0.767,0.405-1.412,0.878-1.977,1.438l-0.028,0.035c-0.351,0.425-0.522,0.961-0.485,1.51
				L21.421,20.491z M13.198,19.792h7.498c0.023-0.368,0.118-0.727,0.277-1.057h-0.198l0.578-0.596
				c0.629-0.638,1.352-1.172,2.147-1.588c1.024-0.645,2.25-1.416,2.884-2.302h-7.246c-0.621,2.042-2.749,3.356-4.321,4.326
				c-0.575,0.311-1.094,0.678-1.56,1.102C13.235,19.707,13.214,19.747,13.198,19.792z M11.537,20.491H2.649l-0.046-0.296
				c-0.056-0.358,0.045-0.723,0.275-1.001c0.543-0.498,1.108-0.898,1.715-1.225c1.518-0.938,3.62-2.234,4.061-4.149l0.063-0.271
				h8.923l-0.208,0.487c-0.553,1.296-2.142,2.294-3.419,3.098c-0.742,0.384-1.371,0.828-1.924,1.355l-0.091,0.118
				c-0.35,0.424-0.522,0.96-0.486,1.51L11.537,20.491z M3.323,19.792h7.49c0.023-0.369,0.118-0.727,0.277-1.057h-0.206l0.562-0.597
				c0.64-0.642,1.374-1.176,2.182-1.588c1.023-0.645,2.248-1.415,2.881-2.301H9.264c-0.621,2.043-2.749,3.356-4.321,4.326
				c-0.574,0.311-1.093,0.678-1.56,1.102C3.36,19.707,3.339,19.747,3.323,19.792z M1.311,20.002v-5.986
				c0-0.257,0.209-0.467,0.466-0.467h5.987l-0.208,0.487c-0.553,1.296-2.142,2.294-3.419,3.098c-0.794,0.419-1.458,0.91-2.035,1.496
				c-0.031,0.046-0.086,0.131-0.136,0.219L1.311,20.002z M2.011,14.25v3.506c0.538-0.481,1.116-0.879,1.739-1.204
				C4.775,15.906,6,15.136,6.634,14.25H2.011z M21.047,12.585H18.96V4.086h2.086V12.585z M19.661,11.885h0.687V4.786h-0.687V11.885z
				 M23.954,3.122h-7.9V1.314h7.9V3.122z M16.754,2.421h6.501V2.015h-6.501V2.421z"/>
		</g>
	</g>
</g>
</svg>
