<?xml version="1.0" encoding="utf-8"?>
<!-- Generator: Adobe Illustrator 17.0.0, SVG Export Plug-In . SVG Version: 6.00 Build 0)  -->
<!DOCTYPE svg PUBLIC "-//W3C//DTD SVG 1.1//EN" "http://www.w3.org/Graphics/SVG/1.1/DTD/svg11.dtd">
<svg version="1.1" id="Layer_1" xmlns="http://www.w3.org/2000/svg" xmlns:xlink="http://www.w3.org/1999/xlink" x="0px" y="0px"
	 width="42px" height="33px" viewBox="0 0 42 33" enable-background="new 0 0 42 33" xml:space="preserve">
<title>nail</title>
<desc>Created with Sketch.</desc>
<g>
	<path fill="#13181A" d="M39.223,13.235H23.35V5.436h1.246c0.917,0,1.661-0.745,1.661-1.665V2.665C26.257,1.745,25.514,1,24.596,1
		h-7.193c-0.917,0-1.661,0.745-1.661,1.665v1.107c0,0.919,0.744,1.665,1.661,1.665h1.246v7.799H2.777
		C1.796,13.235,1,14.032,1,15.016v6.009c0,0.984,0.796,1.781,1.777,1.781h15.872v4.37c0.001,0.103,0.02,0.204,0.058,0.3l1.52,3.987
		c0.163,0.43,0.642,0.646,1.071,0.483c0.222-0.084,0.398-0.26,0.482-0.483l1.52-3.953c0.038-0.095,0.057-0.197,0.058-0.3v-4.403
		h15.864c0.982,0,1.777-0.797,1.777-1.781v-6.009C41,14.032,40.204,13.235,39.223,13.235z M17.404,3.772V2.665h7.201v1.107H17.404z
		 M21.698,5.436v7.799h-1.387V5.436H21.698z M2.661,19.677v-4.661L2.777,14.9h5.457c-0.515,1.207-2.051,2.164-3.322,2.963
		c-0.762,0.397-1.457,0.911-2.06,1.523C2.782,19.479,2.718,19.576,2.661,19.677z M12.163,21.142H3.948
		c-0.04-0.259,0.033-0.522,0.199-0.724c0.489-0.444,1.03-0.827,1.611-1.14c1.62-0.999,3.762-2.322,4.236-4.378h8.115
		c-0.515,1.207-2.051,2.164-3.322,2.963c-0.773,0.394-1.48,0.908-2.093,1.523h0.033C12.322,19.877,12.12,20.506,12.163,21.142z
		 M21.698,27.026L21,28.824l-0.689-1.798v-4.22h1.387V27.026z M22.603,19.386h0.008c-0.405,0.492-0.607,1.12-0.565,1.756h-8.223
		c-0.04-0.259,0.033-0.522,0.199-0.724c0.489-0.444,1.03-0.827,1.611-1.14c1.62-0.999,3.762-2.322,4.236-4.378h8.115
		c-0.515,1.207-2.052,2.164-3.322,2.963C23.901,18.259,23.206,18.773,22.603,19.386z M31.922,21.142h-8.214
		c-0.04-0.259,0.033-0.522,0.199-0.724c0.489-0.444,1.03-0.827,1.611-1.14c1.62-0.999,3.762-2.322,4.236-4.378h8.106
		c-0.515,1.207-2.051,2.164-3.322,2.963c-0.762,0.397-1.457,0.911-2.06,1.523h0.008C32.082,19.877,31.88,20.506,31.922,21.142z
		 M39.347,21.05l-0.116,0.117h-5.648c-0.04-0.259,0.033-0.522,0.199-0.724c0.489-0.444,1.03-0.827,1.611-1.14
		c1.395-0.832,3.189-1.973,3.953-3.579V21.05z"/>
	<path fill="#13181A" d="M39.223,13.235v-0.35H23.7V5.786l0.896,0c1.111,0,2.011-0.902,2.011-2.015V2.665
		c0-1.112-0.9-2.014-2.011-2.015h-7.193c-1.111,0-2.011,0.902-2.011,2.015v1.107c0,1.112,0.9,2.014,2.011,2.015h0.896v7.099H2.777
		c-1.176,0-2.127,0.955-2.127,2.131v6.009c0,1.177,0.952,2.131,2.127,2.131h15.522l0,4.025v-0.002
		c0.001,0.145,0.029,0.29,0.083,0.425l0.326-0.129l-0.327,0.125l1.52,3.987c0.179,0.471,0.627,0.763,1.104,0.763
		c0.14,0,0.282-0.025,0.419-0.077c0.316-0.12,0.566-0.37,0.685-0.686l-0.001,0.002l1.52-3.953l-0.001,0.003
		c0.054-0.136,0.081-0.28,0.083-0.425v-4.056h15.514c1.176,0,2.127-0.955,2.127-2.131v-6.009c0-1.177-0.952-2.131-2.127-2.131
		V13.235v0.35c0.788,0.001,1.426,0.64,1.427,1.431v6.009c-0.001,0.791-0.64,1.43-1.427,1.431H23.009v4.753v-0.003l-0.034,0.174
		l-1.521,3.956l-0.001,0.002c-0.049,0.129-0.151,0.231-0.279,0.28l-0.17,0.031c-0.193,0-0.377-0.118-0.449-0.311l-1.52-3.988
		l-0.002-0.004l-0.034-0.174v0.003v-4.72H2.777c-0.788-0.001-1.426-0.64-1.427-1.431v-6.009c0.001-0.791,0.64-1.43,1.427-1.431
		h16.222V5.086h-1.596c-0.723-0.001-1.31-0.588-1.311-1.315V2.665c0.001-0.727,0.588-1.313,1.311-1.315h7.193
		c0.723,0.001,1.31,0.588,1.311,1.315v1.107c-0.001,0.727-0.588,1.313-1.311,1.315H23.35H23v8.499h16.222V13.235z M17.404,3.772
		h0.35V3.015h6.501v0.407l-6.851,0V3.772h0.35H17.404v0.35h7.551V2.315h-7.901v1.807h0.35V3.772z M21.698,5.436h-0.35v7.449h-0.687
		V5.786l1.037,0V5.436h-0.35H21.698v-0.35h-1.737v8.499h2.087V5.086h-0.35V5.436z M2.661,19.677h0.35v-4.516l0.014-0.014L2.777,14.9
		v0.35h5.457V14.9l-0.322-0.137c-0.219,0.518-0.69,1.029-1.276,1.499c-0.585,0.472-1.275,0.905-1.911,1.305l0.186,0.296l-0.162-0.31
		c-0.794,0.414-1.519,0.949-2.148,1.588l-0.016,0.017l-0.014,0.018c-0.079,0.105-0.151,0.215-0.216,0.329L2.661,19.677h0.35H2.661
		l0.305,0.172l0.166-0.253l-0.28-0.21l0.249,0.246c0.577-0.586,1.243-1.078,1.972-1.458l0.013-0.007l0.012-0.008
		c0.635-0.4,1.348-0.844,1.978-1.352c0.629-0.509,1.184-1.081,1.48-1.77l0.208-0.487H2.632l-0.219,0.219l-0.102,0.102v6.134
		l0.655-1.156L2.661,19.677z M12.163,21.142v-0.35H3.948v0.35l0.346-0.054l-0.007-0.086c0-0.131,0.045-0.259,0.13-0.361l-0.27-0.223
		l0.235,0.259c0.468-0.425,0.986-0.791,1.542-1.091l0.009-0.005l0.009-0.005c0.81-0.5,1.768-1.089,2.597-1.83
		c0.827-0.739,1.535-1.64,1.796-2.768L9.995,14.9v0.35h8.115V14.9l-0.322-0.137c-0.219,0.518-0.69,1.029-1.276,1.499
		c-0.585,0.472-1.275,0.905-1.911,1.305l0.186,0.296l-0.159-0.312c-0.806,0.411-1.543,0.947-2.182,1.588l-0.595,0.597h0.876v-0.35
		l-0.27-0.223c-0.422,0.512-0.65,1.153-0.65,1.812l0.006,0.19L12.163,21.142v-0.35V21.142l0.349-0.024l-0.005-0.143
		c0-0.498,0.173-0.982,0.49-1.367l0.472-0.573h-0.775v0.35l0.248,0.247c0.587-0.589,1.263-1.081,2.004-1.458l0.014-0.007
		l0.013-0.008c0.635-0.4,1.348-0.844,1.978-1.352c0.629-0.509,1.184-1.081,1.48-1.77l0.208-0.487H9.716l-0.063,0.271
		c-0.213,0.928-0.813,1.717-1.58,2.403c-0.766,0.685-1.689,1.257-2.498,1.756l0.184,0.298l-0.166-0.308
		c-0.606,0.327-1.171,0.726-1.681,1.189l-0.019,0.017l-0.016,0.019c-0.189,0.229-0.29,0.514-0.29,0.807l0.015,0.194l0.046,0.296
		h8.889l-0.025-0.374L12.163,21.142z M21.698,27.026L21.371,26.9l-0.369,0.952l-0.341-0.89v-3.805h0.687v3.87H21.698L21.371,26.9
		L21.698,27.026h0.35v-4.57h-2.087v4.635l1.037,2.705l1.05-2.705v-0.065H21.698z M22.603,19.386v0.35h0.008v-0.35l-0.27-0.223
		c-0.422,0.512-0.65,1.153-0.65,1.812l0.006,0.19l0.349-0.024v-0.35h-8.223v0.35l0.346-0.054l-0.007-0.086
		c0-0.131,0.045-0.259,0.13-0.361l-0.27-0.223l0.235,0.259c0.468-0.425,0.985-0.792,1.542-1.091l0.009-0.005l0.009-0.005
		c0.81-0.5,1.769-1.089,2.597-1.83c0.827-0.739,1.535-1.64,1.796-2.768L19.87,14.9v0.35h8.115V14.9l-0.322-0.137
		c-0.219,0.518-0.69,1.029-1.276,1.499c-0.585,0.472-1.275,0.905-1.911,1.305l0.186,0.296l-0.162-0.31
		c-0.794,0.414-1.519,0.949-2.148,1.588l-0.586,0.596h0.836V19.386l0.249,0.246c0.577-0.586,1.243-1.078,1.972-1.458l0.013-0.007
		l0.012-0.008c0.635-0.4,1.348-0.844,1.978-1.352c0.629-0.509,1.184-1.081,1.48-1.77l0.208-0.487h-8.923l-0.063,0.271
		c-0.213,0.928-0.813,1.717-1.58,2.403c-0.766,0.685-1.689,1.257-2.498,1.756l0.184,0.298l-0.166-0.308
		c-0.607,0.326-1.171,0.726-1.681,1.19l-0.018,0.017l-0.016,0.019c-0.189,0.229-0.29,0.514-0.29,0.807l0.015,0.194l0.046,0.296
		h8.897l-0.025-0.374l-0.005-0.143c0-0.498,0.173-0.981,0.49-1.367l0.472-0.573h-0.75V19.386l0.249,0.246L22.603,19.386z
		 M31.922,21.142v-0.35h-8.214v0.35l0.346-0.054l-0.007-0.086c0-0.131,0.045-0.259,0.13-0.361l-0.27-0.223l0.235,0.259
		c0.468-0.425,0.986-0.791,1.542-1.091l0.009-0.005l0.009-0.005c0.81-0.5,1.768-1.089,2.597-1.83
		c0.827-0.739,1.535-1.64,1.796-2.768L29.754,14.9v0.35h8.106V14.9l-0.322-0.137c-0.219,0.518-0.69,1.029-1.276,1.499
		c-0.585,0.472-1.275,0.905-1.911,1.305l0.186,0.296l-0.162-0.31c-0.794,0.414-1.519,0.95-2.147,1.588l-0.587,0.596h0.844v-0.35
		l-0.27-0.223c-0.422,0.512-0.65,1.153-0.65,1.812l0.006,0.19L31.922,21.142v-0.35V21.142l0.349-0.024l-0.005-0.143
		c0-0.498,0.173-0.982,0.49-1.367l0.472-0.573h-0.75v0.35l0.249,0.246c0.577-0.586,1.243-1.078,1.972-1.458l0.013-0.007l0.012-0.007
		c0.635-0.4,1.348-0.844,1.978-1.352c0.629-0.509,1.184-1.081,1.48-1.77l0.208-0.487h-8.915l-0.063,0.271
		c-0.213,0.928-0.813,1.717-1.58,2.403c-0.766,0.685-1.689,1.257-2.498,1.756l0.184,0.298l-0.166-0.308
		c-0.606,0.327-1.171,0.726-1.681,1.189l-0.019,0.017l-0.016,0.019c-0.189,0.229-0.29,0.514-0.29,0.807l0.015,0.194l0.046,0.296
		h8.889l-0.025-0.374L31.922,21.142z M39.347,21.05l-0.248-0.247l-0.014,0.014l-5.503,0v0.35l0.346-0.054l-0.007-0.086
		c0-0.131,0.045-0.259,0.13-0.361l-0.27-0.223l0.235,0.259c0.468-0.425,0.985-0.792,1.542-1.091l0.006-0.004l0.007-0.004
		c1.401-0.842,3.254-1.992,4.09-3.729l-0.316-0.15h-0.35v5.327H39.347l-0.248-0.247L39.347,21.05h0.35v-5.327l-0.666-0.15
		c-0.692,1.475-2.427,2.606-3.817,3.429l0.179,0.301l-0.166-0.308c-0.607,0.326-1.171,0.726-1.681,1.19l-0.018,0.017l-0.016,0.019
		c-0.189,0.229-0.29,0.514-0.29,0.807l0.015,0.194l0.046,0.296h6.093l0.219-0.219l0.102-0.102V21.05H39.347z"/>
</g>
</svg>
