<?xml version="1.0" encoding="utf-8"?>
<!-- Generator: Adobe Illustrator 17.0.0, SVG Export Plug-In . SVG Version: 6.00 Build 0)  -->
<!DOCTYPE svg PUBLIC "-//W3C//DTD SVG 1.1//EN" "http://www.w3.org/Graphics/SVG/1.1/DTD/svg11.dtd">
<svg version="1.1" id="Layer_1" xmlns="http://www.w3.org/2000/svg" xmlns:xlink="http://www.w3.org/1999/xlink" x="0px" y="0px"
	 width="54px" height="47px" viewBox="0 0 54 47" enable-background="new 0 0 54 47" xml:space="preserve">
<title>Group 10 Copy</title>
<desc>Created with Sketch.</desc>
<g id="Page-1">
	<g id="Group-10-Copy">
		<g id="Rectangle-19">
			<path fill="#13181A" d="M47,45H7L3,8h48L47,45z M11.488,40h31.023l2.918-27H8.569L11.488,40z"/>
		</g>
		<g id="Rectangle-19_1_">
			<path fill="#13181A" d="M52,13H2L0,0h54L52,13z M6.29,8h41.421l0.461-3H5.828L6.29,8z"/>
		</g>
		<g id="Oval-8">
			<g>
				<g id="path-1">
					<circle fill="#FFFFFF" cx="12" cy="40" r="7"/>
				</g>
			</g>
			<g>
				<path fill="#13181A" d="M12,47c-3.86,0-7-3.141-7-7s3.14-7,7-7s7,3.141,7,7S15.86,47,12,47z M12,38c-1.103,0-2,0.897-2,2
					s0.897,2,2,2s2-0.897,2-2S13.103,38,12,38z"/>
			</g>
		</g>
		<g id="Oval-8_1_">
			<g>
				<g id="path-2">
					<circle fill="#FFFFFF" cx="43" cy="40" r="7"/>
				</g>
			</g>
			<g>
				<path fill="#13181A" d="M43,47c-3.859,0-7-3.141-7-7s3.141-7,7-7s7,3.141,7,7S46.859,47,43,47z M43,38c-1.103,0-2,0.897-2,2
					s0.897,2,2,2s2-0.897,2-2S44.103,38,43,38z"/>
			</g>
		</g>
	</g>
</g>
</svg>
