<?xml version="1.0" encoding="UTF-8"?>
<svg width="64px" height="53px" viewBox="0 0 64 53" version="1.1" xmlns="http://www.w3.org/2000/svg" xmlns:xlink="http://www.w3.org/1999/xlink">
    <!-- Generator: Sketch 48.2 (47327) - http://www.bohemiancoding.com/sketch -->
    <title>iconmonstr-delivery-4@1.5x</title>
    <desc>Created with Sketch.</desc>
    <defs></defs>
    <g id="Home" stroke="none" stroke-width="1" fill="none" fill-rule="evenodd" transform="translate(-243.000000, -414.000000)">
        <g id="iconmonstr-delivery-4" transform="translate(243.000000, 414.000000)" fill="#323E42">
            <path d="M5.33333333,25.81365 C2.07733333,23.1398 0,19.0959 0,14.575 C0,6.5296 6.57066667,0 14.6666667,0 C19.216,0 23.2853333,2.06435 25.976,5.3 L37.3333333,5.3 C38.8053333,5.3 40,6.4872 40,7.95 L40,13.25 L52.4453333,13.25 C55.424,13.25 56.712,14.7764 57.608,16.18355 C59.192,18.67455 61.704,22.62835 63.232,25.13525 C63.7333333,25.96205 64,26.91075 64,27.878 L64,39.75 C64,42.8134 62.3573333,45.05 58.6666667,45.05 L56,45.05 C56,49.4384 52.416,53 48,53 C43.584,53 40,49.4384 40,45.05 L29.3333333,45.05 C29.3333333,49.4384 25.7493333,53 21.3333333,53 C16.9173333,53 13.3333333,49.4384 13.3333333,45.05 L8,45.05 C6.528,45.05 5.33333333,43.8628 5.33333333,42.4 L5.33333333,25.81365 Z M21.3333333,41.87 C23.0986667,41.87 24.5333333,43.2957 24.5333333,45.05 C24.5333333,46.8043 23.0986667,48.23 21.3333333,48.23 C19.568,48.23 18.1333333,46.8043 18.1333333,45.05 C18.1333333,43.2957 19.568,41.87 21.3333333,41.87 Z M48,41.87 C49.7653333,41.87 51.2,43.2957 51.2,45.05 C51.2,46.8043 49.7653333,48.23 48,48.23 C46.2346667,48.23 44.8,46.8043 44.8,45.05 C44.8,43.2957 46.2346667,41.87 48,41.87 Z M28.7813333,10.6 C29.1413333,11.86405 29.3333333,13.197 29.3333333,14.575 C29.3333333,22.6204 22.7626667,29.15 14.6666667,29.15 C13.28,29.15 11.9386667,28.9592 10.6666667,28.60145 L10.6666667,39.75 L15.3733333,39.75 C16.8373333,38.1229 18.9653333,37.1 21.3333333,37.1 C23.7013333,37.1 25.8293333,38.1229 27.2933333,39.75 L42.04,39.75 C43.504,38.1229 45.632,37.1 48,37.1 C50.368,37.1 52.496,38.1229 53.96,39.75 L58.6666667,39.75 L58.6666667,27.62625 L54.104,19.8644 C53.6266667,19.05085 52.7493333,18.55 51.8026667,18.55 L40,18.55 L40,34.45 L34.6666667,34.45 L34.6666667,10.6 L28.7813333,10.6 Z M42.6666667,21.2 L42.6666667,29.15 L56,29.15 L52.1946667,22.5356 C51.72,21.7088 50.8373333,21.2 49.88,21.2 L42.6666667,21.2 Z M14.6666667,5.3 C19.8186667,5.3 24,9.4552 24,14.575 C24,19.6948 19.8186667,23.85 14.6666667,23.85 C9.51466667,23.85 5.33333333,19.6948 5.33333333,14.575 C5.33333333,9.4552 9.51466667,5.3 14.6666667,5.3 Z M16,13.25 L21.3333333,13.25 L21.3333333,15.9 L13.3333333,15.9 L13.3333333,7.95 L16,7.95 L16,13.25 Z" id="Shape"></path>
        </g>
    </g>
</svg>