<?xml version="1.0" encoding="utf-8"?>
<!-- Generator: Adobe Illustrator 17.0.0, SVG Export Plug-In . SVG Version: 6.00 Build 0)  -->
<!DOCTYPE svg PUBLIC "-//W3C//DTD SVG 1.1//EN" "http://www.w3.org/Graphics/SVG/1.1/DTD/svg11.dtd">
<svg version="1.1" id="Layer_1" xmlns="http://www.w3.org/2000/svg" xmlns:xlink="http://www.w3.org/1999/xlink" x="0px" y="0px"
	 width="36px" height="54px" viewBox="0 0 36 54" enable-background="new 0 0 36 54" xml:space="preserve">
<title>Group 10</title>
<desc>Created with Sketch.</desc>
<g id="Page-1">
	<g id="Group-10">
		<g id="Rectangle-19">
			<path fill="#13181A" d="M32,52H4L0,15h36L32,52z M8.488,47h19.023l2.918-27H5.569L8.488,47z"/>
		</g>
		<g id="Rectangle-19_1_">
			<path fill="#13181A" d="M36,13H-0.385l0.755-3.093C1.795,4.074,6.989,0,13,0h19.28L36,4.445V13z M6.745,8H31V6.262L29.944,5H13
				C10.497,5,8.224,6.147,6.745,8z"/>
		</g>
		<g id="Oval-8">
			<g>
				<g id="path-1">
					<circle fill="#FFFFFF" cx="29" cy="47" r="7"/>
				</g>
			</g>
			<g>
				<path fill="#13181A" d="M29,54c-3.859,0-7-3.141-7-7s3.141-7,7-7s7,3.141,7,7S32.859,54,29,54z M29,45c-1.103,0-2,0.897-2,2
					s0.897,2,2,2s2-0.897,2-2S30.103,45,29,45z"/>
			</g>
		</g>
	</g>
</g>
</svg>
