<?xml version="1.0" encoding="utf-8"?>
<!-- Generator: Adobe Illustrator 17.0.0, SVG Export Plug-In . SVG Version: 6.00 Build 0)  -->
<!DOCTYPE svg PUBLIC "-//W3C//DTD SVG 1.1//EN" "http://www.w3.org/Graphics/SVG/1.1/DTD/svg11.dtd">
<svg version="1.1" id="Layer_1" xmlns="http://www.w3.org/2000/svg" xmlns:xlink="http://www.w3.org/1999/xlink" x="0px" y="0px"
	 width="37px" height="34px" viewBox="0 0 37 34" enable-background="new 0 0 37 34" xml:space="preserve">
<title>gloves</title>
<desc>Created with Sketch.</desc>
<g>
	<path fill="#13181A" d="M34.901,13.525c-0.565-0.395-1.249-0.543-1.927-0.418c-0.677,0.125-1.264,0.509-1.653,1.08l-2.273,3.338
		V5.691c0-1.291-1.043-2.34-2.326-2.34c-0.342,0-0.666,0.075-0.959,0.209V3.352c0-1.291-1.044-2.34-2.326-2.34
		s-2.326,1.05-2.326,2.34V3.56c-0.293-0.134-0.617-0.209-0.959-0.209c-1.283,0-2.326,1.05-2.326,2.34v0.5
		c-0.293-0.134-0.617-0.209-0.959-0.209c-0.736,0-1.394,0.347-1.82,0.886l-2.481-4.323C11.925,1.427,10.5,1.042,9.389,1.688
		c-0.296,0.172-0.54,0.4-0.726,0.663L8.56,2.171C8.249,1.63,7.747,1.243,7.147,1.081c-0.6-0.162-1.227-0.079-1.765,0.234
		C4.271,1.96,3.89,3.394,4.531,4.512l0.103,0.18C4.314,4.723,3.996,4.821,3.7,4.993C2.589,5.638,2.207,7.072,2.848,8.19l0.248,0.433
		c-0.32,0.031-0.638,0.129-0.934,0.301c-1.111,0.645-1.493,2.079-0.851,3.197l6.81,11.868c0.256,0.446,0.644,0.784,1.111,0.974
		l4.414,7.693c0.091,0.158,0.24,0.273,0.415,0.321L14.238,33c0.119,0,0.237-0.031,0.342-0.092l0.509-0.296
		C15.2,32.842,15.433,33,15.703,33h14.632c0.378,0,0.684-0.308,0.684-0.688v-7.31l4.64-8.062
		C36.323,15.786,35.99,14.286,34.901,13.525z M9.626,3.465c0.066-0.249,0.225-0.457,0.447-0.586c0.458-0.266,1.045-0.108,1.31,0.353
		l3.08,5.367l0.079,0.111v3.886l-4.82-8.399C9.594,3.974,9.56,3.714,9.626,3.465z M15.02,31.064l-0.531,0.308l-3.376-5.884
		l0.573,0.154l0.177,0.024c0.302,0,0.578-0.203,0.66-0.51c0.098-0.367-0.119-0.744-0.483-0.842l-2.185-0.589
		c-0.234-0.063-0.429-0.214-0.55-0.424l-6.81-11.868c-0.264-0.461-0.107-1.052,0.351-1.318c0.458-0.266,1.045-0.107,1.31,0.353
		l4.834,8.424c0.189,0.329,0.607,0.442,0.934,0.252c0.302-0.175,0.42-0.547,0.288-0.862l-0.038-0.077L4.033,7.502
		C3.768,7.041,3.926,6.45,4.383,6.184c0.458-0.266,1.045-0.108,1.31,0.353l5.742,10.007c0.127,0.221,0.356,0.344,0.593,0.344
		c0.116,0,0.234-0.03,0.341-0.092c0.327-0.19,0.439-0.611,0.25-0.94L6.877,5.849l0,0L5.715,3.824
		C5.587,3.601,5.553,3.341,5.619,3.092c0.066-0.249,0.225-0.457,0.447-0.586c0.222-0.129,0.48-0.163,0.727-0.096
		c0.247,0.067,0.454,0.226,0.582,0.449l6.904,12.033l0,0l0.261,0.455v6.539c0,0.523,0.17,1.02,0.478,1.425V31.064z M34.475,16.251
		l-4.732,8.222l0,0c-0.058,0.101-0.092,0.219-0.092,0.344v3.448h-7.982c-0.378,0-0.684,0.308-0.684,0.688s0.306,0.688,0.684,0.688
		h7.982v1.983H16.387V24.5l0.526,0.422c0.126,0.101,0.276,0.15,0.426,0.15c0.201,0,0.4-0.089,0.535-0.259
		c0.235-0.297,0.187-0.73-0.109-0.967l-1.491-1.195c-0.232-0.186-0.365-0.464-0.365-0.763V8.322c0-0.532,0.43-0.965,0.959-0.965
		s0.959,0.433,0.959,0.965v9.727c0,0.38,0.306,0.688,0.684,0.688s0.684-0.308,0.684-0.688V8.322V5.691
		c0-0.532,0.43-0.965,0.959-0.965c0.529,0,0.959,0.433,0.959,0.965v11.556c0,0.38,0.306,0.688,0.684,0.688s0.684-0.308,0.684-0.688
		V5.691V3.352c0-0.532,0.43-0.965,0.959-0.965s0.959,0.433,0.959,0.965v2.339v11.556c0,0.38,0.306,0.688,0.684,0.688
		c0.378,0,0.684-0.308,0.684-0.688V5.691c0-0.532,0.43-0.965,0.959-0.965s0.959,0.433,0.959,0.965v12.257
		c0,0.278,0.094,0.552,0.265,0.77c0.243,0.31,0.62,0.487,1.013,0.474c0.392-0.013,0.758-0.215,0.979-0.54l2.511-3.687
		c0.182-0.267,0.456-0.446,0.772-0.505c0.316-0.058,0.636,0.011,0.9,0.195C34.63,15.011,34.786,15.712,34.475,16.251z"/>
	<path fill="#13181A" d="M34.901,13.525l0.286-0.41c-0.517-0.361-1.124-0.552-1.743-0.551c-0.186,0-0.374,0.017-0.561,0.052
		c-0.806,0.148-1.513,0.611-1.975,1.29l-1.36,1.997l0-10.211c-0.001-1.565-1.264-2.839-2.826-2.84c-0.415,0-0.811,0.092-1.167,0.254
		l0.208,0.455h0.5V3.352c-0.001-1.565-1.264-2.839-2.826-2.84c-1.562,0.001-2.825,1.275-2.826,2.84V3.56h0.5l0.208-0.455
		c-0.355-0.162-0.751-0.254-1.166-0.254c-1.562,0.001-2.825,1.275-2.826,2.84v0.5h0.5l0.208-0.455
		c-0.355-0.162-0.751-0.254-1.167-0.254c-0.896,0-1.697,0.423-2.212,1.076l0.392,0.31l0.434-0.249L13,2.295
		c-0.522-0.91-1.475-1.422-2.452-1.421c-0.479,0-0.967,0.123-1.41,0.381C8.778,1.464,8.481,1.742,8.255,2.061l0.408,0.29
		l0.434-0.249l-0.103-0.18C8.619,1.268,8.004,0.793,7.277,0.598C7.035,0.533,6.788,0.5,6.541,0.5c-0.491,0-0.977,0.13-1.411,0.382
		C4.225,1.409,3.719,2.366,3.72,3.345c0,0.481,0.122,0.97,0.378,1.415L4.2,4.94l0.434-0.249L4.585,4.194
		C4.197,4.232,3.808,4.351,3.449,4.56C2.543,5.087,2.037,6.044,2.037,7.023c0,0.481,0.122,0.97,0.378,1.415l0.248,0.433l0.434-0.249
		L3.048,8.125C2.659,8.163,2.271,8.283,1.911,8.491C1.005,9.018,0.499,9.975,0.5,10.955c0,0.481,0.122,0.97,0.378,1.415l6.81,11.868
		c0.31,0.541,0.787,0.957,1.356,1.188l0.189-0.463l-0.434,0.249l4.414,7.693c0.156,0.273,0.415,0.473,0.719,0.554l0.032,0.008
		l0.21,0.028l0.033,0.004h0.033c0.206,0,0.411-0.054,0.593-0.16l0.509-0.296l-0.251-0.432l-0.45,0.218
		c0.189,0.394,0.594,0.67,1.064,0.67h14.632c0.656-0.001,1.184-0.534,1.184-1.188v-7.176l4.573-7.946
		c0.276-0.48,0.408-1.011,0.408-1.534c0-0.98-0.461-1.946-1.313-2.541L34.901,13.525l-0.286,0.41
		c0.569,0.396,0.886,1.052,0.886,1.721c0,0.356-0.089,0.712-0.275,1.035l-4.706,8.177v7.444c0,0.106-0.085,0.188-0.184,0.188H15.703
		l-0.164-0.105l-0.235-0.486l-0.975,0.567L14.238,32.5V33l0.066-0.496l-0.177-0.023l-0.066,0.496l0.13-0.483l-0.111-0.086
		l-4.5-7.842L9.421,24.5c-0.364-0.149-0.664-0.409-0.866-0.76l-6.81-11.868C1.578,11.582,1.5,11.267,1.5,10.955
		c0.001-0.64,0.329-1.259,0.914-1.598c0.233-0.135,0.48-0.211,0.732-0.236l0.77-0.076L3.282,7.941
		c-0.166-0.29-0.245-0.605-0.245-0.917c0.001-0.639,0.329-1.259,0.914-1.598c0.233-0.135,0.48-0.211,0.732-0.236l0.77-0.075
		l-0.488-0.85C4.798,3.972,4.72,3.658,4.72,3.345C4.72,2.706,5.048,2.086,5.633,1.747C5.917,1.582,6.226,1.5,6.541,1.5
		c0.158,0,0.317,0.021,0.475,0.064C7.491,1.692,7.879,1.992,8.126,2.42L8.229,2.6l0.389,0.677L9.07,2.641
		C9.218,2.433,9.408,2.255,9.64,2.12c0.288-0.167,0.599-0.245,0.908-0.245c0.632,0.001,1.246,0.329,1.585,0.919l2.849,4.964
		l0.458-0.579c0.338-0.426,0.851-0.696,1.428-0.696c0.268,0,0.521,0.059,0.751,0.164l0.708,0.324V5.691
		c0.002-1.016,0.823-1.839,1.826-1.84c0.268,0,0.521,0.059,0.751,0.164l0.708,0.323V3.352c0.002-1.016,0.823-1.839,1.826-1.84
		c1.003,0.002,1.824,0.825,1.826,1.84V3.56v0.778l0.708-0.323c0.23-0.105,0.483-0.163,0.751-0.164
		c1.003,0.002,1.824,0.825,1.826,1.84v13.457l3.186-4.679c0.316-0.463,0.783-0.768,1.331-0.87c0.127-0.024,0.253-0.035,0.379-0.035
		c0.416,0,0.818,0.126,1.171,0.371L34.901,13.525z M9.626,3.465l0.483,0.129c0.034-0.124,0.106-0.218,0.215-0.282l0.227-0.061
		c0.159,0.001,0.313,0.082,0.398,0.231l3.092,5.389l0.001,0.001v1.85l-3.886-6.772l-0.063-0.232l0.016-0.122L9.626,3.465
		L9.143,3.335c-0.034,0.125-0.05,0.253-0.05,0.381c0,0.254,0.067,0.506,0.195,0.73l5.753,10.027V8.55l-0.158-0.221l-3.067-5.346
		c-0.27-0.469-0.762-0.734-1.266-0.733c-0.248,0-0.501,0.064-0.729,0.197c-0.335,0.194-0.58,0.515-0.679,0.889L9.626,3.465z
		 M15.02,31.064l-0.251-0.432l-0.096,0.056l-3.126-5.447l-0.434,0.249l-0.13,0.483l0.573,0.154l0.031,0.008l0.21,0.028l0.033,0.004
		h0.033c0.526,0,1.001-0.352,1.143-0.881c0.027-0.102,0.04-0.205,0.04-0.307c0-0.524-0.347-1.003-0.877-1.147l-2.185-0.589
		c-0.107-0.03-0.189-0.092-0.246-0.19l-6.81-11.868l-0.062-0.232c0.001-0.164,0.084-0.32,0.23-0.405l0.227-0.061
		c0.159,0.001,0.313,0.082,0.398,0.231l4.834,8.424c0.218,0.38,0.617,0.596,1.026,0.595c0.201,0,0.407-0.052,0.592-0.16
		c0.379-0.221,0.591-0.621,0.59-1.028c0-0.154-0.03-0.311-0.092-0.46l-0.005-0.013l-0.044-0.09l-0.007-0.015L4.466,7.253
		L4.404,7.021c0.001-0.164,0.084-0.32,0.23-0.405l0.227-0.061C5.02,6.556,5.174,6.637,5.259,6.786l5.742,10.007
		c0.218,0.38,0.617,0.596,1.026,0.595c0.201,0,0.407-0.052,0.592-0.16c0.379-0.221,0.591-0.621,0.591-1.029
		c0-0.201-0.051-0.407-0.158-0.592L7.305,5.591L7.305,5.59L6.149,3.575L6.086,3.343l0.016-0.122
		c0.034-0.125,0.107-0.219,0.215-0.283l0.227-0.062l0.119,0.016c0.121,0.034,0.215,0.105,0.279,0.216l6.911,12.044l0,0l0.189,0.329
		l0,6.406c0,0.632,0.207,1.237,0.58,1.728l0.398-0.303h-0.5v7.752H15.02l-0.251-0.432L15.02,31.064h0.5v-7.92l-0.102-0.134
		c-0.242-0.319-0.376-0.708-0.376-1.123v-6.673l-0.328-0.571l-0.006-0.011L7.809,2.61C7.617,2.274,7.297,2.027,6.924,1.927
		c-0.125-0.034-0.253-0.051-0.38-0.051c-0.254,0-0.506,0.068-0.729,0.197c-0.335,0.194-0.58,0.515-0.679,0.889
		c-0.033,0.125-0.05,0.253-0.05,0.38c0,0.254,0.067,0.506,0.195,0.73l1.168,2.035l0,0.001l5.736,9.997l0.025,0.095l-0.093,0.164
		l-0.09,0.025l-0.159-0.093L6.127,6.288c-0.27-0.469-0.762-0.734-1.266-0.733c-0.248,0-0.501,0.064-0.729,0.197
		C3.664,6.024,3.404,6.518,3.404,7.021c0,0.247,0.063,0.501,0.195,0.73l6.133,10.688l0.03,0.062l0.45-0.218L9.75,18.475l0.015,0.073
		l-0.093,0.163l-0.09,0.025l-0.159-0.093L4.59,10.22C4.32,9.75,3.828,9.486,3.324,9.486c-0.248,0-0.501,0.064-0.729,0.197
		c-0.468,0.272-0.729,0.766-0.728,1.269c0,0.247,0.063,0.501,0.195,0.729l6.81,11.868c0.185,0.324,0.493,0.562,0.853,0.658
		l2.185,0.589l0.137,0.181l-0.007,0.05l-0.177,0.139l0,0.5l0.066-0.496l-0.145-0.019l-0.541-0.146l-1.164-0.314l4.226,7.365
		l1.214-0.706v-0.288H15.02z M34.475,16.251l-0.433-0.249l-4.948,8.597l0.341,0.268l0.309-0.393l-0.433-0.25
		c-0.1,0.173-0.159,0.378-0.159,0.594v2.948h-7.482c-0.656,0.001-1.184,0.534-1.184,1.188c0,0.654,0.527,1.187,1.184,1.188h7.482
		v0.983H16.887l0-6.625h-0.5l-0.313,0.39l0.526,0.422c0.216,0.174,0.48,0.26,0.738,0.26c0.347,0.001,0.695-0.155,0.927-0.449
		c0.172-0.217,0.257-0.481,0.257-0.739c0.001-0.346-0.153-0.694-0.445-0.928l-1.491-1.195c-0.114-0.093-0.177-0.223-0.178-0.373
		V8.322c0-0.257,0.21-0.464,0.459-0.465c0.249,0,0.458,0.207,0.459,0.465v9.727c0,0.654,0.527,1.187,1.184,1.188
		c0.656-0.001,1.184-0.534,1.184-1.188V8.322V5.691c0-0.257,0.21-0.464,0.459-0.465c0.249,0,0.458,0.207,0.459,0.465v11.556
		c0,0.654,0.527,1.187,1.184,1.188c0.656-0.001,1.184-0.534,1.184-1.188V5.691V3.352c0-0.257,0.21-0.464,0.459-0.465
		c0.249,0,0.458,0.207,0.459,0.465v2.339v11.556c0,0.654,0.527,1.187,1.184,1.188c0.656-0.001,1.184-0.534,1.184-1.188V5.691
		c0-0.257,0.21-0.464,0.459-0.465c0.249,0,0.458,0.207,0.459,0.465v12.257c0,0.391,0.131,0.771,0.372,1.079
		c0.329,0.42,0.832,0.666,1.365,0.666l0.055-0.001l0.002,0c0.553-0.019,1.064-0.301,1.376-0.759l2.511-3.687
		c0.109-0.159,0.263-0.259,0.45-0.294l0.128-0.012c0.14,0,0.273,0.041,0.395,0.125c0.191,0.132,0.3,0.356,0.3,0.586
		c0,0.122-0.03,0.241-0.093,0.351L34.475,16.251l0.433,0.249c0.153-0.266,0.226-0.56,0.226-0.849c0-0.541-0.254-1.074-0.728-1.406
		c-0.285-0.199-0.623-0.306-0.967-0.305c-0.103,0-0.207,0.009-0.31,0.029c-0.446,0.082-0.84,0.34-1.095,0.715l-2.511,3.687
		c-0.131,0.193-0.353,0.315-0.583,0.322l0.002,0l-0.027,0c-0.223,0-0.439-0.105-0.578-0.283c-0.102-0.129-0.159-0.297-0.159-0.462
		V5.691c-0.001-0.807-0.651-1.463-1.459-1.465c-0.808,0.001-1.458,0.658-1.459,1.465v11.556c0,0.106-0.085,0.188-0.184,0.188
		c-0.099,0-0.183-0.082-0.184-0.188V5.691V3.352c-0.001-0.807-0.651-1.463-1.459-1.465c-0.808,0.001-1.458,0.658-1.459,1.465v2.339
		v11.556c0,0.106-0.085,0.188-0.184,0.188c-0.099,0-0.183-0.082-0.184-0.188V5.691c-0.001-0.807-0.651-1.463-1.459-1.465
		c-0.808,0.001-1.458,0.658-1.459,1.465v2.631v9.727c0,0.106-0.085,0.188-0.184,0.188c-0.099,0-0.183-0.082-0.184-0.188V8.322
		c-0.001-0.807-0.651-1.463-1.459-1.465c-0.808,0.001-1.458,0.658-1.459,1.465v13.565c-0.001,0.448,0.203,0.874,0.553,1.153
		l1.491,1.195l0.07,0.148l-0.041,0.118l-0.143,0.07l-0.113-0.04L16.7,24.109l-0.813-0.651v8.666h14.264v-2.983h-8.482
		c-0.099,0-0.183-0.082-0.184-0.188c0-0.106,0.085-0.188,0.184-0.188h8.482v-3.948l0.026-0.095l0.216-0.375l-0.001,0l4.516-7.846
		L34.475,16.251z"/>
	<path fill="#13181A" d="M19.707,28.293C19.521,28.107,19.263,28,19,28c-0.264,0-0.521,0.107-0.707,0.293
		C18.107,28.479,18,28.737,18,29c0,0.264,0.107,0.521,0.293,0.707C18.479,29.894,18.737,30,19,30c0.263,0,0.52-0.106,0.707-0.293
		C19.893,29.521,20,29.263,20,29S19.893,28.479,19.707,28.293z"/>
	<path fill="#13181A" d="M19.707,28.293l0.353-0.354c-0.282-0.281-0.662-0.438-1.06-0.439c-0.399,0.001-0.779,0.159-1.061,0.439
		C17.659,28.222,17.501,28.601,17.5,29c0.001,0.399,0.159,0.779,0.439,1.061c0.282,0.282,0.663,0.439,1.061,0.439
		c0.397-0.001,0.778-0.158,1.06-0.439c0.281-0.283,0.438-0.662,0.44-1.061c-0.001-0.399-0.158-0.778-0.439-1.061L19.707,28.293
		l-0.354,0.354c0.091,0.09,0.148,0.226,0.147,0.353c0.001,0.127-0.056,0.264-0.147,0.354C19.262,29.446,19.128,29.501,19,29.5
		c-0.129,0.001-0.264-0.055-0.353-0.146C18.555,29.263,18.499,29.129,18.5,29c-0.001-0.127,0.056-0.264,0.147-0.354
		c0.09-0.091,0.225-0.147,0.353-0.146c0.127-0.001,0.264,0.056,0.354,0.147L19.707,28.293z"/>
</g>
</svg>
