<?xml version="1.0" encoding="utf-8"?>
<!-- Generator: Adobe Illustrator 17.0.0, SVG Export Plug-In . SVG Version: 6.00 Build 0)  -->
<!DOCTYPE svg PUBLIC "-//W3C//DTD SVG 1.1//EN" "http://www.w3.org/Graphics/SVG/1.1/DTD/svg11.dtd">
<svg version="1.1" id="Layer_1" xmlns="http://www.w3.org/2000/svg" xmlns:xlink="http://www.w3.org/1999/xlink" x="0px" y="0px"
	 width="37px" height="34px" viewBox="0 0 37 34" enable-background="new 0 0 37 34" xml:space="preserve">
<title>gloves</title>
<desc>Created with Sketch.</desc>
<g id="Page-1">
	<g id="gloves" transform="translate(1.000000, 1.000000)">
		<g id="Shape">
			<path fill="#13181A" d="M33.901,12.525c-0.565-0.395-1.249-0.543-1.927-0.418c-0.677,0.125-1.264,0.509-1.653,1.08l-2.273,3.338
				V4.691c0-1.291-1.044-2.34-2.326-2.34c-0.342,0-0.666,0.075-0.959,0.209V2.352c0-1.291-1.044-2.34-2.326-2.34
				s-2.326,1.05-2.326,2.34V2.56c-0.293-0.134-0.617-0.209-0.959-0.209c-1.283,0-2.326,1.05-2.326,2.34v0.499
				c-0.293-0.134-0.617-0.209-0.959-0.209c-0.736,0-1.394,0.347-1.82,0.886l-2.481-4.323C10.925,0.427,9.5,0.042,8.389,0.688
				c-0.296,0.172-0.54,0.4-0.726,0.663L7.56,1.171C7.249,0.63,6.747,0.243,6.147,0.081c-0.6-0.162-1.227-0.079-1.765,0.234
				C3.271,0.96,2.89,2.394,3.531,3.512l0.103,0.18C3.314,3.723,2.996,3.821,2.7,3.993C1.589,4.638,1.207,6.072,1.848,7.19
				l0.248,0.433c-0.32,0.031-0.638,0.129-0.934,0.301c-1.111,0.645-1.493,2.079-0.851,3.197l6.81,11.868
				c0.256,0.446,0.644,0.784,1.111,0.974l4.414,7.693c0.091,0.158,0.24,0.273,0.415,0.321C13.12,31.992,13.179,32,13.238,32
				c0.119,0,0.237-0.031,0.342-0.092l0.509-0.295C14.2,31.842,14.433,32,14.703,32h14.632c0.378,0,0.684-0.308,0.684-0.688v-7.31
				l4.64-8.062C35.323,14.786,34.99,13.286,33.901,12.525z M8.626,2.465c0.066-0.249,0.225-0.457,0.447-0.586
				c0.458-0.266,1.045-0.108,1.31,0.353l3.08,5.367c0.023,0.04,0.05,0.077,0.079,0.111v3.886l-4.82-8.399
				C8.594,2.974,8.56,2.714,8.626,2.465z M14.02,30.064l-0.531,0.308l-3.376-5.884l0.573,0.154c0.059,0.016,0.119,0.024,0.177,0.024
				c0.302,0,0.578-0.203,0.66-0.51c0.098-0.367-0.119-0.744-0.483-0.843l-2.185-0.589c-0.234-0.063-0.429-0.214-0.55-0.424
				l-6.81-11.868C1.231,9.972,1.388,9.381,1.846,9.115c0.458-0.266,1.045-0.108,1.31,0.353l4.834,8.424
				c0.189,0.329,0.607,0.442,0.934,0.252c0.302-0.175,0.42-0.547,0.288-0.862c0-0.008-0.011-0.032-0.038-0.077L3.033,6.502
				C2.768,6.041,2.926,5.45,3.383,5.184c0.458-0.266,1.045-0.108,1.31,0.353l5.742,10.007c0.127,0.221,0.356,0.344,0.593,0.344
				c0.116,0,0.234-0.03,0.341-0.092c0.327-0.19,0.439-0.611,0.25-0.94L5.877,4.849c0,0,0,0,0,0L4.715,2.824
				C4.587,2.601,4.553,2.341,4.619,2.092c0.066-0.249,0.225-0.457,0.447-0.586c0.222-0.129,0.48-0.163,0.727-0.096
				c0.247,0.067,0.454,0.226,0.582,0.449l6.904,12.033c0,0,0,0,0,0l0.261,0.455v6.539c0,0.524,0.17,1.02,0.478,1.425V30.064z
				 M33.475,15.251l-4.732,8.222c0,0,0,0,0,0c-0.058,0.101-0.092,0.219-0.092,0.344v3.448h-7.982c-0.378,0-0.684,0.308-0.684,0.688
				s0.306,0.688,0.684,0.688h7.982v1.983H15.387V23.5l0.526,0.422c0.126,0.101,0.276,0.15,0.426,0.15c0.201,0,0.4-0.089,0.535-0.259
				c0.235-0.297,0.187-0.73-0.109-0.967l-1.491-1.195c-0.232-0.186-0.365-0.464-0.365-0.763V7.322c0-0.532,0.43-0.965,0.959-0.965
				c0.529,0,0.959,0.433,0.959,0.965v9.727c0,0.38,0.306,0.688,0.684,0.688s0.684-0.308,0.684-0.688V7.322V4.691
				c0-0.532,0.43-0.965,0.959-0.965c0.529,0,0.959,0.433,0.959,0.965v11.556c0,0.38,0.306,0.688,0.684,0.688
				s0.684-0.308,0.684-0.688V4.691V2.352c0-0.532,0.43-0.965,0.959-0.965c0.529,0,0.959,0.433,0.959,0.965v2.339v11.556
				c0,0.38,0.306,0.688,0.684,0.688c0.378,0,0.684-0.308,0.684-0.688V4.691c0-0.532,0.43-0.965,0.959-0.965
				c0.529,0,0.959,0.433,0.959,0.965v12.257c0,0.278,0.094,0.552,0.265,0.77c0.243,0.31,0.62,0.487,1.013,0.474
				c0.392-0.013,0.758-0.215,0.979-0.54l2.511-3.687c0.182-0.267,0.456-0.446,0.772-0.505c0.316-0.058,0.636,0.011,0.9,0.195
				C33.63,14.011,33.786,14.712,33.475,15.251z"/>
			<path fill="#13181A" d="M29.335,32.5H14.703c-0.264,0-0.517-0.091-0.721-0.247l-0.151,0.088c-0.27,0.156-0.597,0.2-0.9,0.118
				c-0.302-0.08-0.564-0.282-0.719-0.555l-4.333-7.551c-0.5-0.242-0.91-0.624-1.192-1.115l-6.81-11.869
				C-0.9,10.014-0.437,8.274,0.912,7.491C1.048,7.412,1.189,7.345,1.335,7.29C0.671,5.958,1.149,4.314,2.449,3.56
				c0.146-0.084,0.297-0.155,0.454-0.212C2.42,2.07,2.917,0.588,4.131-0.118c0.647-0.375,1.427-0.478,2.146-0.285
				c0.58,0.157,1.083,0.486,1.455,0.944c0.126-0.107,0.262-0.202,0.406-0.286c0.429-0.249,0.916-0.381,1.41-0.381
				c1.009,0,1.949,0.544,2.452,1.421l2.16,3.764c0.608-0.466,1.414-0.666,2.171-0.54c0.088-1.487,1.32-2.669,2.821-2.669
				c0.168,0,0.333,0.015,0.496,0.043c0.218-1.349,1.386-2.383,2.789-2.383s2.57,1.034,2.788,2.383
				c0.163-0.029,0.328-0.043,0.496-0.043c1.559,0,2.826,1.274,2.826,2.84v10.212l1.36-1.997c0.464-0.683,1.166-1.141,1.975-1.291
				c0.816-0.153,1.635,0.032,2.304,0.5c1.301,0.907,1.698,2.697,0.905,4.074l-4.573,7.946v7.177
				C30.519,31.968,29.987,32.5,29.335,32.5z M5.542,0.5c-0.316,0-0.63,0.085-0.908,0.247C3.76,1.254,3.46,2.383,3.964,3.263
				l0.488,0.851l-0.77,0.075c-0.26,0.025-0.506,0.105-0.732,0.236C2.077,4.932,1.777,6.061,2.282,6.941l0.634,1.104L2.146,8.12
				C1.886,8.146,1.64,8.225,1.414,8.356C0.54,8.864,0.24,9.992,0.745,10.872l6.81,11.869c0.2,0.348,0.499,0.61,0.865,0.76
				l0.16,0.064l4.5,7.843c0.025,0.044,0.064,0.074,0.111,0.086l0.389,0.415l-0.251-0.433l0.976-0.567l0.235,0.486
				c0.024,0.051,0.081,0.105,0.164,0.105h14.632c0.102,0,0.184-0.084,0.184-0.188v-7.444l4.706-8.177
				c0.537-0.932,0.269-2.142-0.61-2.755c-0.452-0.316-1-0.438-1.55-0.336c-0.544,0.101-1.017,0.409-1.33,0.87l-2.875,4.222
				c0.019,0.002,0.037,0.003,0.057,0.003c0.258-0.008,0.476-0.129,0.608-0.322l2.511-3.688c0.257-0.378,0.646-0.632,1.095-0.715
				c0.448-0.083,0.905,0.018,1.277,0.277c0.719,0.502,0.939,1.492,0.502,2.254l-4.732,8.222c-0.017,0.029-0.025,0.062-0.025,0.096
				v3.948H20.67c-0.102,0-0.185,0.084-0.185,0.188s0.083,0.188,0.185,0.188h8.481v2.983H14.887v-8.666l1.339,1.073
				c0.121,0.099,0.203,0.037,0.256-0.029c0.064-0.082,0.051-0.201-0.029-0.266l-1.491-1.195c-0.352-0.282-0.553-0.703-0.553-1.154
				V7.322c0-0.808,0.654-1.464,1.459-1.464c0.804,0,1.458,0.657,1.458,1.464v9.727c0,0.207,0.367,0.207,0.367,0V4.691
				c0-0.808,0.654-1.465,1.459-1.465c0.804,0,1.458,0.657,1.458,1.465v11.555c0,0.207,0.368,0.207,0.368,0V2.353
				c0-0.808,0.654-1.465,1.458-1.465c0.805,0,1.459,0.657,1.459,1.465v13.895c0,0.207,0.367,0.207,0.367,0V4.691
				c0-0.808,0.654-1.465,1.459-1.465s1.459,0.657,1.459,1.465v12.257c0,0.167,0.057,0.332,0.158,0.463
				c0.059,0.073,0.13,0.135,0.209,0.181v-12.9c0-1.015-0.819-1.84-1.826-1.84c-0.261,0-0.514,0.055-0.751,0.163l-0.708,0.323V2.353
				c0-1.015-0.818-1.841-1.825-1.841s-1.826,0.826-1.826,1.841v0.985l-0.708-0.323c-0.237-0.108-0.49-0.163-0.751-0.163
				c-1.007,0-1.826,0.826-1.826,1.84v1.278l-0.708-0.324c-0.746-0.341-1.665-0.117-2.179,0.533l-0.458,0.579l-2.848-4.963
				C10.649,0.95,9.483,0.628,8.64,1.12C8.414,1.251,8.223,1.426,8.07,1.641L7.618,2.278L7.126,1.42
				C6.882,0.995,6.488,0.69,6.017,0.563C5.861,0.521,5.701,0.5,5.542,0.5z M15.887,30.124h12.264v-0.983H20.67
				c-0.653,0-1.185-0.532-1.185-1.188s0.531-1.188,1.185-1.188h7.481v-2.948c0-0.208,0.056-0.413,0.16-0.595l4.73-8.221
				c0.182-0.316,0.091-0.728-0.207-0.936c-0.153-0.107-0.337-0.146-0.524-0.114c-0.184,0.034-0.343,0.139-0.449,0.294l-2.511,3.687
				c-0.312,0.457-0.826,0.74-1.376,0.759c-0.002,0-0.003,0-0.004,0c-0.584,0-1.092-0.249-1.419-0.665
				c-0.239-0.307-0.371-0.689-0.371-1.079V4.691c0-0.256-0.206-0.465-0.459-0.465s-0.459,0.208-0.459,0.465v11.556
				c0,0.655-0.531,1.188-1.184,1.188s-1.184-0.532-1.184-1.188V2.353c0-0.256-0.206-0.465-0.459-0.465s-0.458,0.208-0.458,0.465
				v13.894c0,0.655-0.531,1.188-1.184,1.188c-0.653,0-1.185-0.533-1.185-1.188V4.691c0-0.256-0.205-0.465-0.458-0.465
				s-0.459,0.208-0.459,0.465v12.357c0,0.655-0.531,1.188-1.184,1.188c-0.653,0-1.184-0.533-1.184-1.188V7.322
				c0-0.256-0.206-0.464-0.458-0.464s-0.459,0.208-0.459,0.464v13.564c0,0.146,0.065,0.282,0.179,0.374l1.491,1.194
				c0.508,0.407,0.593,1.155,0.188,1.667c-0.323,0.408-0.903,0.556-1.379,0.359V30.124z M13.305,31.057L9.08,23.693l1.736,0.468
				c0.14-0.005,0.203-0.052,0.225-0.133c0.026-0.101-0.032-0.204-0.131-0.231l-2.185-0.589c-0.363-0.099-0.666-0.332-0.853-0.658
				l-6.81-11.868C0.661,9.984,0.9,9.087,1.595,8.683c0.676-0.392,1.609-0.137,1.995,0.536l4.833,8.424
				c0.033,0.058,0.093,0.093,0.159,0.093c0.172-0.072,0.206-0.174,0.168-0.263l-0.004-0.009L2.599,6.751
				C2.198,6.053,2.437,5.156,3.132,4.752C3.809,4.36,4.741,4.615,5.126,5.288l5.743,10.007c0.034,0.059,0.093,0.093,0.159,0.093
				c0.179-0.077,0.21-0.192,0.158-0.283L4.281,3.073C4.087,2.734,4.036,2.34,4.136,1.963C4.237,1.585,4.478,1.27,4.814,1.074
				C5.15,0.88,5.552,0.828,5.923,0.927c0.378,0.102,0.692,0.345,0.886,0.684l7.232,12.604v6.672c0,0.411,0.13,0.799,0.376,1.123
				l0.102,0.135v8.208L13.305,31.057z M11.068,25.149l2.452,4.271v-6.949c-0.313-0.469-0.478-1.013-0.478-1.585v-6.406l-7.1-12.373
				C5.88,2.001,5.781,1.924,5.663,1.892c-0.116-0.031-0.24-0.016-0.346,0.046c-0.107,0.063-0.182,0.16-0.214,0.282
				C5.07,2.343,5.086,2.465,5.148,2.575l6.905,12.033c0.326,0.566,0.131,1.293-0.433,1.621c-0.545,0.317-1.304,0.112-1.618-0.436
				L4.259,5.786C4.139,5.574,3.85,5.492,3.634,5.617C3.414,5.745,3.338,6.03,3.466,6.253L9.68,17.106
				c0.218,0.547,0.002,1.175-0.506,1.47c-0.544,0.315-1.304,0.113-1.618-0.435L2.722,9.717c-0.121-0.212-0.411-0.292-0.625-0.17
				c-0.22,0.128-0.296,0.414-0.168,0.637l6.81,11.868c0.055,0.097,0.141,0.162,0.247,0.191l2.184,0.589
				c0.629,0.17,1.004,0.822,0.836,1.454C11.885,24.737,11.514,25.07,11.068,25.149z M14.042,13.472L8.288,3.446
				C8.094,3.108,8.043,2.714,8.143,2.337c0.101-0.379,0.342-0.695,0.68-0.89c0.671-0.392,1.607-0.137,1.994,0.537l3.203,5.508
				l0.023,0.219V13.472z M9.551,2.25c-0.08,0-0.157,0.021-0.227,0.062C9.217,2.374,9.141,2.474,9.109,2.594
				C9.077,2.716,9.093,2.839,9.155,2.948l3.886,6.772V7.87c-0.004-0.007-0.009-0.015-0.013-0.022l-3.08-5.367
				C9.867,2.339,9.714,2.25,9.551,2.25z"/>
		</g>
		<g id="Shape_1_">
			<path fill="#13181A" d="M18.707,27.293C18.521,27.107,18.263,27,18,27c-0.264,0-0.521,0.107-0.707,0.293
				C17.107,27.479,17,27.737,17,28c0,0.264,0.107,0.521,0.293,0.707C17.479,28.894,17.737,29,18,29s0.52-0.106,0.707-0.293
				C18.893,28.521,19,28.263,19,28S18.893,27.479,18.707,27.293z"/>
			<path fill="#13181A" d="M18,29.5c-0.396,0-0.782-0.16-1.061-0.439C16.66,28.782,16.5,28.396,16.5,28s0.16-0.782,0.44-1.062
				c0.56-0.558,1.562-0.557,2.121,0.001C19.34,27.219,19.5,27.605,19.5,28s-0.16,0.781-0.439,1.061S18.395,29.5,18,29.5z M18,27.5
				c-0.131,0-0.26,0.054-0.354,0.147C17.555,27.738,17.5,27.87,17.5,28s0.055,0.262,0.146,0.353
				c0.187,0.187,0.523,0.186,0.708,0.001C18.445,28.262,18.5,28.13,18.5,28s-0.055-0.262-0.146-0.354S18.13,27.5,18,27.5z"/>
		</g>
	</g>
</g>
</svg>
