<?xml version="1.0" encoding="utf-8"?>
<!-- Generator: Adobe Illustrator 17.0.0, SVG Export Plug-In . SVG Version: 6.00 Build 0)  -->
<!DOCTYPE svg PUBLIC "-//W3C//DTD SVG 1.1//EN" "http://www.w3.org/Graphics/SVG/1.1/DTD/svg11.dtd">
<svg version="1.1" id="Layer_1" xmlns="http://www.w3.org/2000/svg" xmlns:xlink="http://www.w3.org/1999/xlink" x="0px" y="0px"
	 width="37px" height="37px" viewBox="0 0 37 37" enable-background="new 0 0 37 37" xml:space="preserve">
<title>spade</title>
<desc>Created with Sketch.</desc>
<g>
	<path fill="#13181A" d="M35.829,10.265l-9.094-9.094C26.625,1.061,26.477,1,26.322,1s-0.303,0.061-0.412,0.171l-8.688,8.681
		c-1.133,1.147-1.132,2.991,0.002,4.137l1.654,1.654l-9.752,9.752H7.755c-1.241-0.003-2.432,0.49-3.307,1.37l-2.937,2.936
		c-0.683,0.685-0.682,1.794,0.001,2.479l3.308,3.308C5.149,35.817,5.595,36.001,6.06,36c0.465,0.001,0.911-0.183,1.24-0.512
		l2.936-2.936c0.88-0.875,1.373-2.066,1.369-3.307v-1.371l9.752-9.752l1.655,1.655c0.549,0.546,1.293,0.851,2.067,0.849
		c0.775,0.002,1.52-0.304,2.07-0.851l8.68-8.686C35.939,10.981,36,10.832,36,10.678C36,10.523,35.938,10.375,35.829,10.265z
		 M10.609,27.22c-0.109,0.109-0.171,0.258-0.171,0.412v1.612c0.003,0.931-0.367,1.825-1.028,2.482l-2.936,2.936
		c-0.229,0.228-0.599,0.228-0.829,0.001l-3.308-3.308c-0.228-0.229-0.228-0.6,0-0.829l2.936-2.936
		c0.657-0.66,1.551-1.03,2.482-1.028l1.612,0c0.155,0,0.303-0.061,0.412-0.171l9.924-9.924l0.829,0.829L10.609,27.22z M26.325,18.95
		c-0.689,0.682-1.799,0.683-2.49,0.002l-1.241-1.241l3.311-3.311c0.591-0.591,0.821-1.451,0.605-2.258s-0.846-1.437-1.653-1.653
		c-0.807-0.216-1.667,0.014-2.258,0.605l-0.827,0.827c-0.228,0.228-0.228,0.597,0,0.825c0.228,0.228,0.597,0.228,0.825,0
		l0.827-0.827c0.296-0.296,0.727-0.411,1.131-0.303c0.404,0.108,0.72,0.424,0.828,0.828c0.108,0.404-0.007,0.835-0.303,1.131
		l-3.309,3.309l-1.656-1.656l0.828-0.828c0.228-0.228,0.228-0.597,0-0.825c-0.228-0.228-0.597-0.228-0.825,0l-0.83,0.83l-1.24-1.24
		c-0.682-0.69-0.682-1.799-0.001-2.49l8.274-8.268l8.269,8.269L26.325,18.95z"/>
	<path fill="#13181A" d="M35.829,10.265l0.354-0.354l-9.094-9.094C26.885,0.614,26.61,0.5,26.322,0.5
		c-0.287,0-0.563,0.114-0.766,0.317l-8.688,8.681l-0.002,0.002c-0.662,0.669-0.994,1.547-0.994,2.42
		c-0.001,0.874,0.333,1.751,0.996,2.421l0.004,0.004l1.298,1.298l-9.252,9.252H7.755h0.004l-0.016,0
		c-1.369,0-2.683,0.546-3.649,1.517l-2.936,2.935c-0.439,0.44-0.659,1.02-0.658,1.594c-0.001,0.575,0.221,1.153,0.658,1.591
		l3.309,3.309C4.888,36.263,5.459,36.5,6.055,36.5h0.002v-0.45L6.038,36.5l0.019,0v-0.45L6.038,36.5l0.01,0H6.06l0.008,0
		l-0.004-0.34l0,0.34h0.004l-0.004-0.34l0,0.34c0.596,0,1.168-0.237,1.589-0.658l2.936-2.936c0.97-0.965,1.516-2.278,1.516-3.648
		v-0.009v-1.167l9.252-9.252l1.302,1.302l0.001,0.001c0.641,0.637,1.509,0.995,2.413,0.995h0.004v-0.349l-0.009,0.349l0.009,0
		v-0.349l-0.009,0.349l0.005,0h0.007l0.007,0c0.905,0,1.773-0.358,2.415-0.996l0.003-0.003l8.679-8.685
		c0.203-0.203,0.317-0.479,0.317-0.766c0-0.287-0.114-0.563-0.318-0.766L35.829,10.265l-0.353,0.354l0.024,0.059l-0.024,0.059
		l-8.68,8.687l0.001-0.001c-0.455,0.452-1.07,0.705-1.711,0.705l-0.007,0v0.5l0.012-0.5l-0.02,0c-0.64,0-1.254-0.253-1.708-0.704
		l-2.008-2.008L11.105,27.667v1.578v-0.004v0.016c0,1.103-0.44,2.161-1.222,2.94l-2.937,2.937C6.711,35.368,6.394,35.5,6.063,35.5
		l-0.008,0l0.004,0.342V35.5H6.055l0.004,0.342V35.5V36l0.021-0.5l-0.023,0l-0.002,0c-0.33,0-0.647-0.131-0.881-0.365l-3.308-3.308
		C1.621,31.58,1.5,31.263,1.5,30.941C1.5,30.618,1.621,30.3,1.866,30.054l2.936-2.935c0.779-0.783,1.837-1.223,2.941-1.223l0.009,0
		h1.581l10.252-10.252l-2.008-2.008l0.002,0.002c-0.472-0.477-0.706-1.095-0.706-1.717c0.001-0.622,0.234-1.24,0.705-1.717
		l-0.002,0.002l8.688-8.681L26.322,1.5l0.059,0.024l9.094,9.094L35.829,10.265z M10.609,27.22l-0.353-0.354
		c-0.203,0.203-0.317,0.479-0.317,0.766v1.612l0,0.01c0,0.795-0.317,1.557-0.88,2.118l-2.937,2.936l-0.061,0.025l-0.062-0.026
		l-3.307-3.307L2.666,30.94l0.025-0.061l2.936-2.936c0.562-0.565,1.324-0.881,2.119-0.881h0.004l0.001-0.307l-0.008,0.306l0.008,0
		l0.001-0.307l-0.008,0.306l0.008,0l1.618,0c0.287,0,0.563-0.114,0.766-0.317l9.571-9.571l0.122,0.122l-9.571,9.571L10.609,27.22
		l0.354,0.354L21.24,17.296l-1.536-1.536L9.426,26.038l-0.059,0.024l-1.612,0v0.5l0.014-0.5l-0.024,0
		c-1.061,0-2.078,0.423-2.827,1.175l-2.935,2.935c-0.211,0.211-0.318,0.492-0.318,0.768c-0.001,0.276,0.107,0.557,0.317,0.768
		l3.309,3.309l0.001,0.001c0.211,0.209,0.491,0.316,0.766,0.316c0.276,0.001,0.556-0.106,0.767-0.317l2.937-2.936
		c0.751-0.748,1.174-1.765,1.174-2.826l0-0.01v-1.612l0.024-0.059L10.609,27.22z M26.325,18.95l-0.352-0.355
		c-0.249,0.246-0.569,0.367-0.894,0.368c-0.324-0.001-0.644-0.121-0.893-0.366l0.002,0.002l-0.887-0.887l2.957-2.957
		c0.539-0.539,0.831-1.264,0.831-2.007c0-0.245-0.032-0.492-0.097-0.734c-0.262-0.979-1.027-1.744-2.006-2.007
		c-0.242-0.065-0.489-0.097-0.734-0.097c-0.743,0-1.467,0.292-2.007,0.831l-0.827,0.827c-0.211,0.21-0.318,0.49-0.317,0.766
		c-0.001,0.276,0.107,0.556,0.317,0.766c0.21,0.211,0.491,0.318,0.766,0.317c0.276,0.001,0.556-0.107,0.766-0.317l0.827-0.827
		c0.127-0.128,0.299-0.197,0.475-0.197l0.173,0.023c0.232,0.062,0.413,0.243,0.475,0.475l0.023,0.174
		c0,0.176-0.069,0.347-0.197,0.475l-2.956,2.956l-0.949-0.949l0.475-0.475c0.211-0.21,0.318-0.491,0.317-0.766
		c0.001-0.276-0.107-0.556-0.317-0.766c-0.21-0.211-0.491-0.318-0.766-0.317c-0.276-0.001-0.556,0.107-0.766,0.317l-0.476,0.476
		l-0.886-0.886l0.002,0.002c-0.246-0.249-0.367-0.569-0.367-0.894c0.001-0.325,0.121-0.645,0.366-0.893l-0.002,0.002l7.92-7.914
		l7.563,7.563l-7.913,7.919l0.002-0.002L26.325,18.95l0.354,0.353l8.62-8.626l-8.976-8.976l-8.631,8.624l0.001-0.001
		c-0.436,0.441-0.655,1.021-0.655,1.596c-0.001,0.576,0.22,1.155,0.656,1.596l1.595,1.595l1.184-1.184l0.059-0.024l0.059,0.024
		l0.024,0.059l-0.024,0.059l-1.182,1.182l2.363,2.363l3.663-3.663c0.317-0.318,0.489-0.744,0.489-1.182
		c0-0.144-0.019-0.29-0.057-0.432c-0.155-0.577-0.605-1.027-1.182-1.182c-0.143-0.038-0.288-0.057-0.432-0.057
		c-0.437,0-0.864,0.172-1.182,0.49l-0.827,0.827l-0.059,0.024l-0.059-0.024l-0.024-0.059l0.024-0.059l0.827-0.827
		c0.349-0.349,0.818-0.538,1.299-0.538c0.158,0,0.318,0.021,0.475,0.063c0.634,0.17,1.129,0.665,1.299,1.299
		c0.042,0.157,0.063,0.317,0.063,0.475c0,0.481-0.189,0.95-0.538,1.3l-3.665,3.665l1.594,1.594l0.002,0.002
		c0.441,0.436,1.021,0.655,1.595,0.655c0.576,0.001,1.156-0.22,1.597-0.657l0.002-0.002L26.325,18.95z"/>
	<path fill="#13181A" d="M8.464,28.001L7.612,28c-0.57-0.001-1.116,0.225-1.518,0.629l-1.937,1.937C4.056,30.667,4,30.803,4,30.945
		s0.056,0.278,0.157,0.379l1.519,1.519C5.776,32.944,5.913,33,6.055,33c0.142,0,0.278-0.056,0.379-0.157l1.937-1.937
		C8.775,30.504,9.001,29.957,9,29.388l-0.001-0.852C8.999,28.24,8.76,28.001,8.464,28.001z M7.928,29.388
		c0.001,0.285-0.113,0.559-0.316,0.76l-1.558,1.558l-0.761-0.761l1.558-1.558c0.201-0.202,0.475-0.316,0.76-0.316h0.317
		L7.928,29.388L7.928,29.388z"/>
	<path fill="#13181A" d="M8.464,28.001l0-0.5L7.612,27.5l0,0.5l0.009-0.5l-0.014,0c-0.701,0-1.373,0.28-1.867,0.777l0.001-0.001
		l-1.937,1.937C3.609,30.407,3.5,30.671,3.5,30.945c0,0.275,0.109,0.538,0.303,0.732l1.519,1.519C5.516,33.391,5.78,33.5,6.055,33.5
		c0.275,0,0.539-0.11,0.733-0.304l1.937-1.937l-0.001,0.001C9.22,30.766,9.5,30.094,9.5,29.393v-0.001L9.056,29.39l0.443,0.023
		L9.5,29.392L9.056,29.39l0.443,0.023L9.5,29.401l-0.001-0.865c0-0.572-0.464-1.034-1.035-1.035V28.001v0.5l0.035,0.035L8.5,29.388
		l0.5,0l-0.499-0.026L8.5,29.393c0,0.435-0.173,0.852-0.482,1.158l-0.001,0.001L6.08,32.489L6.055,32.5L6.03,32.49l-1.52-1.52
		L4.5,30.945l0.01-0.025l1.937-1.937l0.001-0.001C6.755,28.673,7.172,28.5,7.607,28.5v-0.207L7.603,28.5h0.004v-0.207L7.603,28.5
		l0.004,0l0.857,0.001L8.464,28.001z M7.928,29.388h-0.5l0,0.002c0,0.151-0.06,0.297-0.168,0.403l-0.001,0.001l-1.205,1.205
		L6,30.945l1.205-1.205l0.001-0.001c0.107-0.107,0.252-0.168,0.403-0.168H7.61v-0.488L7.568,29.57l0.042,0.002v-0.488L7.568,29.57
		l0.021,0.002h0.339v-0.5h-0.5v0.317v0.5h0.5V29.388h-0.5H7.928v-0.5h0L7.928,29.388h0.5v-0.317v-0.5H7.611v0.5l0.043-0.498
		L7.61,28.572l-0.001,0c-0.418,0-0.818,0.167-1.113,0.463l0.001-0.001l-1.912,1.912l1.468,1.468l1.912-1.912l-0.001,0.001
		c0.296-0.294,0.463-0.695,0.463-1.113l0-0.002v-0.5h-0.5V29.388z"/>
</g>
</svg>
