<?xml version="1.0" encoding="utf-8"?>
<!-- Generator: Adobe Illustrator 17.0.0, SVG Export Plug-In . SVG Version: 6.00 Build 0)  -->
<!DOCTYPE svg PUBLIC "-//W3C//DTD SVG 1.1//EN" "http://www.w3.org/Graphics/SVG/1.1/DTD/svg11.dtd">
<svg version="1.1" id="Layer_1" xmlns="http://www.w3.org/2000/svg" xmlns:xlink="http://www.w3.org/1999/xlink" x="0px" y="0px"
	 width="37px" height="37px" viewBox="0 0 37 37" enable-background="new 0 0 37 37" xml:space="preserve">
<title>spade</title>
<desc>Created with Sketch.</desc>
<g id="Page-1">
	<g id="spade" transform="translate(1.000000, 1.000000)">
		<g id="Shape">
			<path fill="#13181A" d="M34.829,9.265l-9.094-9.094C25.625,0.061,25.477,0,25.322,0s-0.303,0.061-0.412,0.171l-8.688,8.681
				c-1.133,1.147-1.132,2.991,0.002,4.137l1.654,1.654l-9.752,9.752H6.755c-1.241-0.003-2.432,0.49-3.307,1.369l-2.937,2.936
				c-0.683,0.685-0.682,1.794,0.001,2.479l3.308,3.308C4.149,34.817,4.595,35.001,5.06,35c0.465,0.001,0.911-0.183,1.24-0.512
				l2.936-2.936c0.88-0.875,1.373-2.066,1.369-3.307v-1.371l9.752-9.752l1.655,1.655c0.549,0.546,1.293,0.851,2.067,0.849
				c0.775,0.002,1.52-0.304,2.07-0.851l8.68-8.687C34.939,9.981,35,9.832,35,9.678C35,9.523,34.938,9.375,34.829,9.265z
				 M9.609,26.22c-0.109,0.109-0.171,0.258-0.171,0.412v1.612c0.003,0.931-0.367,1.825-1.028,2.482l-2.936,2.936
				c-0.229,0.228-0.599,0.228-0.829,0.001l-3.308-3.308c-0.228-0.229-0.228-0.6,0-0.829l2.936-2.936
				c0.657-0.66,1.551-1.03,2.482-1.028l1.612,0c0.155,0,0.303-0.061,0.412-0.171l9.924-9.924l0.829,0.829L9.609,26.22z
				 M25.325,17.95c-0.689,0.682-1.799,0.683-2.49,0.002l-1.241-1.241l3.311-3.311c0.591-0.591,0.821-1.451,0.605-2.258
				c-0.216-0.807-0.846-1.437-1.653-1.653c-0.807-0.216-1.667,0.014-2.258,0.605l-0.827,0.827c-0.228,0.228-0.228,0.597,0,0.825
				c0.228,0.228,0.597,0.228,0.825,0l0.827-0.827c0.296-0.296,0.727-0.411,1.131-0.303s0.72,0.424,0.828,0.828
				c0.108,0.404-0.007,0.835-0.303,1.131l-3.309,3.309l-1.656-1.656l0.828-0.828c0.228-0.228,0.228-0.597,0-0.825
				c-0.228-0.228-0.597-0.228-0.825,0l-0.83,0.83l-1.24-1.24c-0.682-0.69-0.682-1.799-0.001-2.49l8.274-8.268l8.269,8.269
				L25.325,17.95z"/>
			<path fill="#13181A" d="M5.063,35.5H5.059c-0.603,0-1.167-0.233-1.592-0.658l-3.308-3.309c-0.875-0.878-0.876-2.307-0.001-3.185
				l2.938-2.938c0.958-0.963,2.287-1.516,3.646-1.516h1.178l9.252-9.252l-1.301-1.301c-1.322-1.335-1.323-3.506-0.004-4.842
				l8.691-8.683c0.402-0.403,1.129-0.403,1.531,0l9.095,9.094C35.388,9.116,35.5,9.388,35.5,9.678s-0.112,0.562-0.317,0.766
				l-8.681,8.686c-0.646,0.644-1.504,0.997-2.415,0.997l0,0c-0.925,0-1.781-0.354-2.428-0.995l-1.303-1.302l-9.252,9.251v1.164
				c0.004,1.364-0.549,2.699-1.517,3.661l-2.935,2.936C6.234,35.26,5.655,35.5,5.063,35.5z M6.755,24.896
				c-1.109,0-2.18,0.445-2.953,1.222l-2.938,2.938c-0.486,0.488-0.486,1.283,0.001,1.771l3.308,3.309
				C4.41,34.37,4.723,34.5,5.056,34.5h0.008c0.328,0,0.65-0.133,0.882-0.365l2.936-2.937c0.78-0.776,1.226-1.852,1.223-2.952v-1.579
				l10.252-10.251l2.009,2.008c0.924,0.917,2.528,0.896,3.431-0.002l8.68-8.685V9.619l-9.095-9.094h-0.117l-8.688,8.681
				c-0.934,0.945-0.933,2.486,0.004,3.432l2.006,2.006L8.333,24.896H6.755z M5.06,34.334c-0.289,0-0.561-0.112-0.766-0.315
				l-3.31-3.311c-0.422-0.424-0.422-1.111,0-1.535l2.937-2.937c0.742-0.746,1.771-1.174,2.825-1.174h1.623L18.704,14.76l1.536,1.536
				L9.962,26.573l-0.024,1.672c0.003,1.058-0.426,2.092-1.175,2.836l-2.935,2.935C5.622,34.221,5.35,34.334,5.06,34.334z
				 M6.745,26.063c-0.789,0-1.561,0.32-2.117,0.88L1.69,29.88c-0.033,0.033-0.033,0.088,0,0.121l3.308,3.309l0.475,0.353
				l-0.354-0.354l2.936-2.936c0.563-0.559,0.883-1.334,0.881-2.127v-1.613c0-0.29,0.113-0.563,0.317-0.767l9.571-9.57l-0.122-0.122
				l-9.571,9.571c-0.205,0.205-0.477,0.317-0.766,0.317H6.745z M24.08,18.962c-0.602,0-1.168-0.232-1.596-0.654l-1.597-1.597
				l3.665-3.665c0.462-0.462,0.645-1.143,0.475-1.775c-0.169-0.632-0.666-1.13-1.298-1.299c-0.635-0.167-1.315,0.015-1.776,0.476
				l-0.827,0.827c-0.027,0.028-0.027,0.09,0,0.118h0.118l0.827-0.827c0.414-0.415,1.05-0.583,1.613-0.433
				c0.575,0.154,1.028,0.607,1.182,1.182c0.154,0.575-0.011,1.193-0.432,1.614l-3.663,3.663l-2.362-2.363l1.182-1.182
				c0.032-0.032,0.032-0.085,0-0.118h-0.118l-1.184,1.184l-1.593-1.593c-0.871-0.882-0.872-2.314-0.003-3.194l8.63-8.624
				l8.977,8.977l-8.62,8.626C25.249,18.729,24.682,18.962,24.08,18.962z M22.302,16.711l0.888,0.887
				c0.475,0.468,1.306,0.471,1.784-0.003l7.911-7.917l-7.563-7.563l-7.92,7.914c-0.484,0.49-0.483,1.292,0.003,1.785l0.884,0.884
				l0.477-0.477c0.408-0.409,1.123-0.411,1.532,0c0.422,0.422,0.422,1.109,0,1.531l-0.475,0.475l0.948,0.949l2.956-2.956
				c0.169-0.169,0.235-0.417,0.173-0.648c-0.062-0.231-0.243-0.413-0.475-0.475c-0.225-0.062-0.48,0.007-0.647,0.174L21.951,12.1
				c-0.408,0.409-1.122,0.41-1.532,0c-0.204-0.205-0.317-0.477-0.317-0.766c0-0.29,0.113-0.562,0.317-0.766l0.827-0.827
				c0.712-0.712,1.771-0.995,2.741-0.734c0.977,0.261,1.745,1.03,2.007,2.006c0.261,0.976-0.021,2.026-0.734,2.741L22.302,16.711z"
				/>
		</g>
		<g id="Shape_1_">
			<path fill="#13181A" d="M7.464,27.001L6.612,27c-0.57-0.001-1.116,0.225-1.518,0.629l-1.937,1.937
				C3.056,29.667,3,29.803,3,29.945c0,0.142,0.056,0.278,0.157,0.379l1.519,1.519C4.776,31.944,4.913,32,5.055,32
				c0.142,0,0.278-0.056,0.379-0.157l1.937-1.937C7.775,29.504,8.001,28.957,8,28.388l-0.001-0.852
				C7.999,27.24,7.76,27.001,7.464,27.001z M6.928,28.388c0.001,0.285-0.113,0.559-0.316,0.76l-1.558,1.558l-0.761-0.761
				l1.558-1.558c0.201-0.202,0.475-0.316,0.76-0.316h0.317L6.928,28.388L6.928,28.388z"/>
			<path fill="#13181A" d="M5.055,32.5c-0.276,0-0.537-0.107-0.732-0.304l-1.519-1.519C2.61,30.483,2.5,30.217,2.5,29.945
				c0-0.276,0.107-0.536,0.302-0.731l1.938-1.938c0.497-0.5,1.161-0.776,1.868-0.776l0.857,0.001c0.57,0,1.035,0.465,1.035,1.035
				l0,0.852c0.002,0.697-0.281,1.38-0.777,1.873l-1.936,1.936C5.591,32.393,5.331,32.5,5.055,32.5z M6.611,27.5
				c-0.442,0-0.854,0.171-1.163,0.482L3.51,29.92l1.544,1.58c0.009,0,0.019-0.004,0.025-0.011l1.937-1.937
				c0.308-0.307,0.484-0.73,0.483-1.164l0-0.853L6.611,27.5z M5.055,31.414l-1.468-1.469l1.912-1.912
				c0.292-0.293,0.698-0.462,1.113-0.462h0.817v0.816c0.001,0.421-0.163,0.817-0.463,1.115L5.055,31.414z M5,29.945L5.055,30
				l1.205-1.205c0.052-0.052,0.093-0.111,0.121-0.176c-0.064,0.028-0.124,0.069-0.174,0.12L5,29.945z"/>
		</g>
	</g>
</g>
</svg>
