<?xml version="1.0" encoding="UTF-8"?>
<svg width="24px" height="24px" viewBox="0 0 24 24" version="1.1" xmlns="http://www.w3.org/2000/svg" xmlns:xlink="http://www.w3.org/1999/xlink">
    <!-- Generator: Sketch 48.2 (47327) - http://www.bohemiancoding.com/sketch -->
    <title>Shape</title>
    <desc>Created with Sketch.</desc>
    <defs></defs>
    <g id="Account" stroke="none" stroke-width="1" fill="none" fill-rule="evenodd" transform="translate(-320.000000, -442.000000)">
        <path d="M332,442 C325.373,442 320,447.373 320,454 C320,460.627 325.373,466 332,466 C338.627,466 344,460.627 344,454 C344,447.373 338.627,442 332,442 Z M340.975,458.383 L338.367,456.898 C338.77,456.014 339,455.035 339,454 C339,452.965 338.77,451.986 338.367,451.103 L340.975,449.618 C341.625,450.943 342,452.427 342,454 C342,455.573 341.625,457.057 340.975,458.383 Z M322,454 C322,452.427 322.375,450.943 323.025,449.617 L325.633,451.102 C325.23,451.986 325,452.965 325,454 C325,455.035 325.23,456.014 325.633,456.897 L323.025,458.382 C322.375,457.057 322,455.573 322,454 Z M327,454 C327,451.243 329.243,449 332,449 C334.757,449 337,451.243 337,454 C337,456.757 334.757,459 332,459 C329.243,459 327,456.757 327,454 Z M336.397,445.032 L334.912,447.64 C334.024,447.233 333.04,447 332,447 C330.96,447 329.976,447.233 329.088,447.64 L327.603,445.032 C328.932,444.378 330.421,444 332,444 C333.579,444 335.068,444.378 336.397,445.032 Z M327.603,462.968 L329.088,460.36 C329.976,460.767 330.96,461 332,461 C333.04,461 334.024,460.767 334.912,460.36 L336.397,462.968 C335.068,463.622 333.579,464 332,464 C330.421,464 328.932,463.622 327.603,462.968 Z" id="Shape" fill="#323E42" fill-rule="nonzero"></path>
    </g>
</svg>