<?xml version="1.0" encoding="utf-8"?>
<!-- Generator: Adobe Illustrator 17.0.0, SVG Export Plug-In . SVG Version: 6.00 Build 0)  -->
<!DOCTYPE svg PUBLIC "-//W3C//DTD SVG 1.1//EN" "http://www.w3.org/Graphics/SVG/1.1/DTD/svg11.dtd">
<svg version="1.1" id="Layer_1" xmlns="http://www.w3.org/2000/svg" xmlns:xlink="http://www.w3.org/1999/xlink" x="0px" y="0px"
	 width="29px" height="33px" viewBox="0 0 29 33" enable-background="new 0 0 29 33" xml:space="preserve">
<title>roller-brush</title>
<desc>Created with Sketch.</desc>
<g>
	<path fill="#13181A" d="M26.807,3.105h-5.876c-0.323,0-0.585,0.271-0.585,0.605c0,0.334,0.262,0.605,0.585,0.605h5.899v0.629
		h-3.473c-0.323,0-0.585,0.271-0.585,0.605s0.262,0.605,0.585,0.605h3.473v0.665h-4.56c-0.323,0-0.585,0.271-0.585,0.605
		s0.262,0.605,0.585,0.605h4.56v1.428l-0.053,0.054H4.824L4.771,9.456V2.258l0.053-0.054h21.954l0.053,0.054L26.807,3.105z
		 M17.423,18.832l0.053,0.054v11.85l-0.053,0.054h-3.695l-0.053-0.054V18.88l0.053-0.054L17.423,18.832z M26.778,1H4.824
		C4.149,1,3.602,1.566,3.602,2.264v2.982H1.585C1.262,5.246,1,5.517,1,5.851v10.101c0,0.334,0.262,0.605,0.585,0.605h13.418v1.065
		h-1.275c-0.675,0-1.222,0.566-1.222,1.264v11.85c0,0.698,0.547,1.264,1.222,1.264h3.695c0.675,0,1.222-0.566,1.222-1.264V18.88
		c-0.003-0.696-0.549-1.258-1.222-1.258h-1.251v-1.669c0-0.334-0.262-0.605-0.585-0.605H2.169V6.456h1.432v2.988
		c0,0.698,0.547,1.264,1.222,1.264h21.954c0.675,0,1.222-0.566,1.222-1.264V2.258C27.997,1.562,27.451,1,26.778,1z"/>
	<path fill="#13181A" d="M26.807,3.105v-0.5h-5.876c-0.613,0.002-1.084,0.507-1.085,1.105c0.001,0.597,0.472,1.102,1.085,1.105
		h5.399l0,0.129h0.5v-0.5h-3.473c-0.613,0.002-1.084,0.507-1.085,1.105c0.001,0.597,0.472,1.102,1.085,1.105h2.973l0,0.165h0.5v-0.5
		h-4.56c-0.613,0.002-1.084,0.507-1.085,1.105c0.001,0.597,0.472,1.102,1.085,1.105h4.06v0.928h0.5l-0.359-0.348l-0.053,0.054
		l0.359,0.348v-0.5H4.824v0.5l0.359-0.348L5.13,9.109L4.771,9.456h0.5V2.258h-0.5l0.359,0.348l0.053-0.054L4.824,2.204v0.5h21.954
		v-0.5l-0.359,0.348l0.053,0.054l0.359-0.348l-0.5-0.014l-0.023,0.847L26.807,3.105v-0.5V3.105l0.5,0.014l0.023-0.847l0.006-0.21
		l-0.199-0.206L26.99,1.704H4.612l-0.2,0.207L4.271,2.056v7.603l0.193,0.2l0.147,0.152H26.99l0.2-0.207l0.141-0.145v-2.13h-5.06
		l-0.085-0.105l0.085-0.105h5.06V6.154v-0.5h-3.973l-0.085-0.105l0.085-0.105h3.973V4.315v-0.5h-6.399L20.847,3.71l0.085-0.105
		h6.362l0.013-0.486L26.807,3.105z M17.423,18.832l-0.359,0.348l0.053,0.054l0.359-0.348h-0.5v11.85h0.5l-0.36-0.347l-0.053,0.054
		l0.36,0.347v-0.5h-3.695v0.5l0.36-0.347l-0.053-0.054l-0.36,0.347h0.5V18.88h-0.5l0.36,0.347l0.053-0.054l-0.36-0.347l-0.001,0.5
		l3.695,0.006L17.423,18.832l-0.359,0.348L17.423,18.832l0.001-0.5l-3.908-0.006l-0.2,0.207l-0.14,0.145v12.26l0.193,0.2
		l0.147,0.153h4.119l0.2-0.207l0.14-0.145V18.684l-0.193-0.2l-0.147-0.152l-0.212,0L17.423,18.832z M26.778,1V0.5H4.824
		c-0.965,0.002-1.72,0.803-1.722,1.764v2.482l-1.517,0C0.972,4.749,0.501,5.254,0.5,5.851v10.101
		c0.001,0.597,0.472,1.102,1.085,1.105h12.918v0.065l-0.775,0c-0.964,0.002-1.72,0.803-1.722,1.764v11.85
		c0.002,0.962,0.757,1.762,1.722,1.764h3.695c0.964-0.002,1.72-0.803,1.722-1.764V18.88v-0.002
		c-0.003-0.958-0.761-1.753-1.722-1.756h-0.751v-1.169c-0.001-0.597-0.472-1.102-1.085-1.105H2.669V6.956h0.432l0,2.488
		c0.002,0.962,0.757,1.762,1.722,1.764h21.954c0.964-0.002,1.72-0.803,1.722-1.764V2.258V2.256
		c-0.003-0.958-0.761-1.753-1.722-1.756V1v0.5c0.384-0.001,0.719,0.327,0.722,0.76v7.184c-0.001,0.435-0.337,0.763-0.722,0.764
		H4.824c-0.385-0.001-0.721-0.329-0.722-0.764V5.956H1.669v9.892h13.918l0.085,0.105v2.169h1.751
		c0.384-0.001,0.719,0.327,0.722,0.76V18.88v11.856c-0.001,0.435-0.337,0.763-0.722,0.764h-3.695
		c-0.385-0.001-0.721-0.329-0.722-0.764v-11.85c0.001-0.435,0.337-0.763,0.722-0.764h1.275h0.5v-2.065H1.585L1.5,15.953V5.851
		l0.085-0.105h2.517V2.264C4.103,1.829,4.438,1.501,4.824,1.5h21.954V1z"/>
</g>
</svg>
