<?xml version="1.0" encoding="utf-8"?>
<!-- Generator: Adobe Illustrator 17.0.0, SVG Export Plug-In . SVG Version: 6.00 Build 0)  -->
<!DOCTYPE svg PUBLIC "-//W3C//DTD SVG 1.1//EN" "http://www.w3.org/Graphics/SVG/1.1/DTD/svg11.dtd">
<svg version="1.1" id="Layer_1" xmlns="http://www.w3.org/2000/svg" xmlns:xlink="http://www.w3.org/1999/xlink" x="0px" y="0px"
	 width="29px" height="33px" viewBox="0 0 29 33" enable-background="new 0 0 29 33" xml:space="preserve">
<title>roller-brush</title>
<desc>Created with Sketch.</desc>
<g id="Page-1">
	<g id="roller-brush" transform="translate(1.000000, 1.000000)">
		<g id="Fill-1">
			<path fill="#13181A" d="M25.807,2.105h-5.876c-0.323,0-0.585,0.271-0.585,0.605s0.262,0.605,0.585,0.605h5.899v0.629h-3.473
				c-0.323,0-0.585,0.271-0.585,0.605c0,0.334,0.262,0.605,0.585,0.605h3.473v0.665h-4.56c-0.323,0-0.585,0.271-0.585,0.605
				s0.262,0.605,0.585,0.605h4.56v1.428c0,0.03-0.024,0.054-0.053,0.054H3.824c-0.029,0-0.053-0.024-0.053-0.054V1.258
				c0-0.03,0.024-0.054,0.053-0.054h21.954c0.029,0,0.053,0.024,0.053,0.054L25.807,2.105z M16.423,17.832
				c0.029,0,0.053,0.024,0.053,0.054v11.85c0,0.03-0.024,0.054-0.053,0.054h-3.695c-0.029,0-0.053-0.024-0.053-0.054V17.88
				c0-0.03,0.024-0.054,0.053-0.054L16.423,17.832z M25.778,0H3.824C3.149,0,2.602,0.566,2.602,1.264v2.982H0.585
				C0.262,4.246,0,4.517,0,4.851v10.101c0,0.334,0.262,0.605,0.585,0.605h13.418v1.065h-1.275c-0.675,0-1.222,0.566-1.222,1.264
				v11.85c0,0.698,0.547,1.264,1.222,1.264h3.695c0.675,0,1.222-0.566,1.222-1.264V17.88c-0.003-0.696-0.549-1.258-1.222-1.258
				h-1.251v-1.669c0-0.334-0.262-0.605-0.585-0.605H1.169V5.456h1.432v2.988c0,0.698,0.547,1.264,1.222,1.264h21.954
				C26.453,9.708,27,9.142,27,8.444V1.258C26.997,0.562,26.451,0,25.778,0z"/>
			<path fill="#13181A" d="M16.423,31.5h-3.695c-0.949,0-1.722-0.792-1.722-1.765V17.887c0-0.973,0.772-1.765,1.722-1.765h0.775
				v-0.064H0.584c-0.598,0-1.084-0.496-1.084-1.105V4.851c0-0.609,0.486-1.105,1.084-1.105h1.517V1.264
				c0-0.973,0.772-1.764,1.722-1.764h21.955c0.945,0,1.718,0.788,1.722,1.756v7.188c0,0.973-0.772,1.764-1.722,1.764H3.824
				c-0.95,0-1.722-0.792-1.722-1.764V5.956H1.669v7.892h12.918c0.598,0,1.084,0.496,1.084,1.105v1.169h0.751
				c0.944,0,1.717,0.787,1.723,1.755v11.858C18.146,30.708,17.373,31.5,16.423,31.5z M12.232,30.29
				c0.129,0.13,0.304,0.21,0.496,0.21h3.695c0.218,0,0.413-0.103,0.546-0.264l-0.546,0.054H12.232z M12.176,17.395
				c-0.105,0.134-0.169,0.305-0.169,0.492v11.849c0,0.216,0.085,0.411,0.221,0.551l-0.052-0.551V17.395z M16.923,17.336l0.053,0.551
				v12.341c0.106-0.133,0.17-0.305,0.17-0.492V17.88C17.145,17.667,17.059,17.474,16.923,17.336z M13.176,29.29h2.8V18.331
				l-2.8-0.004V29.29z M12.728,17.122c-0.214,0-0.407,0.1-0.539,0.257l0.54-0.053l4.191,0.007c-0.13-0.131-0.305-0.211-0.497-0.211
				h-1.751v-2.169c0-0.057-0.038-0.105-0.084-0.105H0.669V4.956h2.432v3.488c0,0.215,0.084,0.41,0.221,0.549L3.271,8.456V0.773
				C3.166,0.906,3.102,1.077,3.102,1.264v3.482H0.584C0.539,4.746,0.5,4.794,0.5,4.851v10.102c0,0.057,0.039,0.105,0.084,0.105
				h13.918v2.064H12.728z M3.339,9.011c0.128,0.123,0.298,0.198,0.484,0.198h21.955c0.211,0,0.401-0.097,0.534-0.25l-0.534,0.053
				H3.339z M21.271,6.319c-0.046,0-0.085,0.048-0.085,0.105s0.039,0.105,0.085,0.105h5.061v2.406
				C26.437,8.802,26.5,8.631,26.5,8.444V1.258c-0.001-0.212-0.086-0.406-0.221-0.543l0.052,0.543l-0.037,1.347h-6.362
				c-0.046,0-0.085,0.048-0.085,0.105s0.039,0.105,0.085,0.105h6.399v1.629h-3.974c-0.046,0-0.084,0.048-0.084,0.105
				c0,0.057,0.038,0.104,0.084,0.104h3.974v1.666H21.271z M4.271,8.011h21.06V7.529h-4.061c-0.599,0-1.085-0.496-1.085-1.105
				s0.486-1.105,1.085-1.105h0.311c-0.19-0.199-0.308-0.471-0.308-0.77c0-0.281,0.104-0.539,0.274-0.734h-1.616
				c-0.599,0-1.085-0.496-1.085-1.105c0-0.447,0.262-0.833,0.637-1.006H4.271V8.011z M3.824,0.5c-0.214,0-0.407,0.1-0.54,0.257
				l0.54-0.053h22.445C26.14,0.578,25.967,0.5,25.778,0.5H3.824z"/>
		</g>
	</g>
</g>
</svg>
