<?xml version="1.0" encoding="utf-8"?>
<!-- Generator: Adobe Illustrator 17.0.0, SVG Export Plug-In . SVG Version: 6.00 Build 0)  -->
<!DOCTYPE svg PUBLIC "-//W3C//DTD SVG 1.1//EN" "http://www.w3.org/Graphics/SVG/1.1/DTD/svg11.dtd">
<svg version="1.1" id="Layer_1" xmlns="http://www.w3.org/2000/svg" xmlns:xlink="http://www.w3.org/1999/xlink" x="0px" y="0px"
	 width="34px" height="34px" viewBox="0 0 34 34" enable-background="new 0 0 34 34" xml:space="preserve">
<title>trowel</title>
<desc>Created with Sketch.</desc>
<g id="Page-1">
	<g id="trowel" transform="translate(1.000000, 1.000000)">
		<g id="Shape">
			<path fill="#13181A" d="M31.513,0.487c-0.442-0.442-1.086-0.598-1.681-0.408L6.402,7.578c-0.556,0.178-0.97,0.623-1.108,1.191
				s0.027,1.153,0.44,1.566l6.751,6.751l-3.063,3.063l-0.393-0.393c-0.249-0.249-0.653-0.249-0.902,0l-7.276,7.276
				c-1.135,1.135-1.135,2.982,0,4.117C1.419,31.716,2.165,32,2.91,32c0.746,0,1.491-0.284,2.059-0.851l7.276-7.276
				c0.249-0.249,0.249-0.653,0-0.902l-0.393-0.393l3.063-3.063l6.751,6.751c0.317,0.317,0.735,0.487,1.169,0.487
				c0.132,0,0.265-0.016,0.397-0.048c0.568-0.138,1.013-0.552,1.191-1.108L31.92,2.168C32.111,1.573,31.954,0.929,31.513,0.487z
				 M4.067,30.247c-0.638,0.638-1.676,0.638-2.314,0s-0.638-1.676,0-2.314l6.825-6.825l2.314,2.314L4.067,30.247z M10.95,21.676
				l-0.626-0.626l6.905-6.905c0.173-0.173,0.453-0.173,0.626,0c0.173,0.173,0.173,0.453,0,0.626L10.95,21.676z M30.706,1.78
				l-7.498,23.429c-0.06,0.186-0.214,0.242-0.277,0.258c-0.064,0.015-0.226,0.036-0.364-0.102l-6.751-6.751l2.941-2.941
				c0.67-0.67,0.67-1.759,0-2.429c-0.67-0.67-1.759-0.67-2.429,0l-2.941,2.941L6.636,9.433C6.497,9.295,6.518,9.132,6.534,9.069
				c0.015-0.063,0.071-0.217,0.258-0.277L30.22,1.294c0.202-0.065,0.341,0.045,0.391,0.095C30.661,1.439,30.771,1.577,30.706,1.78z"
				/>
			<path fill="#13181A" d="M2.91,32.5c-0.912,0-1.769-0.354-2.412-0.998S-0.5,30.002-0.5,29.09s0.354-1.769,0.998-2.412l7.276-7.275
				c0.43-0.43,1.179-0.43,1.608,0l0.04,0.039l2.356-2.355l-6.397-6.398C4.843,10.15,4.629,9.389,4.809,8.65
				C4.987,7.913,5.526,7.333,6.25,7.102l23.43-7.498c0.767-0.245,1.62-0.038,2.187,0.53c0.574,0.575,0.777,1.413,0.53,2.187
				l-7.498,23.43c-0.232,0.725-0.812,1.264-1.55,1.441c-0.723,0.177-1.506-0.041-2.037-0.573l-6.397-6.396l-2.355,2.356l0.039,0.039
				c0.215,0.215,0.333,0.501,0.333,0.805s-0.118,0.59-0.333,0.805l-7.276,7.275C4.679,32.146,3.822,32.5,2.91,32.5z M8.578,20.069
				c-0.026,0-0.064,0.007-0.097,0.04l-7.276,7.275C0.75,27.839,0.5,28.444,0.5,29.09s0.25,1.251,0.705,1.705
				c0.909,0.91,2.501,0.91,3.41,0l7.276-7.275c0.046-0.046,0.046-0.149,0-0.195l-0.747-0.746l3.771-3.771l7.105,7.104
				c0.286,0.286,0.7,0.399,1.093,0.308c0.398-0.096,0.709-0.386,0.833-0.774l7.498-23.43c0.134-0.416,0.024-0.866-0.284-1.175
				c-0.307-0.306-0.764-0.414-1.175-0.285L6.555,8.054C6.166,8.178,5.876,8.49,5.78,8.886s0.019,0.806,0.308,1.095l7.104,7.105
				l-3.77,3.77L8.676,20.11C8.642,20.076,8.604,20.069,8.578,20.069z M2.91,31.226c-0.571,0-1.107-0.222-1.511-0.625
				c-0.833-0.832-0.833-2.188,0-3.021L8.578,20.4l3.021,3.021l-7.179,7.179C4.018,31.004,3.481,31.226,2.91,31.226z M8.578,21.814
				l-6.472,6.472c-0.443,0.443-0.443,1.164,0,1.607c0.429,0.428,1.179,0.428,1.607,0l6.472-6.472L8.578,21.814z M22.837,25.978
				c-0.235,0-0.457-0.093-0.624-0.261l-7.104-7.104l3.294-3.294c0.475-0.475,0.475-1.248,0-1.722c-0.459-0.459-1.265-0.459-1.722,0
				l-3.295,3.295L6.282,9.787C6.061,9.564,5.974,9.252,6.048,8.949C6.12,8.65,6.341,8.412,6.637,8.316l23.431-7.499
				c0.393-0.128,0.77,0.09,0.896,0.217c0.239,0.241,0.319,0.576,0.218,0.896l-7.498,23.43c-0.095,0.296-0.332,0.517-0.635,0.591
				L22.837,25.978z M16.523,18.613l6.266,6.266l7.373-23.042L7.121,9.211l6.266,6.266l2.587-2.587c0.836-0.837,2.298-0.837,3.136,0
				c0.864,0.865,0.864,2.271,0,3.136L16.523,18.613z M10.95,22.383L9.617,21.05l7.259-7.258c0.354-0.355,0.978-0.356,1.333,0
				c0.178,0.177,0.276,0.414,0.276,0.667c0,0.252-0.099,0.489-0.276,0.667L10.95,22.383z"/>
		</g>
		<g id="Shape_1_">
			<path fill="#13181A" d="M22.963,5.318c-0.131-0.241-0.57-0.374-0.98-0.296l-0.442,0.083c-0.41,0.077-0.635,0.335-0.504,0.576
				C21.143,5.876,21.449,6,21.779,6c0.079,0,0.159-0.007,0.238-0.022l0.442-0.083C22.868,5.817,23.094,5.559,22.963,5.318z"/>
		</g>
		<g id="Shape_2_">
			<path fill="#13181A" d="M19.971,6.487c-0.103-0.369-0.447-0.572-0.769-0.454L9.425,9.631c-0.321,0.118-0.498,0.513-0.395,0.882
				C9.112,10.81,9.353,11,9.611,11c0.062,0,0.125-0.011,0.187-0.034l9.777-3.597C19.897,7.251,20.074,6.856,19.971,6.487z"/>
		</g>
	</g>
</g>
</svg>
