<?xml version="1.0" encoding="utf-8"?>
<!-- Generator: Adobe Illustrator 17.0.0, SVG Export Plug-In . SVG Version: 6.00 Build 0)  -->
<!DOCTYPE svg PUBLIC "-//W3C//DTD SVG 1.1//EN" "http://www.w3.org/Graphics/SVG/1.1/DTD/svg11.dtd">
<svg version="1.1" id="Layer_1" xmlns="http://www.w3.org/2000/svg" xmlns:xlink="http://www.w3.org/1999/xlink" x="0px" y="0px"
	 width="34px" height="34px" viewBox="0 0 34 34" enable-background="new 0 0 34 34" xml:space="preserve">
<title>trowel</title>
<desc>Created with Sketch.</desc>
<g>
	<path fill="#13181A" d="M32.513,1.487c-0.442-0.442-1.086-0.598-1.681-0.408L7.402,8.578c-0.556,0.178-0.97,0.623-1.108,1.191
		c-0.138,0.568,0.027,1.153,0.44,1.566l6.751,6.751l-3.063,3.063l-0.393-0.393c-0.249-0.249-0.653-0.249-0.902,0l-7.276,7.276
		c-1.135,1.135-1.135,2.982,0,4.117C2.419,32.716,3.165,33,3.91,33c0.746,0,1.491-0.284,2.059-0.851l7.276-7.276
		c0.249-0.249,0.249-0.653,0-0.902l-0.393-0.393l3.063-3.063l6.751,6.751c0.317,0.317,0.735,0.487,1.169,0.487
		c0.132,0,0.265-0.016,0.397-0.048c0.568-0.138,1.013-0.552,1.191-1.108L32.92,3.168C33.111,2.573,32.954,1.929,32.513,1.487z
		 M5.067,31.247c-0.638,0.638-1.676,0.638-2.314,0s-0.638-1.676,0-2.314l6.825-6.825l2.314,2.314L5.067,31.247z M11.95,22.676
		l-0.626-0.626l6.905-6.905c0.172-0.173,0.453-0.173,0.626,0c0.173,0.173,0.173,0.453,0,0.626L11.95,22.676z M31.706,2.78
		l-7.498,23.429c-0.06,0.186-0.214,0.242-0.277,0.258c-0.064,0.015-0.226,0.036-0.364-0.102l-6.751-6.751l2.941-2.941
		c0.67-0.67,0.67-1.759,0-2.429s-1.759-0.67-2.429,0l-2.941,2.941l-6.751-6.751c-0.138-0.138-0.118-0.301-0.102-0.364
		c0.015-0.063,0.071-0.217,0.258-0.277L31.22,2.294c0.202-0.065,0.341,0.045,0.391,0.095C31.661,2.439,31.771,2.577,31.706,2.78z"/>
	<path fill="#13181A" d="M32.513,1.487l0.354-0.354C32.455,0.722,31.904,0.5,31.341,0.5c-0.221,0-0.444,0.034-0.661,0.104
		L7.25,8.101C6.531,8.33,5.985,8.917,5.808,9.651c-0.041,0.17-0.062,0.343-0.062,0.514c-0.001,0.565,0.224,1.114,0.634,1.523
		l6.398,6.398l-2.356,2.356l-0.04-0.04c-0.221-0.221-0.515-0.334-0.804-0.333c-0.289-0.001-0.584,0.112-0.804,0.333l-7.276,7.276
		C0.833,28.342,0.499,29.218,0.5,30.09c-0.001,0.871,0.333,1.748,0.998,2.412c0.664,0.665,1.541,0.998,2.412,0.998
		c0.871,0.001,1.748-0.333,2.412-0.998l7.276-7.276c0.221-0.221,0.334-0.515,0.333-0.804c0.001-0.289-0.112-0.584-0.333-0.804
		l-0.04-0.04l2.356-2.356l6.398,6.398c0.409,0.41,0.958,0.634,1.523,0.634c0.171,0,0.344-0.02,0.514-0.062
		c0.734-0.176,1.321-0.722,1.549-1.442l7.498-23.429C33.466,3.103,33.5,2.88,33.5,2.659c0-0.564-0.222-1.115-0.634-1.526
		L32.513,1.487l-0.354,0.354c0.223,0.223,0.34,0.516,0.341,0.819c0,0.119-0.018,0.238-0.056,0.357l-7.498,23.429
		c-0.127,0.393-0.431,0.676-0.832,0.775c-0.094,0.023-0.187,0.034-0.279,0.034c-0.303-0.001-0.591-0.117-0.816-0.341l-7.105-7.105
		l-3.77,3.77l0.747,0.747l0.04,0.097l-0.04,0.097l-7.276,7.276C5.144,32.266,4.53,32.499,3.91,32.5
		c-0.62-0.001-1.234-0.234-1.705-0.705C1.734,31.324,1.5,30.71,1.5,30.09c0.001-0.62,0.234-1.234,0.705-1.705l7.276-7.276
		l0.097-0.04l0.097,0.04l0.393,0.393l0.354,0.354l3.77-3.77l-7.105-7.105c-0.224-0.225-0.34-0.513-0.341-0.816
		c0-0.092,0.011-0.185,0.034-0.279c0.099-0.401,0.382-0.705,0.775-0.832l23.429-7.498C31.102,1.518,31.222,1.5,31.341,1.5
		c0.302,0,0.595,0.118,0.819,0.341L32.513,1.487z M5.067,31.247l-0.354-0.354c-0.222,0.222-0.511,0.332-0.804,0.332
		c-0.293-0.001-0.581-0.11-0.803-0.332c-0.222-0.222-0.332-0.511-0.332-0.804c0.001-0.293,0.11-0.581,0.332-0.803l6.472-6.472
		l1.607,1.607l-6.472,6.472L5.067,31.247l0.354,0.354l7.179-7.179l-3.021-3.021l-7.179,7.179c-0.416,0.416-0.626,0.966-0.625,1.511
		c-0.001,0.545,0.209,1.095,0.625,1.511c0.415,0.416,0.965,0.625,1.51,0.625c0.545,0.001,1.095-0.209,1.511-0.625L5.067,31.247z
		 M11.95,22.676l0.354-0.354l-0.272-0.272l6.552-6.552l-0.041-0.041l0,0.058l0.041-0.017l-0.041-0.041l0,0.058v-0.057l-0.04,0.04
		l0.04,0.017v-0.057l-0.04,0.04l0.041-0.041l-0.058,0l0.017,0.041l0.041-0.041l-0.058,0h0.057l-0.041-0.041l-0.017,0.041h0.057
		l-0.041-0.041l-6.905,6.905L11.95,22.676l0.354-0.354L11.95,22.676l0.354,0.354l6.905-6.905c0.183-0.183,0.276-0.427,0.276-0.667
		c0.001-0.239-0.093-0.484-0.276-0.667c-0.183-0.183-0.427-0.276-0.667-0.276c-0.239-0.001-0.484,0.093-0.667,0.276l-7.259,7.259
		l1.333,1.333l0.354-0.354L11.95,22.676z M31.706,2.78L31.23,2.627l-7.498,23.429l0.114,0.036l-0.069-0.095l-0.045,0.059
		l0.114,0.037l-0.069-0.095l0.061,0.084l-0.024-0.101l-0.036,0.017l0.061,0.084l-0.024-0.101l0.024,0.097v-0.1l-0.024,0.003
		l0.024,0.097v-0.1v0.117l0.084-0.084l-0.084-0.033v0.117l0.084-0.084l-6.397-6.398l2.587-2.587
		c0.432-0.432,0.649-1.002,0.649-1.568c0.001-0.566-0.217-1.137-0.649-1.568c-0.432-0.432-1.002-0.649-1.568-0.649
		c-0.566-0.001-1.137,0.217-1.568,0.649l-2.587,2.587l-6.397-6.398l-0.084,0.084h0.117l-0.033-0.084l-0.084,0.084h0.117H7.912
		l0.107,0.027l0.004-0.027H7.912l0.107,0.027l0.001-0.003l-0.101-0.024l0.084,0.061l0.017-0.036l-0.101-0.024l0.084,0.061
		l-0.095-0.069l0.037,0.114l0.059-0.045l-0.095-0.069l0.037,0.114L31.373,2.77l-0.03-0.094l0,0.098l0.03-0.004l-0.03-0.094l0,0.098
		V2.657l-0.086,0.086l0.086,0.032V2.657l-0.086,0.086l0.086-0.085l-0.118,0l0.032,0.086l0.086-0.086l-0.118,0h0.093l-0.089-0.028
		l-0.003,0.028h0.093l-0.089-0.028L31.706,2.78l0.477,0.151c0.029-0.091,0.043-0.184,0.043-0.274
		c-0.004-0.331-0.174-0.534-0.261-0.622c-0.087-0.087-0.29-0.257-0.621-0.261c-0.09,0-0.184,0.014-0.276,0.044L7.639,9.316
		c-0.2,0.062-0.356,0.194-0.445,0.319c-0.091,0.126-0.127,0.24-0.146,0.316l0.001-0.003l-0.026,0.215
		c-0.004,0.168,0.06,0.427,0.26,0.624l7.105,7.105l3.294-3.294c0.238-0.238,0.547-0.355,0.861-0.356
		c0.314,0.001,0.623,0.118,0.861,0.356c0.238,0.238,0.355,0.547,0.356,0.861c-0.001,0.314-0.118,0.623-0.356,0.861l-3.294,3.294
		l7.105,7.105c0.196,0.2,0.455,0.264,0.623,0.26l0.212-0.025c0.076-0.019,0.19-0.056,0.316-0.146
		c0.125-0.089,0.257-0.244,0.319-0.445l7.498-23.429L31.706,2.78z"/>
	<path fill="#13181A" d="M23.963,6.318c-0.132-0.241-0.57-0.374-0.98-0.296l-0.442,0.083c-0.41,0.077-0.635,0.335-0.504,0.576
		C22.143,6.876,22.449,7,22.779,7l0.238-0.022l0.442-0.083C23.868,6.817,24.094,6.559,23.963,6.318z"/>
	<path fill="#13181A" d="M20.971,7.487c-0.103-0.369-0.447-0.572-0.769-0.454l-9.777,3.597c-0.321,0.118-0.498,0.513-0.395,0.882
		C10.112,11.81,10.353,12,10.611,12l0.187-0.034l9.777-3.597C20.897,8.251,21.074,7.856,20.971,7.487z"/>
</g>
</svg>
