<?xml version="1.0" encoding="utf-8"?>
<!-- Generator: Adobe Illustrator 17.0.0, SVG Export Plug-In . SVG Version: 6.00 Build 0)  -->
<!DOCTYPE svg PUBLIC "-//W3C//DTD SVG 1.1//EN" "http://www.w3.org/Graphics/SVG/1.1/DTD/svg11.dtd">
<svg version="1.1" id="Layer_1" xmlns="http://www.w3.org/2000/svg" xmlns:xlink="http://www.w3.org/1999/xlink" x="0px" y="0px"
	 width="34px" height="32px" viewBox="0 0 34 32" enable-background="new 0 0 34 32" xml:space="preserve">
<title>Shape</title>
<desc>Created with Sketch.</desc>
<g>
	<path fill="#13181A" d="M32.616,27.707L21.578,16.67l6.156-6.156c0.574-0.573,1.298-1.012,2.095-1.269
		c0.646-0.208,1.217-0.557,1.699-1.039c0.821-0.821,1.263-1.913,1.245-3.074c-0.018-1.161-0.496-2.239-1.344-3.036
		c-0.104-0.098-0.251-0.135-0.389-0.099c-0.138,0.036-0.248,0.141-0.29,0.278l-0.724,2.323c-0.211,0.675-0.931,1.053-1.607,0.842
		c-0.539-0.168-0.901-0.66-0.901-1.224c0-0.129,0.02-0.258,0.059-0.382l0.716-2.296c0.043-0.137,0.012-0.287-0.083-0.395
		c-0.094-0.108-0.238-0.161-0.38-0.138c-0.788,0.128-1.518,0.471-2.113,0.994c-1.045,0.919-1.577,2.292-1.423,3.673
		c0.169,1.517-0.371,3.023-1.482,4.134l-4.05,4.05l-0.657-0.657l-1.02-2.347L17,10.723L11.85,5.574
		c-0.078-0.078-0.183-0.121-0.293-0.121c-0.11,0-0.215,0.044-0.293,0.121L7.405,9.433L5.62,7.649l3.933-3.933
		c0.162-0.162,0.162-0.424,0-0.586l-1.78-1.78C7.624,1.201,7.387,1.187,7.222,1.318L1.764,5.649
		c-0.447,0.343-0.724,0.862-0.76,1.424C0.967,7.636,1.175,8.186,1.573,8.585l1.263,1.263c0.081,0.081,0.187,0.121,0.293,0.121
		s0.212-0.04,0.293-0.121l0.293-0.293l1.784,1.784l-0.293,0.293c-0.162,0.162-0.162,0.424,0,0.586l2.198,2.198
		c0.162,0.162,0.424,0.162,0.586,0l0.635-0.635l1.368,1.368l-0.635,0.635c-0.162,0.162-0.162,0.424,0,0.586l0.375,0.375
		c0.616,0.616,1.534,0.788,2.321,0.465l0.915,0.915c0.078,0.078,0.183,0.121,0.293,0.121c0.11,0,0.215-0.044,0.293-0.121
		l0.977-0.977c0.162-0.162,0.162-0.424,0-0.586l-0.495-0.495l0.922-0.544l1.069,1.069l-4.89,4.89
		c-0.574,0.573-1.298,1.012-2.095,1.269c-0.636,0.205-1.224,0.564-1.699,1.04c-0.821,0.821-1.263,1.913-1.245,3.074
		c0.018,1.161,0.496,2.239,1.344,3.035c0.104,0.098,0.251,0.135,0.389,0.099c0.138-0.036,0.248-0.141,0.29-0.277l0.725-2.322
		c0.102-0.327,0.325-0.595,0.629-0.754c0.303-0.159,0.65-0.19,0.977-0.088c0.539,0.168,0.901,0.66,0.901,1.224
		c0,0.129-0.02,0.257-0.059,0.382l-0.716,2.296c-0.043,0.137-0.011,0.287,0.083,0.395c0.079,0.091,0.194,0.143,0.313,0.143
		l0.067-0.005c0.788-0.129,1.518-0.473,2.112-0.994c1.046-0.919,1.578-2.292,1.423-3.672c-0.169-1.516,0.371-3.023,1.482-4.134
		l2.784-2.784l11.006,11.006C30.24,30.803,30.748,31,31.255,31c0.466,0,0.93-0.167,1.297-0.504c0.393-0.361,0.615-0.853,0.626-1.386
		C33.189,28.579,32.989,28.081,32.616,27.707z M23.4,10.392c1.29-1.29,1.917-3.043,1.72-4.812c-0.124-1.112,0.305-2.218,1.147-2.958
		c0.299-0.263,0.642-0.47,1.012-0.613l-0.492,1.578c-0.064,0.205-0.096,0.416-0.096,0.629c0,0.929,0.596,1.738,1.483,2.015
		c1.112,0.347,2.298-0.275,2.645-1.387l0.504-1.617c0.395,0.558,0.612,1.219,0.623,1.918c0.015,0.935-0.341,1.813-1.002,2.474
		c-0.388,0.388-0.848,0.669-1.367,0.836c-0.922,0.297-1.761,0.806-2.427,1.472l-6.156,6.156l-1.642-1.642L23.4,10.392z M2.159,7.999
		C1.93,7.769,1.81,7.452,1.831,7.128c0.021-0.324,0.181-0.623,0.443-0.825l5.173-4.105l1.226,1.226L3.129,8.968L2.159,7.999z
		 M15.472,21.604c-1.29,1.291-1.917,3.045-1.72,4.813c0.125,1.111-0.304,2.217-1.147,2.957c-0.299,0.263-0.641,0.469-1.011,0.612
		l0.492-1.577c0.064-0.205,0.096-0.416,0.096-0.629c0-0.929-0.596-1.738-1.483-2.015c-1.112-0.347-2.298,0.275-2.644,1.387
		l-0.505,1.617c-0.395-0.557-0.612-1.219-0.623-1.917c-0.015-0.935,0.341-1.814,1.002-2.475c0.388-0.388,0.848-0.67,1.367-0.837
		c0.922-0.297,1.761-0.806,2.427-1.472l4.89-4.89l1.642,1.642L15.472,21.604z M31.99,29.885c-0.43,0.395-1.127,0.368-1.555-0.059
		L15.319,14.709c-0.08-0.08-0.186-0.121-0.293-0.121l-0.211,0.058L11.91,16.36c-0.514,0.304-1.168,0.221-1.59-0.201l-0.082-0.082
		l2.931-2.931c0.162-0.162,0.162-0.424,0-0.586l-1.954-1.954c-0.162-0.162-0.424-0.162-0.586,0l-2.931,2.931l-1.612-1.612
		l5.471-5.471l4.801,4.801l1.02,2.347l0.087,0.128l14.565,14.565c0.212,0.212,0.326,0.496,0.319,0.798
		C32.342,29.397,32.215,29.679,31.99,29.885z"/>
	<path fill="#13181A" d="M32.616,27.707l0.354-0.354L22.286,16.67l5.802-5.802c0.515-0.515,1.172-0.914,1.895-1.147
		c0.719-0.231,1.364-0.625,1.9-1.161c0.897-0.896,1.393-2.093,1.392-3.358l-0.001-0.076c-0.019-1.295-0.556-2.508-1.502-3.394
		C31.6,1.57,31.375,1.484,31.146,1.484l-0.234,0.031l-0.01,0.003l0.011-0.003c-0.304,0.08-0.546,0.311-0.64,0.612l-0.724,2.323
		c-0.103,0.334-0.415,0.549-0.748,0.549l-0.233-0.036c-0.332-0.105-0.548-0.399-0.55-0.746l0.036-0.233l0.716-2.296
		c0.028-0.089,0.042-0.181,0.041-0.272c0-0.217-0.077-0.431-0.224-0.599C28.414,0.614,28.161,0.5,27.898,0.5l-0.149,0.012l0.003,0
		c-0.879,0.143-1.697,0.527-2.363,1.112c-1.035,0.91-1.619,2.218-1.619,3.578c0,0.175,0.01,0.35,0.029,0.526
		c0.018,0.164,0.027,0.329,0.027,0.492c0,1.191-0.48,2.345-1.366,3.232l-3.696,3.696l-0.236-0.236l-1.001-2.303l-0.114-0.167
		l-0.026-0.039L12.204,5.22c-0.172-0.171-0.404-0.268-0.647-0.268S11.082,5.049,10.91,5.22L7.405,8.726L6.327,7.649L9.907,4.07
		c0.178-0.177,0.268-0.414,0.268-0.647c0.001-0.232-0.09-0.469-0.268-0.647l-1.78-1.78C7.95,0.819,7.714,0.728,7.48,0.728
		c-0.199,0-0.402,0.066-0.569,0.199L1.454,5.258l0.311,0.392L1.46,5.253C0.899,5.684,0.551,6.336,0.505,7.041L0.5,7.201
		c0,0.649,0.257,1.275,0.72,1.737l1.263,1.263c0.177,0.178,0.414,0.268,0.647,0.268c0.232,0.001,0.469-0.09,0.647-0.268l0.293-0.293
		L3.715,9.554L3.361,9.908l1.784,1.784l0.354-0.354l-0.354-0.354l-0.293,0.293c-0.178,0.177-0.268,0.414-0.268,0.647
		c-0.001,0.232,0.09,0.469,0.268,0.647l2.198,2.198c0.177,0.178,0.414,0.268,0.647,0.268c0.232,0.001,0.469-0.09,0.647-0.268
		l0.282-0.282l0.661,0.661L9.005,15.43c-0.178,0.177-0.269,0.414-0.268,0.647c-0.001,0.232,0.09,0.469,0.268,0.647l0.375,0.375
		c0.507,0.508,1.183,0.772,1.863,0.771c0.338,0,0.679-0.065,1.001-0.197l-0.19-0.463l-0.354,0.354l0.915,0.915
		c0.172,0.171,0.404,0.268,0.647,0.268c0.242,0,0.475-0.096,0.647-0.268l0.977-0.977c0.178-0.177,0.268-0.414,0.268-0.647
		c0.001-0.232-0.09-0.469-0.268-0.647l-0.039-0.039l0.032-0.019l0.441,0.441l-4.537,4.537c-0.515,0.515-1.172,0.914-1.895,1.147
		c-0.713,0.23-1.367,0.63-1.899,1.162c-0.897,0.896-1.393,2.093-1.392,3.358l0.001,0.079l0-0.002
		c0.019,1.294,0.557,2.506,1.502,3.392c0.172,0.161,0.397,0.248,0.626,0.248l0.232-0.03c0.305-0.08,0.547-0.311,0.641-0.612
		l0.725-2.322c0.064-0.203,0.196-0.36,0.383-0.46c0.116-0.061,0.238-0.09,0.362-0.09l0.235,0.036
		c0.332,0.105,0.548,0.399,0.55,0.746l-0.036,0.233l-0.716,2.296c-0.028,0.089-0.042,0.181-0.042,0.272
		c0,0.217,0.078,0.431,0.224,0.6c0.175,0.202,0.428,0.315,0.69,0.315h0.021l0.087-0.007l0.02-0.002l0.02-0.003
		c0.879-0.144,1.696-0.528,2.361-1.112c1.035-0.91,1.62-2.216,1.62-3.576c0-0.175-0.01-0.352-0.029-0.527
		c-0.018-0.164-0.027-0.329-0.027-0.492c0-1.191,0.48-2.346,1.366-3.233l2.43-2.43l10.653,10.653
		c0.485,0.486,1.124,0.734,1.759,0.734c0.585,0.001,1.174-0.212,1.635-0.636c0.491-0.45,0.775-1.078,0.788-1.744l0-0.053
		c0.001-0.644-0.253-1.258-0.708-1.713L32.616,27.707l-0.354,0.353c0.271,0.272,0.415,0.62,0.416,1.006l0,0.033
		c-0.01,0.399-0.171,0.756-0.465,1.028c-0.272,0.25-0.611,0.372-0.958,0.372c-0.377,0-0.756-0.146-1.052-0.441l-11.36-11.36
		l-3.138,3.138c-1.067,1.067-1.659,2.479-1.659,3.94c0,0.2,0.011,0.402,0.034,0.603c0.016,0.139,0.023,0.278,0.023,0.417
		c0,1.073-0.462,2.106-1.28,2.825c-0.523,0.459-1.166,0.763-1.862,0.877l0.081,0.493l-0.041-0.498l-0.067,0.005l0.041,0.498v-0.5
		v0.086l0.065-0.056l-0.065-0.029v0.086l0.065-0.056l-0.064,0.056h0.085l-0.021-0.056l-0.064,0.056h0.085h-0.086l0.082,0.026
		l0.004-0.026h-0.086l0.082,0.026l0.716-2.296c0.054-0.172,0.081-0.351,0.081-0.531c0.001-0.78-0.506-1.47-1.252-1.701
		c-0.174-0.054-0.354-0.082-0.533-0.082c-0.285,0-0.569,0.07-0.826,0.205c-0.419,0.219-0.734,0.596-0.874,1.047l-0.725,2.322
		l0.081,0.025l-0.022-0.083l-0.06,0.057l0.081,0.025l-0.022-0.083l0.022,0.081v-0.084l-0.021,0.003l0.021,0.081v-0.084v0.085
		l0.058-0.062l-0.058-0.023v0.085l0.058-0.062c-0.751-0.707-1.169-1.65-1.186-2.679l0-0.008l0,0.006l0-0.059
		c0.001-1.006,0.387-1.937,1.099-2.651c0.419-0.419,0.94-0.738,1.499-0.917c0.871-0.281,1.663-0.76,2.296-1.392l5.244-5.244
		l-1.696-1.696l-1.811,1.069l0.952,0.952l0.061-0.06l-0.086,0l0.025,0.061l0.06-0.061l-0.086,0h0.085l-0.06-0.06l-0.025,0.06h0.085
		l-0.06-0.06l-0.977,0.977l0.06,0.06v-0.085l-0.06,0.025l0.06,0.06v-0.085v0.085l0.06-0.06l-0.06-0.025v0.085l0.06-0.06
		l-1.151-1.151l-0.308,0.126c-0.2,0.082-0.411,0.123-0.622,0.123c-0.424,0-0.841-0.163-1.156-0.479l-0.375-0.375l-0.061,0.06h0.086
		l-0.025-0.061l-0.061,0.061h0.086H9.651l0.061,0.061l0.025-0.061H9.651l0.061,0.061l0.635-0.635l0.354-0.354l-2.075-2.075
		l-0.989,0.989l0.06,0.06v-0.085l-0.06,0.025l0.06,0.06v-0.085v0.085l0.06-0.06l-0.06-0.025v0.085l0.06-0.06L5.56,11.864
		l-0.06,0.061h0.085l-0.025-0.06l-0.06,0.06h0.085H5.499l0.06,0.061l0.025-0.061H5.499l0.06,0.061l0.293-0.293l0.354-0.354
		L3.715,8.847L3.068,9.494l0.061,0.061V9.469L3.068,9.494l0.061,0.061V9.469v0.085l0.06-0.06l-0.06-0.025v0.085l0.06-0.06
		L1.927,8.231C1.653,7.957,1.5,7.586,1.5,7.201l0.003-0.095C1.53,6.688,1.737,6.301,2.069,6.046l0.002-0.002L7.533,1.71L7.48,1.642
		v0.086L7.533,1.71L7.48,1.642v0.086V1.643l-0.06,0.06l0.06,0.025V1.643l-0.06,0.06l1.78,1.78l0.061-0.06l-0.086,0L9.2,3.484
		L9.26,3.423l-0.086,0H9.26l-0.06-0.06l-0.025,0.06H9.26l-0.06-0.06L4.913,7.649l2.491,2.491l4.213-4.213l-0.061-0.061l0,0.086
		l0.06-0.025l-0.061-0.061l0,0.086V5.867l-0.06,0.06l0.06,0.025V5.867l-0.06,0.06l5.116,5.116l0.034,0.05l1.039,2.391l1.078,1.078
		l4.403-4.403c1.067-1.066,1.659-2.478,1.659-3.939c0-0.201-0.011-0.402-0.034-0.603c-0.016-0.139-0.023-0.277-0.023-0.415
		c0-1.074,0.462-2.108,1.28-2.827c0.523-0.46,1.167-0.763,1.863-0.876l0.003,0L27.898,1.4l0,0.099l0.016-0.001L27.898,1.4l0,0.099
		V1.415l-0.065,0.056L27.898,1.5V1.415l-0.065,0.056l0.064-0.056l-0.085,0l0.021,0.056l0.065-0.056l-0.085,0h0.085l-0.081-0.025
		l-0.004,0.025h0.085l-0.081-0.025L27.1,3.685c-0.054,0.172-0.081,0.351-0.081,0.531c-0.001,0.78,0.506,1.47,1.252,1.701
		c0.175,0.055,0.354,0.081,0.531,0.081c0.76,0,1.463-0.489,1.702-1.251l0.724-2.323l-0.082-0.026l0.022,0.083l0.06-0.057
		l-0.082-0.025l0.022,0.083l0.001,0l-0.023-0.087l0,0.09l0.023-0.003l-0.023-0.087l0,0.09V2.398l-0.058,0.062l0.058,0.023V2.398
		l-0.058,0.062c0.751,0.707,1.169,1.651,1.186,2.68l0,0.061c-0.001,1.006-0.387,1.937-1.099,2.651
		c-0.428,0.427-0.927,0.732-1.499,0.917c-0.871,0.281-1.663,0.76-2.296,1.392l-6.509,6.509l11.391,11.391L32.616,27.707z
		 M23.4,10.392l0.353,0.354c1.225-1.224,1.902-2.844,1.902-4.524c0-0.232-0.013-0.464-0.039-0.697
		c-0.012-0.108-0.018-0.216-0.018-0.323c0-0.837,0.36-1.644,0.998-2.204c0.255-0.224,0.546-0.4,0.862-0.522l-0.18-0.466L26.801,1.86
		l-0.492,1.578C26.23,3.691,26.19,3.953,26.19,4.216c-0.001,1.145,0.74,2.153,1.834,2.492c0.257,0.08,0.519,0.119,0.777,0.119
		c1.114,0,2.144-0.716,2.494-1.834l0.504-1.617l-0.477-0.149l-0.408,0.289c0.337,0.476,0.522,1.037,0.531,1.637l0,0.048
		c-0.001,0.784-0.301,1.508-0.856,2.065c-0.334,0.333-0.721,0.57-1.166,0.714c-0.996,0.321-1.903,0.87-2.628,1.595l-5.802,5.802
		l-0.935-0.935l3.696-3.696L23.4,10.392l-0.354-0.354l-4.403,4.403l2.349,2.349l6.509-6.51c0.607-0.608,1.379-1.077,2.227-1.35
		c0.593-0.19,1.125-0.516,1.567-0.959c0.74-0.739,1.15-1.729,1.149-2.772l0-0.063c-0.012-0.798-0.262-1.56-0.715-2.199l-0.584-0.826
		L30.34,4.696c-0.213,0.688-0.854,1.131-1.54,1.132c-0.158,0-0.319-0.023-0.479-0.073c-0.68-0.214-1.13-0.826-1.132-1.538
		c0-0.162,0.025-0.323,0.074-0.48l0.801-2.566l-0.966,0.373c-0.424,0.164-0.818,0.401-1.162,0.703
		c-0.855,0.752-1.338,1.831-1.338,2.955c0,0.144,0.008,0.289,0.024,0.434c0.022,0.196,0.033,0.391,0.033,0.586
		c0,1.411-0.566,2.774-1.609,3.817L23.4,10.392z M2.159,7.999l0.354-0.354C2.395,7.527,2.329,7.367,2.329,7.201L2.33,7.162l0-0.005
		l0,0.003c0.012-0.18,0.099-0.345,0.249-0.461l0.003-0.002L7.41,2.866l0.557,0.557L3.129,8.261L2.513,7.645L2.159,7.999L1.806,8.352
		l1.323,1.323l6.252-6.252L7.486,1.529L1.964,5.911l0.311,0.392L1.97,5.906C1.595,6.194,1.363,6.627,1.333,7.095l0-0.002
		L1.329,7.201c0,0.43,0.171,0.845,0.477,1.151L2.159,7.999z M15.472,21.604l-0.354-0.353c-1.225,1.225-1.902,2.846-1.902,4.525
		c0,0.231,0.013,0.464,0.039,0.696c0.012,0.108,0.018,0.217,0.018,0.324c0,0.835-0.36,1.641-0.998,2.202
		c-0.254,0.224-0.546,0.399-0.862,0.522l0.18,0.466l0.477,0.149l0.492-1.577c0.079-0.253,0.119-0.515,0.119-0.778
		c0.001-1.145-0.74-2.153-1.834-2.492c-0.257-0.08-0.519-0.119-0.777-0.119c-1.114,0-2.144,0.716-2.494,1.834L7.073,28.62
		l0.477,0.149l0.408-0.289c-0.337-0.476-0.522-1.036-0.531-1.636l0-0.048c0.001-0.784,0.301-1.508,0.856-2.065
		c0.334-0.334,0.722-0.571,1.167-0.714c0.996-0.321,1.903-0.87,2.628-1.595l4.537-4.537l0.935,0.935l-2.431,2.431L15.472,21.604
		l0.354,0.354l3.138-3.138l-2.349-2.349l-5.244,5.244c-0.607,0.608-1.379,1.077-2.227,1.35c-0.593,0.19-1.125,0.516-1.567,0.959
		c-0.74,0.739-1.15,1.728-1.149,2.772l0.001,0.064c0.012,0.797,0.262,1.559,0.715,2.198l0.584,0.825l0.806-2.582
		c0.213-0.688,0.854-1.131,1.539-1.132c0.158,0,0.319,0.023,0.479,0.073c0.68,0.214,1.13,0.826,1.132,1.538
		c0,0.162-0.025,0.323-0.074,0.48l-0.8,2.566l0.966-0.374c0.424-0.164,0.817-0.401,1.161-0.703c0.855-0.751,1.338-1.83,1.338-2.953
		c0-0.145-0.008-0.29-0.024-0.436c-0.022-0.195-0.033-0.391-0.033-0.585c0-1.41,0.566-2.774,1.609-3.818L15.472,21.604z
		 M31.99,29.885l-0.338-0.368c-0.104,0.096-0.243,0.147-0.396,0.148c-0.169,0-0.341-0.066-0.467-0.193L15.672,14.356
		c-0.176-0.176-0.411-0.268-0.647-0.268h-0.067l-0.275,0.075l-0.065,0.018l-2.963,1.749c-0.129,0.076-0.269,0.112-0.41,0.112
		c-0.21,0-0.416-0.081-0.572-0.237l-0.082-0.082l-0.353,0.354l0.354,0.354l2.931-2.931c0.178-0.177,0.268-0.414,0.268-0.647
		c0.001-0.232-0.09-0.47-0.268-0.647l-1.954-1.954c-0.177-0.178-0.414-0.268-0.647-0.268c-0.232-0.001-0.469,0.09-0.647,0.268
		L7.698,12.83l-0.905-0.905l4.764-4.764l4.38,4.38l1.001,2.303l0.114,0.167l0.027,0.039l14.598,14.598
		c0.114,0.115,0.172,0.256,0.173,0.42l0,0.017l0-0.003c-0.005,0.172-0.071,0.318-0.197,0.436L31.99,29.885l0.338,0.368
		c0.323-0.296,0.512-0.713,0.52-1.151l0-0.003l0-0.032c0.001-0.422-0.166-0.829-0.466-1.128L17.851,13.408l-0.034-0.05l-1.039-2.391
		l-5.221-5.221l-6.179,6.179l2.319,2.319l3.285-3.285l-0.061-0.061l0,0.086l0.061-0.025l-0.061-0.061l0,0.086v-0.086l-0.061,0.061
		l0.061,0.025v-0.086l-0.061,0.061l1.954,1.954l0.061-0.061l-0.086,0l0.025,0.061l0.061-0.061l-0.086,0h0.085l-0.06-0.06
		l-0.025,0.06h0.085l-0.06-0.06l-3.285,3.285l0.435,0.435c0.348,0.348,0.812,0.53,1.279,0.53c0.315,0,0.634-0.083,0.919-0.251
		l2.847-1.681l0.146-0.04l-0.132-0.482v0.5v-0.085l-0.06,0.06l0.06,0.025v-0.085l-0.06,0.06L30.082,30.18
		c0.324,0.323,0.751,0.485,1.174,0.485c0.381,0,0.77-0.133,1.073-0.411L31.99,29.885z"/>
</g>
</svg>
