<?xml version="1.0" encoding="utf-8"?>
<!-- Generator: Adobe Illustrator 17.0.0, SVG Export Plug-In . SVG Version: 6.00 Build 0)  -->
<!DOCTYPE svg PUBLIC "-//W3C//DTD SVG 1.1//EN" "http://www.w3.org/Graphics/SVG/1.1/DTD/svg11.dtd">
<svg version="1.1" id="Layer_1" xmlns="http://www.w3.org/2000/svg" xmlns:xlink="http://www.w3.org/1999/xlink" x="0px" y="0px"
	 width="34px" height="32px" viewBox="0 0 34 32" enable-background="new 0 0 34 32" xml:space="preserve">
<title>Shape</title>
<desc>Created with Sketch.</desc>
<g id="Page-1">
	<g id="Shape">
		<path fill="#13181A" d="M32.616,27.707L21.578,16.67l6.156-6.156c0.574-0.573,1.298-1.012,2.095-1.269
			c0.646-0.208,1.217-0.557,1.699-1.039c0.821-0.821,1.263-1.913,1.245-3.074c-0.018-1.161-0.496-2.239-1.344-3.036
			c-0.104-0.098-0.251-0.135-0.389-0.099c-0.138,0.036-0.248,0.141-0.29,0.278l-0.724,2.323c-0.211,0.675-0.931,1.053-1.607,0.842
			c-0.539-0.168-0.901-0.66-0.901-1.224c0-0.129,0.02-0.257,0.059-0.382l0.716-2.296c0.043-0.137,0.012-0.287-0.083-0.395
			c-0.094-0.108-0.238-0.161-0.379-0.138c-0.788,0.128-1.518,0.471-2.113,0.994c-1.045,0.919-1.577,2.292-1.423,3.673
			c0.169,1.517-0.371,3.023-1.482,4.134l-4.05,4.05l-0.657-0.657l-1.02-2.347c-0.021-0.048-0.05-0.091-0.087-0.128L11.85,5.574
			c-0.078-0.078-0.183-0.121-0.293-0.121s-0.215,0.044-0.293,0.121L7.405,9.433L5.62,7.649l3.933-3.933
			c0.162-0.162,0.162-0.424,0-0.586l-1.78-1.78C7.624,1.201,7.387,1.187,7.222,1.318L1.764,5.649
			c-0.447,0.343-0.724,0.862-0.76,1.424C0.967,7.636,1.175,8.186,1.573,8.585l1.263,1.263c0.081,0.081,0.187,0.121,0.293,0.121
			s0.212-0.04,0.293-0.121l0.293-0.293l1.784,1.784l-0.293,0.293c-0.162,0.162-0.162,0.424,0,0.586l2.198,2.198
			c0.162,0.162,0.424,0.162,0.586,0l0.635-0.635l1.368,1.368l-0.635,0.635c-0.162,0.162-0.162,0.424,0,0.586l0.375,0.375
			c0.616,0.616,1.534,0.788,2.321,0.465l0.915,0.915c0.078,0.078,0.183,0.121,0.293,0.121c0.11,0,0.215-0.044,0.293-0.121
			l0.977-0.977c0.162-0.162,0.162-0.424,0-0.586l-0.495-0.495l0.921-0.544l1.069,1.069l-4.89,4.89
			c-0.574,0.573-1.298,1.012-2.095,1.269c-0.636,0.205-1.224,0.564-1.699,1.04c-0.821,0.821-1.263,1.913-1.245,3.074
			c0.018,1.161,0.496,2.239,1.344,3.035c0.104,0.098,0.251,0.135,0.389,0.099c0.138-0.036,0.248-0.141,0.29-0.277l0.725-2.322
			c0.102-0.327,0.325-0.595,0.629-0.754c0.303-0.159,0.65-0.19,0.977-0.088c0.539,0.168,0.901,0.66,0.901,1.224
			c0,0.129-0.02,0.257-0.059,0.382l-0.716,2.296c-0.043,0.137-0.011,0.287,0.083,0.395c0.079,0.091,0.194,0.143,0.313,0.143
			c0.022,0,0.045-0.002,0.067-0.005c0.788-0.129,1.518-0.473,2.112-0.994c1.046-0.919,1.578-2.292,1.423-3.672
			c-0.169-1.516,0.371-3.023,1.482-4.134l2.784-2.784l11.006,11.006c0.391,0.391,0.9,0.588,1.406,0.588
			c0.466,0,0.93-0.167,1.297-0.504c0.393-0.361,0.615-0.853,0.626-1.386C33.189,28.579,32.989,28.081,32.616,27.707z M23.4,10.392
			c1.29-1.29,1.917-3.043,1.72-4.812c-0.124-1.112,0.305-2.218,1.147-2.958c0.299-0.263,0.642-0.47,1.012-0.613l-0.492,1.578
			c-0.064,0.205-0.096,0.416-0.096,0.629c0,0.929,0.596,1.738,1.483,2.015c1.112,0.347,2.298-0.275,2.645-1.387l0.504-1.617
			c0.395,0.558,0.612,1.219,0.623,1.918c0.015,0.935-0.341,1.813-1.002,2.474c-0.388,0.388-0.848,0.669-1.367,0.836
			c-0.922,0.297-1.761,0.806-2.427,1.472l-6.156,6.156l-1.642-1.642L23.4,10.392z M2.159,7.999C1.93,7.769,1.81,7.452,1.831,7.128
			s0.181-0.623,0.443-0.825l5.173-4.105l1.226,1.226L3.129,8.968L2.159,7.999z M15.472,21.604c-1.29,1.291-1.917,3.045-1.72,4.813
			c0.125,1.111-0.304,2.217-1.147,2.957c-0.299,0.263-0.641,0.469-1.011,0.612l0.492-1.577c0.064-0.205,0.096-0.416,0.096-0.629
			c0-0.929-0.596-1.738-1.483-2.015c-1.112-0.347-2.298,0.275-2.644,1.387l-0.505,1.617c-0.395-0.557-0.612-1.219-0.623-1.917
			c-0.015-0.935,0.341-1.814,1.002-2.475c0.388-0.388,0.848-0.67,1.367-0.837c0.922-0.297,1.761-0.806,2.427-1.472l4.89-4.89
			l1.642,1.642L15.472,21.604z M31.99,29.885c-0.43,0.395-1.127,0.369-1.555-0.059L15.319,14.709
			c-0.08-0.08-0.186-0.121-0.293-0.121c-0.072,0-0.145,0.019-0.211,0.058L11.91,16.36c-0.514,0.304-1.168,0.221-1.59-0.201
			l-0.082-0.082l2.931-2.931c0.162-0.162,0.162-0.424,0-0.586l-1.954-1.954c-0.162-0.162-0.424-0.162-0.586,0l-2.931,2.931
			l-1.612-1.612l5.471-5.471l4.801,4.801l1.02,2.347c0.021,0.048,0.05,0.091,0.087,0.128l14.565,14.565
			c0.212,0.212,0.326,0.496,0.319,0.798C32.342,29.397,32.215,29.679,31.99,29.885z"/>
		<path fill="#13181A" d="M31.255,31.5c-0.661,0-1.286-0.261-1.76-0.734L18.843,20.113l-2.431,2.431
			c-1.003,1.004-1.49,2.361-1.338,3.725c0.172,1.543-0.422,3.077-1.591,4.104c-0.665,0.583-1.48,0.968-2.361,1.111l-0.147,0.012
			c-0.266,0-0.517-0.115-0.691-0.315c-0.206-0.237-0.276-0.571-0.182-0.872l0.715-2.294c0.024-0.077,0.036-0.156,0.036-0.234
			c0-0.344-0.221-0.644-0.55-0.746c-0.197-0.063-0.411-0.043-0.596,0.054c-0.185,0.098-0.321,0.261-0.383,0.46L8.599,29.87
			c-0.094,0.302-0.333,0.531-0.641,0.611c-0.287,0.08-0.628-0.003-0.857-0.217c-0.949-0.891-1.482-2.095-1.502-3.393
			c-0.021-1.298,0.473-2.518,1.391-3.436c0.532-0.531,1.188-0.933,1.899-1.161c0.721-0.232,1.376-0.629,1.895-1.147l2.385-2.386
			c-0.207-0.021-0.403-0.114-0.552-0.262l-0.698-0.698c-0.891,0.238-1.88-0.023-2.54-0.684l-0.375-0.375
			c-0.173-0.173-0.268-0.402-0.268-0.646s0.095-0.474,0.268-0.646l0.282-0.282l-0.661-0.661L8.344,14.77
			c-0.346,0.346-0.948,0.345-1.293,0l-2.198-2.198c-0.173-0.172-0.268-0.402-0.268-0.646c0-0.216,0.074-0.42,0.21-0.583
			l-1.083-1.083c-0.349,0.291-0.904,0.268-1.23-0.058L1.22,8.938c-0.5-0.5-0.761-1.192-0.715-1.897
			C0.552,6.335,0.9,5.684,1.46,5.253l5.451-4.326c0.353-0.28,0.896-0.25,1.215,0.069l1.781,1.781c0.356,0.357,0.356,0.937,0,1.293
			l-3.58,3.58l1.078,1.077l3.506-3.506c0.345-0.345,0.948-0.345,1.293,0l5.149,5.15c0.082,0.082,0.146,0.177,0.192,0.282
			l0.982,2.259l0.236,0.237l3.696-3.696c1.003-1.002,1.491-2.36,1.339-3.725c-0.172-1.542,0.422-3.076,1.59-4.103
			c0.665-0.584,1.482-0.969,2.363-1.112L27.898,0.5c0.266,0,0.517,0.115,0.69,0.316c0.206,0.236,0.276,0.57,0.183,0.872
			l-0.717,2.295c-0.024,0.076-0.036,0.154-0.036,0.233c0,0.344,0.221,0.644,0.55,0.747c0.401,0.126,0.857-0.117,0.98-0.515
			l0.724-2.322c0.096-0.304,0.335-0.532,0.641-0.612c0.297-0.08,0.631,0.003,0.859,0.218c0.947,0.89,1.48,2.094,1.501,3.393
			c0.021,1.297-0.474,2.517-1.392,3.435c-0.538,0.539-1.178,0.93-1.9,1.162c-0.721,0.232-1.376,0.629-1.894,1.146l-5.803,5.802
			L32.97,27.354c0.47,0.472,0.722,1.099,0.708,1.766c-0.015,0.672-0.295,1.291-0.787,1.745C32.443,31.274,31.862,31.5,31.255,31.5z
			 M15.025,14.088c0.245,0,0.474,0.095,0.647,0.268l15.117,15.117c0.229,0.229,0.639,0.248,0.863,0.045
			c0.123-0.114,0.193-0.269,0.196-0.436c0.004-0.168-0.056-0.317-0.172-0.434L17.111,14.083c-0.081-0.081-0.146-0.175-0.192-0.281
			l-0.983-2.261l-4.379-4.38l-4.765,4.765l0.905,0.905l2.578-2.578c0.345-0.346,0.948-0.346,1.293,0l1.954,1.954
			c0.173,0.173,0.268,0.403,0.268,0.647s-0.096,0.474-0.269,0.646l-2.508,2.509c0.209,0.063,0.448,0.036,0.642-0.079l2.906-1.715
			C14.702,14.132,14.862,14.088,15.025,14.088z M10.072,25.17c0.263,0,0.524,0.04,0.776,0.118c1.097,0.342,1.834,1.344,1.834,2.492
			c0,0.264-0.04,0.525-0.119,0.777l-0.072,0.23c0.576-0.622,0.859-1.467,0.763-2.316c-0.213-1.92,0.465-3.823,1.863-5.222
			l2.431-2.431l-0.936-0.935l-4.537,4.536c-0.723,0.723-1.631,1.274-2.627,1.595c-0.443,0.143-0.836,0.383-1.167,0.715
			c-0.565,0.564-0.869,1.315-0.856,2.113c0.002,0.165,0.019,0.328,0.048,0.487l0.102-0.328C7.92,25.906,8.922,25.17,10.072,25.17z
			 M12.276,16.725l0.987,0.987l0.856-0.856l-0.766-0.767L12.276,16.725z M14.848,16.169l0.039,0.04
			c0.155,0.155,0.242,0.352,0.263,0.553l0.171-0.171l-0.441-0.44L14.848,16.169z M20.057,14.442l0.936,0.935l5.803-5.802
			c0.722-0.722,1.63-1.273,2.627-1.595c0.443-0.143,0.836-0.382,1.167-0.714c0.564-0.564,0.868-1.314,0.855-2.113
			c-0.003-0.165-0.019-0.328-0.048-0.487l-0.102,0.327c-0.42,1.348-1.912,2.14-3.271,1.715c-1.097-0.342-1.834-1.344-1.834-2.492
			c0-0.264,0.04-0.526,0.12-0.779l0.071-0.229c-0.576,0.622-0.859,1.467-0.765,2.316c0.214,1.921-0.465,3.825-1.863,5.221
			L20.057,14.442z M8.747,13.195l1.833,1.833l2.175-2.175l-1.833-1.833L8.747,13.195z M3.836,8.968l2.25,2.25l1.198-1.199
			L5.034,7.77L3.836,8.968z M7.41,2.866L2.586,6.694C2.433,6.812,2.342,6.98,2.331,7.16C2.319,7.341,2.385,7.518,2.513,7.645
			l0.616,0.616l4.838-4.838L7.41,2.866z"/>
	</g>
</g>
</svg>
