<?xml version="1.0" encoding="UTF-8"?>
<svg width="74px" height="43px" viewBox="0 0 74 43" version="1.1" xmlns="http://www.w3.org/2000/svg" xmlns:xlink="http://www.w3.org/1999/xlink">
    <!-- Generator: Sketch 49.3 (51167) - http://www.bohemiancoding.com/sketch -->
    <title>iconmonstr-medical-4@1.5x</title>
    <desc>Created with Sketch.</desc>
    <defs></defs>
    <g id="Page-1" stroke="none" stroke-width="1" fill="none" fill-rule="evenodd">
        <g id="iconmonstr-medical-4" fill="#000000">
            <path d="M54.6545699,0.132716049 C55.8704973,0.132716049 57.0093414,0.732858025 57.7080645,1.7440216 C59.8514785,4.84055247 66.5403226,15.2623457 66.5403226,15.2623457 C66.5403226,15.2623457 70.0016129,18.310966 71.5134409,19.6272438 C73.6046371,21.4503642 74,22.9053302 74,25.3487654 L74,31.6527778 C74,33.7406667 72.3290323,35.4351852 70.2701613,35.4351852 L66.5403226,35.4351852 C66.5403226,39.610963 63.1983871,43 59.0806452,43 C54.9629032,43 51.6209677,39.610963 51.6209677,35.4351852 L22.3790323,35.4351852 C22.3790323,39.610963 19.0370968,43 14.9193548,43 C10.8016129,43 7.45967742,39.610963 7.45967742,35.4351852 L2.48655914,35.4351852 C1.11646505,35.4351852 0,34.3080278 0,32.9135802 L0,2.65432099 C0,1.26239506 1.11397849,0.132716049 2.48655914,0.132716049 L46.6478495,0.132716049 L54.6545699,0.132716049 Z M15.0909274,32.2781358 C16.8066532,32.2781358 18.2016129,33.6902346 18.2016129,35.4326636 C18.2016129,37.172571 16.8066532,38.5871914 15.0909274,38.5871914 C13.3727151,38.5871914 11.9802419,37.172571 11.9802419,35.4326636 C11.9802419,33.6902346 13.3727151,32.2781358 15.0909274,32.2781358 Z M59.2522177,32.2781358 C60.9679435,32.2781358 62.3629032,33.6902346 62.3629032,35.4326636 C62.3629032,37.172571 60.9679435,38.5871914 59.2522177,38.5871914 C57.5340054,38.5871914 56.1415323,37.172571 56.1415323,35.4326636 C56.1415323,33.6902346 57.5340054,32.2781358 59.2522177,32.2781358 Z M44.1612903,5.17592593 L19.2956989,5.17592593 L4.97311828,30.3919753 L9.36189516,30.3919753 C10.7270161,28.8437099 12.7112903,27.8703704 14.9193548,27.8703704 C17.1274194,27.8703704 19.1116935,28.8437099 20.4768145,30.3919753 L53.5231855,30.3919753 C54.8883065,28.8437099 56.8725806,27.8703704 59.0806452,27.8703704 C61.2887097,27.8703704 63.2729839,28.8437099 64.6381048,30.3919753 L69.0268817,30.3919753 L69.0268817,25.3487654 C69.0268817,24.1106574 69.0268817,24.1106574 68.2709677,23.4525185 L64.6828629,20.3055556 L44.1612903,20.3055556 L44.1612903,5.17592593 Z M54.0030914,5.17592593 L49.1344086,5.17592593 L49.1344086,15.2623457 L60.5999328,15.2623457 C58.5261425,12.049821 55.4925403,7.37224383 54.0030914,5.17592593 Z" id="Shape"></path>
        </g>
    </g>
</svg>