<?xml version="1.0" encoding="UTF-8"?>
<svg width="33px" height="33px" viewBox="0 0 33 33" version="1.1" xmlns="http://www.w3.org/2000/svg" xmlns:xlink="http://www.w3.org/1999/xlink">
    <!-- Generator: Sketch 49.3 (51167) - http://www.bohemiancoding.com/sketch -->
    <title>button-of-four-tiles-squares-outlines</title>
    <desc>Created with Sketch.</desc>
    <defs></defs>
    <g id="Page-1" stroke="none" stroke-width="1" fill="none" fill-rule="evenodd">
        <g id="button-of-four-tiles-squares-outlines" fill="#13181A" fill-rule="nonzero">
            <path d="M15.9994839,12.4221935 C15.9994839,14.3979355 14.397471,16 12.4217928,16 L3.57769104,16 C1.60201284,16 0,14.3979355 0,12.4221935 L0,3.57832258 C0,1.60206452 1.60201284,0 3.57769104,0 L12.422309,0 C14.3979872,0 16,1.60206452 16,3.57780645 L15.9994839,12.4221935 Z M13.9350344,3.57832258 C13.9350344,2.74219355 13.2573788,2.06451613 12.4217928,2.06451613 L3.57769104,2.06451613 C2.74210509,2.06451613 2.06444953,2.74219355 2.06444953,3.57832258 L2.06444953,12.4232258 C2.06444953,13.2588387 2.74210509,13.9365161 3.57769104,13.9365161 L12.422309,13.9365161 C13.2578949,13.9365161 13.9355505,13.2588387 13.9355505,12.4232258 L13.9350344,3.57832258 Z" id="Shape"></path>
            <g id="Group" transform="translate(3.000000, 4.000000)">
                <path d="M0.923076923,4 C0.667846154,4 0.461538462,3.7765 0.461538462,3.5 L0.461538462,2.599 C0.461538462,1.214 1.31446154,0 2.48723077,0 L5.36261538,0 C5.61738462,0 5.82415385,0.2235 5.82415385,0.5 C5.82415385,0.7765 5.61738462,1 5.36261538,1 L2.48723077,1 C1.76723077,1 1.38461538,1.86 1.38461538,2.5995 L1.38461538,3.5 C1.38461538,3.7765 1.17784615,4 0.923076923,4 Z" id="Shape"></path>
                <path d="M0.747230769,5.7155 C0.626769231,5.7155 0.506769231,5.6605 0.419538462,5.5705 C0.336,5.476 0.285692308,5.3455 0.285692308,5.2155 C0.285692308,5.0855 0.336,4.9555 0.419538462,4.8605 C0.594923077,4.6755 0.899076923,4.6755 1.07492308,4.8605 C1.158,4.9555 1.20876923,5.0855 1.20876923,5.2155 C1.20876923,5.3455 1.158,5.476 1.07492308,5.5655 C0.987230769,5.6595 0.867230769,5.7155 0.747230769,5.7155 Z" id="Shape"></path>
            </g>
            <path d="M32.9989678,12.4221935 C32.9989678,14.3979355 31.3970066,16 29.4213922,16 L20.5775756,16 C18.6019612,16 17,14.3979355 17,12.4221935 L17,3.57832258 C17,1.60206452 18.6019612,0 20.5775756,0 L29.4219083,0 C31.3975227,0 33,1.60206452 33,3.57780645 L32.9989678,12.4221935 Z M30.9345849,3.57832258 C30.9345849,2.74219355 30.2574673,2.06451613 29.4213922,2.06451613 L20.5775756,2.06451613 C19.7415005,2.06451613 19.0643829,2.74219355 19.0643829,3.57832258 L19.0643829,12.4232258 C19.0643829,13.2588387 19.7415005,13.9365161 20.5775756,13.9365161 L29.4219083,13.9365161 C30.2574673,13.9365161 30.9356171,13.2588387 30.9356171,12.4232258 L30.9345849,3.57832258 Z" id="Shape"></path>
            <path d="M15.9994839,29.4227097 C15.9994839,31.3984516 14.397471,33 12.4217928,33 L3.57769104,33 C1.60201284,33 0,31.3984516 0,29.4227097 L0,20.5778065 C0,18.6020645 1.60201284,17 3.57769104,17 L12.422309,17 C14.3979872,17 16,18.6020645 16,20.5778065 L15.9994839,29.4227097 Z M13.9350344,20.5778065 C13.9350344,19.7421935 13.2573788,19.0645161 12.4217928,19.0645161 L3.57769104,19.0645161 C2.74210509,19.0645161 2.06444953,19.7421935 2.06444953,20.5778065 L2.06444953,29.4227097 C2.06444953,30.2583226 2.74210509,30.9365161 3.57769104,30.9365161 L12.422309,30.9365161 C13.2578949,30.9365161 13.9355505,30.2588387 13.9355505,29.4227097 L13.9350344,20.5778065 Z" id="Shape"></path>
            <path d="M32.9989678,29.4227097 C32.9989678,31.3984516 31.3970066,33 29.4213922,33 L20.5775756,33 C18.6019612,33 17,31.3984516 17,29.4227097 L17,20.5778065 C17,18.6020645 18.6019612,17 20.5775756,17 L29.4219083,17 C31.3975227,17 33,18.6020645 33,20.5778065 L32.9989678,29.4227097 Z M30.9345849,20.5778065 C30.9345849,19.7421935 30.2574673,19.0645161 29.4213922,19.0645161 L20.5775756,19.0645161 C19.7415005,19.0645161 19.0643829,19.7421935 19.0643829,20.5778065 L19.0643829,29.4227097 C19.0643829,30.2583226 19.7415005,30.9365161 20.5775756,30.9365161 L29.4219083,30.9365161 C30.2574673,30.9365161 30.9356171,30.2588387 30.9356171,29.4227097 L30.9345849,20.5778065 Z" id="Shape"></path>
        </g>
    </g>
</svg>