<?xml version="1.0" encoding="utf-8"?>
<!-- Generator: Adobe Illustrator 17.0.0, SVG Export Plug-In . SVG Version: 6.00 Build 0)  -->
<!DOCTYPE svg PUBLIC "-//W3C//DTD SVG 1.1//EN" "http://www.w3.org/Graphics/SVG/1.1/DTD/svg11.dtd">
<svg version="1.1"
	 id="svg17" xmlns:dc="http://purl.org/dc/elements/1.1/" xmlns:sodipodi="http://sodipodi.sourceforge.net/DTD/sodipodi-0.dtd" xmlns:svg="http://www.w3.org/2000/svg" xmlns:cc="http://creativecommons.org/ns#" xmlns:rdf="http://www.w3.org/1999/02/22-rdf-syntax-ns#" xmlns:inkscape="http://www.inkscape.org/namespaces/inkscape" sodipodi:docname="constructor-with-hard-hat-protection-on-his-head.svg" inkscape:version="0.92.2 (5c3e80d, 2017-08-06)"
	 xmlns="http://www.w3.org/2000/svg" xmlns:xlink="http://www.w3.org/1999/xlink" x="0px" y="0px" width="51px" height="65px"
	 viewBox="0 0 51 65" enable-background="new 0 0 51 65" xml:space="preserve">
<sodipodi:namedview  objecttolerance="10" bordercolor="#666666" id="namedview19" gridtolerance="10" guidetolerance="10" inkscape:cy="32.5" inkscape:zoom="3.6307692" pagecolor="#ffffff" inkscape:cx="-67.868644" showgrid="false" borderopacity="1" inkscape:current-layer="svg17" inkscape:window-maximized="0" inkscape:window-y="419" inkscape:window-x="958" inkscape:pageopacity="0" inkscape:pageshadow="2" inkscape:window-height="1518" inkscape:window-width="2411">
	</sodipodi:namedview>
<title  id="title2">constructor-with-hard-hat-protection-on-his-head</title>
<desc  id="desc4">Created with Sketch.</desc>
<g id="Page-1">
	<g id="constructor-with-hard-hat-protection-on-his-head" transform="translate(3,3)">
		<g id="Shape">
			<path fill="#323E42" d="M47.181,61.5H-2.026l-0.223-2.253c-0.505-5.096-0.708-14.39,3.612-19.383
				c1.863-2.128,4.299-3.202,7.251-3.202h3.405l3.31-3.165l1.702,1.316c1.564,1.209,3.398,1.849,5.305,1.849
				c2.017,0,3.961-0.717,5.621-2.074l1.716-1.402l3.653,3.51h3.229c2.689,0,4.957,0.994,6.741,2.955
				c4.619,5.138,4.378,15.376,4.061,19.54L47.181,61.5z M2.559,56.5h39.929c0.123-5.03-0.556-10.89-2.899-13.495
				c-0.831-0.915-1.741-1.31-3.032-1.31h-5.241l-2.03-1.95c-2.13,1.26-4.496,1.917-6.948,1.917c-2.303,0-4.529-0.58-6.541-1.692
				l-1.77,1.692H8.614c-1.508,0-2.581,0.458-3.479,1.484C2.864,45.771,2.305,51.417,2.559,56.5z"/>
		</g>
		<g id="path9">
			<path fill="#323E42" d="M22.947,39.023c-1.904,0-3.727-0.446-5.419-1.327c-0.768-0.4-1.432-0.826-2.034-1.301
				c-0.498-0.368-0.96-0.826-1.369-1.229c-1.863-1.948-3.119-4.346-3.707-7.034c-1.854-1.044-3.075-3.11-3.075-5.465
				c0-1.943,0.83-3.74,2.275-4.931l0.692-0.57h25.782l0.692,0.57c1.446,1.19,2.276,2.988,2.276,4.931
				c0,2.619-1.523,4.861-3.667,5.758c-0.587,2.512-1.799,4.793-3.561,6.673c-0.453,0.45-0.935,0.927-1.494,1.343
				c-0.542,0.429-1.206,0.854-1.972,1.254C26.675,38.577,24.851,39.023,22.947,39.023z M12.422,22.167
				c-0.051,0.155-0.079,0.325-0.079,0.501c0,0.65,0.375,1.118,0.722,1.177l1.833,0.315l0.225,1.846
				c0.271,2.226,1.159,4.182,2.567,5.655c0.255,0.251,0.569,0.563,0.842,0.765c0.414,0.325,0.821,0.584,1.306,0.836
				c1.939,1.01,4.274,1.011,6.22-0.001c0.482-0.251,0.889-0.51,1.242-0.789c0.334-0.249,0.648-0.56,0.951-0.86
				c1.365-1.459,2.246-3.398,2.481-5.542l0.245-2.227h2.342c0.351,0,0.742-0.502,0.742-1.175c0-0.176-0.027-0.346-0.079-0.501
				H12.422z"/>
		</g>
		<g id="path11">
			<path fill="#323E42" d="M39.063,20.762H5.938v-9.283H8.52c1.441-3.918,4.477-7.492,8.108-9.462l3.692-2.003v13.35
				c0.009,0.05,0.018,0.099,0.034,0.145l4.278,0.061c-0.006-0.003,0.036-0.035,0.068-0.094c-0.008,0.013-0.006-0.003,0.002-0.067
				V0.084l3.676,1.958c3.628,1.933,6.664,5.485,8.124,9.437h2.56V20.762z M29.147,15.762h3.473l-0.559-1.794
				c-0.452-1.542-1.291-3.069-2.358-4.391l-0.01,4.176c-0.041,0.468-0.139,1.178-0.51,1.939
				C29.172,15.715,29.159,15.739,29.147,15.762z M12.405,15.762h3.487c-0.287-0.561-0.416-1.095-0.489-1.488
				c-0.083-0.386-0.083-0.69-0.083-0.877V9.549c-1.065,1.317-1.893,2.833-2.347,4.379L12.405,15.762z"/>
		</g>
		<g id="path13">
			<path fill="#323E42" d="M23.804,17.952H19.79c-1.309,0-2.549-0.671-3.316-1.796l-0.108-0.173
				c-0.387-0.681-0.584-1.417-0.584-2.189V1.658c0-0.213,0.024-0.392,0.052-0.535C16.058-0.919,17.772-2.5,19.79-2.5h3.532
				c1.869,0,3.564,1.236,4.217,3.075l0.063,0.206c0.084,0.32,0.21,0.804,0.21,1.407v11.607c0,0.672-0.159,1.32-0.473,1.925
				C26.684,17.075,25.317,17.952,23.804,17.952z M20.781,12.952h2.031V2.5h-2.031V12.952z"/>
		</g>
	</g>
</g>
</svg>
