<?xml version="1.0" encoding="UTF-8"?>
<svg width="24px" height="24px" viewBox="0 0 24 24" version="1.1" xmlns="http://www.w3.org/2000/svg" xmlns:xlink="http://www.w3.org/1999/xlink">
    <!-- Generator: Sketch 48.2 (47327) - http://www.bohemiancoding.com/sketch -->
    <title>iconmonstr-map-8 (1)@1.5x</title>
    <desc>Created with Sketch.</desc>
    <defs></defs>
    <g id="Account" stroke="none" stroke-width="1" fill="none" fill-rule="evenodd" transform="translate(-320.000000, -289.000000)">
        <g id="iconmonstr-map-8-(1)" transform="translate(320.000000, 289.000000)" fill="#323E42" fill-rule="nonzero">
            <path d="M12,0 C8.852,0 6,2.553 6,5.702 C6,10.384 10.783,10.879 12,18 C13.217,10.879 18,10.384 18,5.702 C18,2.553 15.149,0 12,0 Z M12,8 C10.895,8 10,7.105 10,6 C10,4.895 10.895,4 12,4 C13.105,4 14,4.895 14,6 C14,7.105 13.105,8 12,8 Z M24,24 L17.293,21.573 L12,24 L6.419,21.573 L0,24 L4,15 L7.96,13.416 C8.34,13.932 8.701,14.496 9.021,15.145 L5.498,16.555 L3.773,20.435 L6.445,19.425 L7.951,16.738 L7.316,19.782 L11.505,21.571 L12,19.55 L12.465,21.574 L16.615,19.684 L15.997,16.651 L17.569,19.547 L20.301,20.536 L18.562,16.558 L14.981,15.143 C15.3,14.493 15.662,13.928 16.043,13.412 L20.064,15 L24,24 Z" id="Shape"></path>
        </g>
    </g>
</svg>