<?xml version="1.0" encoding="UTF-8"?>
<svg width="64px" height="48px" viewBox="0 0 64 48" version="1.1" xmlns="http://www.w3.org/2000/svg" xmlns:xlink="http://www.w3.org/1999/xlink">
    <!-- Generator: Sketch 48.2 (47327) - http://www.bohemiancoding.com/sketch -->
    <title>iconmonstr-delivery-6@1.5x</title>
    <desc>Created with Sketch.</desc>
    <defs></defs>
    <g id="Launch" stroke="none" stroke-width="1" fill="none" fill-rule="evenodd" transform="translate(-241.000000, -555.000000)">
        <g id="iconmonstr-delivery-6" transform="translate(241.000000, 555.000000)" fill="#323E42">
            <path d="M13.3333333,21.3333333 L13.3333333,24 L34.6666667,24 L34.6666667,5.33333333 L8,5.33333333 L8,2.66666667 C8,1.19466667 9.19466667,0 10.6666667,0 L37.3333333,0 C38.8053333,0 40,1.19466667 40,2.66666667 L40,8 L52.4453333,8 C55.424,8 56.712,9.536 57.608,10.952 C59.192,13.4586667 61.704,17.4373333 63.232,19.96 C63.7333333,20.792 64,21.7466667 64,22.72 L64,34.6666667 C64,37.5706667 62.0186667,40 58.6666667,40 L56,40 C56,44.416 52.416,48 48,48 C43.584,48 40,44.416 40,40 L29.3333333,40 C29.3333333,44.416 25.7493333,48 21.3333333,48 C16.9173333,48 13.3333333,44.416 13.3333333,40 L10.6666667,40 C9.19466667,40 8,38.8053333 8,37.3333333 L8,21.3333333 L2.66666667,21.3333333 L2.66666667,16 L21.3333333,16 L21.3333333,21.3333333 L13.3333333,21.3333333 Z M21.3333333,36.8 C23.0986667,36.8 24.5333333,38.2346667 24.5333333,40 C24.5333333,41.7653333 23.0986667,43.2 21.3333333,43.2 C19.568,43.2 18.1333333,41.7653333 18.1333333,40 C18.1333333,38.2346667 19.568,36.8 21.3333333,36.8 Z M48,36.8 C49.7653333,36.8 51.2,38.2346667 51.2,40 C51.2,41.7653333 49.7653333,43.2 48,43.2 C46.2346667,43.2 44.8,41.7653333 44.8,40 C44.8,38.2346667 46.2346667,36.8 48,36.8 Z M40,29.3333333 L13.3333333,29.3333333 L13.3333333,34.6666667 L15.3733333,34.6666667 C16.8373333,33.0293333 18.9653333,32 21.3333333,32 C23.7013333,32 25.8293333,33.0293333 27.2933333,34.6666667 L42.04,34.6666667 C43.504,33.0293333 45.632,32 48,32 C50.368,32 52.496,33.0293333 53.96,34.6666667 L58.6666667,34.6666667 L58.6666667,22.4666667 L54.104,14.656 C53.6266667,13.8373333 52.7493333,13.3333333 51.8026667,13.3333333 L40,13.3333333 L40,29.3333333 Z M42.6666667,16 L42.6666667,24 L56,24 L52.1946667,17.344 C51.72,16.512 50.8373333,16 49.88,16 L42.6666667,16 Z M0,8 L21.3333333,8 L21.3333333,13.3333333 L0,13.3333333 L0,8 Z" id="Shape"></path>
        </g>
    </g>
</svg>