<?xml version="1.0" encoding="utf-8"?>
<!-- Generator: Adobe Illustrator 19.1.0, SVG Export Plug-In . SVG Version: 6.00 Build 0)  -->
<svg version="1.1" id="Layer_1" xmlns="http://www.w3.org/2000/svg" xmlns:xlink="http://www.w3.org/1999/xlink" x="0px" y="0px"
	 viewBox="-786 691.9 80 60" style="enable-background:new -786 691.9 80 60;" xml:space="preserve">
<style type="text/css">
	.st0{fill:#FFFFFF;}
</style>
<g>
	<circle cx="-768.3" cy="744.7" r="1.5"/>
	<path d="M-768.3,737.5c-0.6,0-1.2,0.1-1.8,0.2c-3.1,0.8-5.4,3.6-5.4,7c0,3.4,2.3,6.2,5.4,7c0.6,0.2,1.2,0.2,1.8,0.2
		c3.9,0,7.3-3.2,7.3-7.3C-761,740.5-764.3,737.5-768.3,737.5z M-768.3,749.1c-2.4-0.1-4.3-2-4.3-4.3c0-2.4,1.9-4.3,4.3-4.3
		s4.3,1.9,4.3,4.3C-763.9,747.2-765.8,749.1-768.3,749.1z"/>
	<path d="M-707.3,740.6v-7.9h-46.2v-17.8c0-1.6-1.3-2.9-2.9-2.9h-2.2h-8.6h-2.6h-5.2c-1,0-1.7,0.8-1.7,1.7c0,0.4,0.1,0.7,0.3,1
		c-1.8,3.5-7.5,15.6-7.5,15.6c-0.3,0.6-0.5,1.2-0.5,1.8l-0.4,7.3c0,0.2,0,0.4,0,0.6s0.1,0.3,0.1,0.5c-1,0-1.2,1.3-1.2,1.4
		c0,0.7,0.6,1.4,1.4,1.4h5.9c0.7,0,1.4-0.5,1.8-1.1l1.4-3.2c0.9-1.9,2.9-3.2,5-3.2h4.3c2.1,0,4,1.3,4.9,3.2l1.4,3.7
		c0.2,0.4,0.6,0.7,1,0.7h32.6c-0.1,0.4-0.1,0.9-0.1,1.3c0,3.4,2.3,6.2,5.4,7c0.6,0.2,1.2,0.2,1.8,0.2c3.9,0,7.3-3.2,7.3-7.3
		c0-0.5-0.1-0.9-0.2-1.3h4.4c0.7,0,1.4-0.6,1.4-1.4C-706,741.3-706.6,740.7-707.3,740.6z"/>
	<path class="st0" d="M-758.3,723.6h-14.5c-3.2,0-3.1-2-2.3-3.7c0.6-1.4,1.2-2.6,1.7-3.5c0.2-0.6,0.9-1,1.5-1h13.7v8.3H-758.3z"/>
	<path class="st0" d="M-718.9,749c-2.4,0-4.3-1.9-4.3-4.3c0-2.4,1.9-4.3,4.3-4.3s4.3,1.9,4.3,4.3C-714.6,747.1-716.5,749-718.9,749z
		"/>
	<circle cx="-718.9" cy="744.7" r="1.5"/>
</g>
</svg>
