<?xml version="1.0" encoding="utf-8"?>
<!-- Generator: Adobe Illustrator 19.1.0, SVG Export Plug-In . SVG Version: 6.00 Build 0)  -->
<svg version="1.1" id="Layer_1" xmlns="http://www.w3.org/2000/svg" xmlns:xlink="http://www.w3.org/1999/xlink" x="0px" y="0px"
	 viewBox="-786 700.2 80 60" style="enable-background:new -786 700.2 80 60;" xml:space="preserve">
<g>
	<circle cx="-768.5" cy="753.1" r="1.5"/>
	<path d="M-768.5,745.9c-0.6,0-1.2,0.1-1.8,0.2c-3.1,0.8-5.4,3.6-5.4,6.9c0,3.4,2.3,6.2,5.4,6.9c0.6,0.2,1.2,0.2,1.8,0.2
		c3.9,0,7.2-3.2,7.2-7.2C-761.3,749.1-764.5,745.9-768.5,745.9z M-772.8,753.1c0-2.4,1.9-4.3,4.3-4.3s4.3,1.9,4.3,4.3
		s-1.9,4.3-4.3,4.3C-770.9,757.3-772.8,755.4-772.8,753.1z"/>
	<g>
		<circle cx="-717.3" cy="753.1" r="1.5"/>
		<path d="M-707.4,749v-9.5l0,0v-30.2h-49.5c-2,0-3.6,1.6-3.6,3.6v7.7h-7h-2.6h-5.2c-1,0-1.7,0.8-1.7,1.7c0,0.4,0.1,0.7,0.3,1
			c-1.8,3.5-7.4,15.5-7.4,15.5c-0.3,0.6-0.5,1.2-0.5,1.8l-0.4,7.2c0,0.2,0,0.4,0,0.6s0.1,0.3,0.1,0.5c-1,0-1.2,1.3-1.2,1.4
			c0,0.7,0.6,1.4,1.4,1.4h5.9c0.7,0,1.4-0.5,1.8-1.1l1.4-3.2c0.9-1.9,2.9-3.2,5-3.2h4.3c2.1,0,4,1.3,4.9,3.2l1.4,3.7
			c0.2,0.4,0.6,0.7,1,0.7h34.5c-0.1,0.4-0.1,0.9-0.1,1.3c0,3.4,2.3,6.2,5.4,6.9c0.6,0.2,1.2,0.2,1.8,0.2c3.9,0,7.2-3.2,7.2-7.2
			c0-0.5-0.1-0.9-0.2-1.3h2.8c0.7,0,1.4-0.6,1.4-1.4C-706,749.7-706.6,749.1-707.4,749z M-760.5,732.1h-14.4c-3.2,0-3.1-2-2.3-3.7
			c0.6-1.4,1.2-2.6,1.7-3.5c0.2-0.6,0.9-1,1.5-1h13.6v8.2H-760.5z M-717.3,757.3c-2.4,0-4.3-1.9-4.3-4.3c0-2.4,1.9-4.3,4.3-4.3
			c2.4,0,4.3,1.9,4.3,4.3C-712.9,755.4-714.9,757.3-717.3,757.3z"/>
	</g>
</g>
</svg>
