<?xml version="1.0" encoding="UTF-8"?>
<svg width="73px" height="48px" viewBox="0 0 73 48" version="1.1" xmlns="http://www.w3.org/2000/svg" xmlns:xlink="http://www.w3.org/1999/xlink">
    <!-- Generator: Sketch 48.2 (47327) - http://www.bohemiancoding.com/sketch -->
    <title>iconmonstr-delivery-2@1.5x</title>
    <desc>Created with Sketch.</desc>
    <defs></defs>
    <g id="Vehicle-Details_Blank" stroke="none" stroke-width="1" fill="none" fill-rule="evenodd" transform="translate(-238.000000, -470.000000)">
        <g id="iconmonstr-delivery-2" transform="translate(238.000000, 470.000000)" fill="#000000">
            <path d="M17.5020492,40 L2.64275956,40 C1.18395628,40 0,38.8053333 0,37.3333333 L0,2.66666667 C0,1.19466667 1.18395628,0 2.64275956,0 L46.5724044,0 C48.0312077,0 49.2151639,1.19466667 49.2151639,2.66666667 L49.2151639,8 L61.5489228,8 C64.5008852,8 65.7773381,9.536 66.6653053,10.952 C68.2351045,13.4586667 70.724584,17.4373333 72.2388852,19.96 C72.735724,20.792 73,21.7466667 73,22.72 L73,34.6666667 C73,37.5706667 71.0364296,40 67.7144809,40 L65.0717213,40 C65.0717213,44.416 61.5198525,48 57.1434426,48 C52.7670328,48 49.2151639,44.416 49.2151639,40 L33.3586066,40 C33.3586066,44.416 29.8067377,48 25.4303279,48 C21.053918,48 17.5020492,44.416 17.5020492,40 Z M25.4303279,36.8 C27.1798347,36.8 28.6016393,38.2346667 28.6016393,40 C28.6016393,41.7653333 27.1798347,43.2 25.4303279,43.2 C23.680821,43.2 22.2590164,41.7653333 22.2590164,40 C22.2590164,38.2346667 23.680821,36.8 25.4303279,36.8 Z M57.1434426,36.8 C58.8929495,36.8 60.3147541,38.2346667 60.3147541,40 C60.3147541,41.7653333 58.8929495,43.2 57.1434426,43.2 C55.3939358,43.2 53.9721311,41.7653333 53.9721311,40 C53.9721311,38.2346667 55.3939358,36.8 57.1434426,36.8 Z M49.2151639,29.3333333 L5.28551913,29.3333333 L5.28551913,34.6666667 L19.5237602,34.6666667 C20.9746352,33.0293333 23.0835574,32 25.4303279,32 C27.7770984,32 29.8860205,33.0293333 31.3368955,34.6666667 L51.236875,34.6666667 C52.68775,33.0293333 54.7966721,32 57.1434426,32 C59.4902131,32 61.5991352,33.0293333 63.0500102,34.6666667 L67.7144809,34.6666667 L67.7144809,22.4666667 L63.1927193,14.656 C62.7196653,13.8373333 61.8501974,13.3333333 60.9120178,13.3333333 L49.2151639,13.3333333 L49.2151639,29.3333333 Z M43.9296448,5.33333333 L5.28551913,5.33333333 L5.28551913,24 L43.9296448,24 L43.9296448,5.33333333 Z M51.8579235,16 L51.8579235,24 L65.0717213,24 L61.3005034,17.344 C60.8300922,16.512 59.9553388,16 59.0065881,16 L51.8579235,16 Z" id="Shape"></path>
        </g>
    </g>
</svg>