<?xml version="1.0" encoding="utf-8"?>
<!-- Generator: Adobe Illustrator 19.1.0, SVG Export Plug-In . SVG Version: 6.00 Build 0)  -->
<svg version="1.1" id="Layer_1" xmlns="http://www.w3.org/2000/svg" xmlns:xlink="http://www.w3.org/1999/xlink" x="0px" y="0px"
	 viewBox="-539 320.5 80 60" style="enable-background:new -539 320.5 80 60;" xml:space="preserve">
<g>
	<circle cx="-519.6" cy="372.7" r="1.7"/>
	<path d="M-519.6,364.7c-0.7,0-1.3,0.1-2,0.2c-3.4,0.9-6,4-6,7.6c0,3.8,2.5,6.9,6,7.6c0.7,0.2,1.3,0.2,2,0.2c4.3,0,8-3.5,8-8
		S-515.2,364.7-519.6,364.7z M-519.6,377.4c-2.7-0.1-4.8-2.2-4.8-4.8c0-2.7,2.1-4.8,4.8-4.8c2.7,0,4.8,2.1,4.8,4.8
		C-514.8,375.3-516.9,377.4-519.6,377.4z"/>
	<circle cx="-473.1" cy="372.7" r="1.7"/>
	<path d="M-460.4,368.1v-2.7h1.2v-28.7h-47.4l0,0h-2.4h-9.4h-2.9h-5.7c-1.1,0-1.9,0.9-1.9,1.9c0,0.4,0.1,0.8,0.3,1.1
		c-2,3.9-8.2,17.1-8.2,17.1c-0.3,0.7-0.6,1.3-0.6,2l-0.4,8c0,0.2,0,0.4,0,0.7s0.1,0.3,0.1,0.6c-1.1,0-1.3,1.4-1.3,1.5
		c0,0.8,0.7,1.5,1.5,1.5h6.5c0.8,0,1.5-0.6,2-1.2l1.5-3.5c1-2.1,3.2-3.5,5.5-3.5h4.8c2.3,0,4.4,1.4,5.4,3.5l1.5,4.1
		c0.2,0.4,0.7,0.8,1.1,0.8h28.1c-0.1,0.4-0.1,1-0.1,1.4c0,3.8,2.5,6.9,6,7.6c0.7,0.2,1.3,0.2,2,0.2c4.3,0,8-3.5,8-8
		c0-0.6-0.1-1-0.2-1.4h4.9c0.8,0,1.5-0.7,1.5-1.5C-459,368.9-459.7,368.2-460.4,368.1z M-510.8,349.5h-15.9c-3.5,0-3.4-2.2-2.5-4.1
		c0.7-1.5,1.3-2.9,1.9-3.9c0.2-0.7,1-1.1,1.7-1.1h15L-510.8,349.5L-510.8,349.5z M-473.1,377.3c-2.7,0-4.8-2.1-4.8-4.8
		c0-2.7,2.1-4.8,4.8-4.8s4.8,2.1,4.8,4.8C-468.4,375.2-470.5,377.3-473.1,377.3z"/>
</g>
</svg>
