<?xml version="1.0" encoding="UTF-8"?>
<svg width="60px" height="46px" viewBox="0 0 60 46" version="1.1" xmlns="http://www.w3.org/2000/svg" xmlns:xlink="http://www.w3.org/1999/xlink">
    <!-- Generator: Sketch 48.2 (47327) - http://www.bohemiancoding.com/sketch -->
    <title>iconmonstr-medical-4 copy@1.5x</title>
    <desc>Created with Sketch.</desc>
    <defs></defs>
    <g id="Vehicle-Details_Blank" stroke="none" stroke-width="1" fill="none" fill-rule="evenodd" transform="translate(-245.000000, -310.000000)">
        <g id="iconmonstr-medical-4-copy" transform="translate(245.000000, 310.000000)" fill="#000000">
            <path d="M37.5,2.55555556 L40.55,2.55555556 C41.7725,2.55555556 42.9175,3.16377778 43.62,4.18855556 C45.775,7.32677778 52.5,17.8888889 52.5,17.8888889 C52.5,17.8888889 55.98,20.9785556 57.5,22.3125556 C59.6025,24.1602222 60,25.6347778 60,28.1111111 L60,34.5 C60,36.616 58.32,38.3333333 56.25,38.3333333 L52.5,38.3333333 C52.5,42.5653333 49.14,46 45,46 C40.86,46 37.5,42.5653333 37.5,38.3333333 L22.5,38.3333333 C22.5,42.5653333 19.14,46 15,46 C10.86,46 7.5,42.5653333 7.5,38.3333333 L2.5,38.3333333 C1.1225,38.3333333 0,37.191 0,35.7777778 L0,5.11111111 C0,3.70044444 1.12,2.55555556 2.5,2.55555556 L32.5,2.55555556 L32.5,0 L37.5,0 L37.5,2.55555556 Z M15.1725,35.1337778 C16.8975,35.1337778 18.3,36.5648889 18.3,38.3307778 C18.3,40.0941111 16.8975,41.5277778 15.1725,41.5277778 C13.445,41.5277778 12.045,40.0941111 12.045,38.3307778 C12.045,36.5648889 13.445,35.1337778 15.1725,35.1337778 Z M45.1725,35.1337778 C46.8975,35.1337778 48.3,36.5648889 48.3,38.3307778 C48.3,40.0941111 46.8975,41.5277778 45.1725,41.5277778 C43.445,41.5277778 42.045,40.0941111 42.045,38.3307778 C42.045,36.5648889 43.445,35.1337778 45.1725,35.1337778 Z M30,7.66666667 L8,7.66666667 L5,33.2222222 L9.4125,33.2222222 C10.785,31.6531111 12.78,30.6666667 15,30.6666667 C17.22,30.6666667 19.215,31.6531111 20.5875,33.2222222 L39.4125,33.2222222 C40.785,31.6531111 42.78,30.6666667 45,30.6666667 C47.22,30.6666667 49.215,31.6531111 50.5875,33.2222222 L55,33.2222222 L55,28.1111111 C55,26.8563333 55,26.8563333 54.24,26.1893333 L50.6325,23 L30,23 L30,7.66666667 Z M39.895,7.66666667 L35,7.66666667 L35,17.8888889 L46.5275,17.8888889 C44.4425,14.6331111 41.3925,9.89255556 39.895,7.66666667 Z" id="Shape"></path>
        </g>
    </g>
</svg>