<?xml version="1.0" encoding="UTF-8"?>
<svg width="17px" height="25px" viewBox="0 0 17 25" version="1.1" xmlns="http://www.w3.org/2000/svg" xmlns:xlink="http://www.w3.org/1999/xlink">
    <!-- Generator: Sketch 48.2 (47327) - http://www.bohemiancoding.com/sketch -->
    <title>Fill 1@1.5x</title>
    <desc>Created with Sketch.</desc>
    <defs></defs>
    <g id="Track-Driver" stroke="none" stroke-width="1" fill="none" fill-rule="evenodd" transform="translate(-108.000000, -678.000000)">
        <g id="Rectangle-8-Copy" transform="translate(0.000000, 363.000000)" fill="#017564">
            <g id="Group-5" transform="translate(108.000000, 315.000000)">
                <g id="Page-1">
                    <path d="M4.56611019,2.70416403 L3.5327306,3.22916351 C-1.81498348,6.10624404 7.75211136,25.2968503 13.2786213,22.6937278 L14.2604835,22.1989367 L11.9664414,17.6343578 L10.9300314,18.1562323 C7.73493888,19.767689 2.5842033,9.5947823 5.82374223,7.80415905 L6.84095947,7.28540955 L4.56611019,2.70416403 Z M2.61652798,1.37708199 L5.48938383,0 L9.5713847,8.21770031 L6.8197464,9.61561561 C6.27628774,10.9270727 9.00065209,16.1666509 10.1501985,16.2531091 C10.2411116,16.1926925 12.848299,14.8697772 12.848299,14.8697772 L17,23.1322691 C17,23.1322691 14.208966,24.5426844 14.1170427,24.5864343 C13.5129753,24.8708091 12.889715,25.0020589 12.2563534,24.9999756 C6.55003736,24.9801839 0.0477261463,14.1354029 0.000249273972,6.94790988 C-0.0159130655,4.44062067 0.752808207,2.37812268 2.61652798,1.37708199 Z" id="Fill-1"></path>
                </g>
            </g>
        </g>
    </g>
</svg>