<?xml version="1.0" encoding="UTF-8"?>
<svg width="65px" height="59px" viewBox="0 0 65 59" version="1.1" xmlns="http://www.w3.org/2000/svg" xmlns:xlink="http://www.w3.org/1999/xlink">
    <!-- Generator: Sketch 48.2 (47327) - http://www.bohemiancoding.com/sketch -->
    <title>iconmonstr-shipping-box-11@1.5x</title>
    <desc>Created with Sketch.</desc>
    <defs></defs>
    <g id="Launch" stroke="none" stroke-width="1" fill="none" fill-rule="evenodd" transform="translate(-67.000000, -548.000000)">
        <g id="iconmonstr-shipping-box-11" transform="translate(67.000000, 548.000000)" fill="#323E42" fill-rule="nonzero">
            <path d="M47.8752083,42.5845909 L46.94625,43.1075455 L46.94625,38.5028636 L47.8752083,37.9799091 L47.8752083,42.5845909 Z M55.5208333,33.6702273 L54.5945833,34.1931818 L54.5945833,38.7978636 L55.5208333,38.2722273 L55.5208333,33.6702273 Z M65,13.2830455 L65,44.1427273 L38.59375,59 L10.8333333,45.6204091 L10.8333333,14.7607273 L37.285625,0 L65,13.2830455 Z M32.9170833,8.57109091 L51.935,17.1529091 L56.5391667,14.6936818 L37.2747917,6.13063636 L32.9170833,8.57109091 Z M35.2083333,29.2291364 L16.25,20.5400455 L16.25,42.5041364 L35.2083333,50.9465 L35.2083333,29.2291364 Z M43.3902083,21.6959091 L24.9247917,13.0068182 L19.38625,16.1391818 L37.9627083,24.6164091 L43.3902083,21.6959091 Z M59.5833333,19.1669545 L54.1666667,22.0579545 L54.1666667,29.5295 L46.0416667,34.0564091 L46.0416667,26.3971364 L40.625,29.2881364 L40.625,51.7135 L59.5833333,41.0264545 L59.5833333,19.1669545 Z M46.2935417,38.8729545 L45.3483333,39.4066364 L45.3483333,44.0005909 L46.2935417,43.4776364 L46.2935417,38.8729545 Z M50.09875,36.7275 L49.1670833,37.2531364 L49.1670833,41.8578182 L50.09875,41.3321818 L50.09875,36.7275 Z M51.6533333,35.8505455 L50.724375,36.3735 L50.724375,40.9781818 L51.6533333,40.4552273 L51.6533333,35.8505455 Z M53.235,34.9601818 L52.2870833,35.4938636 L52.2870833,40.0985455 L53.235,39.5648636 L53.235,34.9601818 Z M8.125,24.1363636 L2.70833333,24.1363636 L2.70833333,26.8181818 L8.125,26.8181818 L8.125,24.1363636 Z M8.125,29.5 L3.55271368e-15,29.5 L3.55271368e-15,32.1818182 L8.125,32.1818182 L8.125,29.5 Z M8.125,34.8636364 L2.70833333,34.8636364 L2.70833333,37.5454545 L8.125,37.5454545 L8.125,34.8636364 Z" id="Shape"></path>
        </g>
    </g>
</svg>