<?xml version="1.0" encoding="UTF-8"?>
<svg width="57px" height="38px" viewBox="0 0 57 38" version="1.1" xmlns="http://www.w3.org/2000/svg" xmlns:xlink="http://www.w3.org/1999/xlink">
    <!-- Generator: Sketch 48.2 (47327) - http://www.bohemiancoding.com/sketch -->
    <title>iconmonstr-medical-4 copy 2@1.5x</title>
    <desc>Created with Sketch.</desc>
    <defs></defs>
    <g id="Vehicle-Details_Blank" stroke="none" stroke-width="1" fill="none" fill-rule="evenodd" transform="translate(-71.000000, -314.000000)">
        <g id="iconmonstr-medical-4-copy-2" transform="translate(71.000000, 314.000000)" fill="#000000">
            <path d="M37.620471,0.131944444 C38.8385417,0.131944444 39.9793931,0.728597222 40.6793478,1.73388194 C42.8265399,4.81240972 49.5271739,10.4236111 49.5271739,10.4236111 C49.5271739,10.4236111 52.9945652,13.4545069 54.509058,14.7631319 C56.6039402,16.5756528 57,18.0221597 57,20.4513889 L57,26.71875 C57,28.7945 55.326087,30.4791667 53.263587,30.4791667 L49.5271739,30.4791667 C49.5271739,34.6306667 46.1793478,38 42.0543478,38 C37.9293478,38 34.5815217,34.6306667 34.5815217,30.4791667 L22.4184783,30.4791667 C22.4184783,34.6306667 19.0706522,38 14.9456522,38 C10.8206522,38 7.47282609,34.6306667 7.47282609,30.4791667 L2.49094203,30.4791667 C1.11843297,30.4791667 0,29.3585625 0,27.9722222 L0,2.63888889 C0,1.25505556 1.11594203,0.131944444 2.49094203,0.131944444 L29.5996377,0.131944444 L37.620471,0.131944444 Z M15.1175272,27.3404722 C16.8362772,27.3404722 18.2336957,28.7443611 18.2336957,30.4766597 C18.2336957,32.2064514 16.8362772,33.6128472 15.1175272,33.6128472 C13.3962862,33.6128472 12.0013587,32.2064514 12.0013587,30.4766597 C12.0013587,28.7443611 13.3962862,27.3404722 15.1175272,27.3404722 Z M42.2262228,27.3404722 C43.9449728,27.3404722 45.3423913,28.7443611 45.3423913,30.4766597 C45.3423913,32.2064514 43.9449728,33.6128472 42.2262228,33.6128472 C40.5049819,33.6128472 39.1100543,32.2064514 39.1100543,30.4766597 C39.1100543,28.7443611 40.5049819,27.3404722 42.2262228,27.3404722 Z M27.1086957,5.14583333 L4.98188406,5.14583333 L4.98188406,25.4652778 L9.37839674,25.4652778 C10.7459239,23.9260139 12.7336957,22.9583333 14.9456522,22.9583333 C17.1576087,22.9583333 19.1453804,23.9260139 20.5129076,25.4652778 L36.4870924,25.4652778 C37.8546196,23.9260139 39.8423913,22.9583333 42.0543478,22.9583333 C44.2663043,22.9583333 46.2540761,23.9260139 47.6216033,25.4652778 L52.0181159,25.4652778 L52.0181159,20.4513889 C52.0181159,19.2204792 52.0181159,19.2204792 51.2608696,18.5661667 L47.6664402,15.4375 L27.1086957,15.4375 L27.1086957,13.0625 L27.1086957,5.14583333 Z M35.772192,5.14583333 C34.8829765,5.14583333 34.3864487,5.14583333 34.2826087,5.14583333 C33.8340132,5.14583333 32.7047861,5.14583333 30.8949275,5.14583333 L30.8949275,11.6111111 L43.5763134,11.6111111 C40.2608696,8.3125 40.2608696,8.97222222 35.772192,5.14583333 Z" id="Shape"></path>
        </g>
    </g>
</svg>