<?xml version="1.0" encoding="utf-8"?>
<!-- Generator: Adobe Illustrator 19.1.0, SVG Export Plug-In . SVG Version: 6.00 Build 0)  -->
<svg version="1.1" id="Layer_1" xmlns="http://www.w3.org/2000/svg" xmlns:xlink="http://www.w3.org/1999/xlink" x="0px" y="0px"
	 viewBox="-539 320.5 80 60" style="enable-background:new -539 320.5 80 60;" xml:space="preserve">
<style type="text/css">
	.st0{fill:#FFFFFF;}
</style>
<title>016-Small Van</title>
<desc>Created with Sketch.</desc>
<g>
	<g>
		<g>
			<path d="M-497.1,356.5c0,0-14.3,0-15.1,0c0-0.9,2.2-2.6,4.3-4.3c1.7-1.4,3.3-3,4.5-3.2c2.4-0.8,7.8-0.3,7.8-0.3L-497.1,356.5z
				 M-533.2,372.5c0.7,0,1.3-0.5,1.7-1l1.3-3c0.9-1.8,2.8-3,4.8-3h4.1c2,0,3.8,1.2,4.7,3l1,2.9c0.4,1,0.9,1.3,1.8,1.3s53.7,0,53.7,0
				c0.7,0,1.1-0.5,1.1-1.1v-5.6c0-0.2,0-0.3-0.1-0.5l0,0c-0.1-0.1-0.1-0.3-0.3-0.4l-0.8-0.8v-16.8c0-0.7-0.5-1.1-1.1-1.1
				c0,0-39.6,0-39.8,0c-0.2,0-2-0.2-3.9,0.6c-2.3,0.9-8.5,7.8-11.7,8.6c-3.2,0.7-16.8,1.4-19.4,4c-3.3,3.1-2.8,7.9-2.8,9.6
				C-539.1,372.2-533.2,372.5-533.2,372.5z"/>
		</g>
	</g>
	<circle cx="-523.4" cy="373.8" r="1.4"/>
	<path d="M-523.4,367c-0.6,0-1.1,0.1-1.7,0.2c-3,0.8-5.1,3.4-5.1,6.6c0,3.2,2.2,5.9,5.1,6.6c0.6,0.2,1.1,0.2,1.7,0.2
		c3.7,0,6.9-3,6.9-6.9S-519.7,367-523.4,367z M-523.4,377.9c-2.3-0.1-4.1-1.9-4.1-4.1c0-2.3,1.8-4.1,4.1-4.1s4.1,1.8,4.1,4.1
		C-519.3,376.1-521.1,377.9-523.4,377.9z"/>
	<g>
		<circle class="st0" cx="-473.4" cy="373.8" r="4.2"/>
		<circle cx="-473.4" cy="373.8" r="1.4"/>
		<path d="M-473.4,367c-0.6,0-1.1,0.1-1.7,0.2c-3,0.8-5.1,3.4-5.1,6.6c0,3.2,2.2,5.9,5.1,6.6c0.6,0.2,1.1,0.2,1.7,0.2
			c3.7,0,6.9-3,6.9-6.9S-469.7,367-473.4,367z M-473.4,377.9c-2.3-0.1-4.1-1.9-4.1-4.1c0-2.3,1.8-4.1,4.1-4.1c2.3,0,4.1,1.8,4.1,4.1
			C-469.3,376.1-471.1,377.9-473.4,377.9z"/>
	</g>
</g>
</svg>
